<svg width="200" height="90" xmlns="http://www.w3.org/2000/svg" xmlns:xlink="http://www.w3.org/1999/xlink">
 <!-- Copyright 1992, 1994, 1997, 2000, 2004 Adobe Systems Incorporated. All rights reserved. Myriad is either a registered trademark or a trademark of Adobe Systems Incorporated in the United States and/or other countries. -->
 <g>
  <title>background</title>
  <rect fill="none" id="canvas_background" height="92" width="202" y="-1" x="-1"/>
 </g>
 <g>
  <title>Layer 1</title>
  <g id="svg_1">
   <g id="svg_2">
    <g id="svg_3">
     <g id="svg_4">
      <defs transform="translate(0.398438, 0.5) scale(9.78332, 10.5741) translate(-0.398438, -0.5) translate(0.0423233, 0.0472854) scale(0.440435, 0.457804) translate(-0.0423233, -0.0472854)">
       <path d="m43.299999,15.4l-0.899998,-0.299999c0.299999,-0.3 0.399998,-0.6 0.399998,-1l0.900002,0.299999c0.099998,0.400001 -0.100002,0.8 -0.400002,1z" id="SVGID_1_"/>
      </defs>
      <clipPath transform="translate(0.398438, 0.5) scale(9.78332, 10.5741) translate(-0.398438, -0.5) translate(0.0423233, 0.0472854) scale(0.440435, 0.457804) translate(-0.0423233, -0.0472854)" id="SVGID_2_">
       <use id="svg_5" xlink:href="#SVGID_1_"/>
      </clipPath>
      <g id="svg_6" clip-path="url(#SVGID_2_)">
       <path id="svg_7" fill="#82796B" d="m185.266602,72.628792l-3.878021,-1.452255c1.292679,-1.452255 1.723557,-2.904518 1.723557,-4.840858l3.878036,1.452255c0.430893,1.936348 -0.430893,3.872688 -1.723572,4.840858"/>
      </g>
     </g>
     <g id="svg_8">
      <defs transform="translate(0.398438, 0.5) scale(9.78332, 10.5741) translate(-0.398438, -0.5) translate(0.0423233, 0.0472854) scale(0.440435, 0.457804) translate(-0.0423233, -0.0472854)">
       <path d="m42.299999,15.9l-0.899998,-0.299999c0.399998,0 0.799999,-0.200001 1.099998,-0.5l0.900002,0.299999c-0.300003,0.3 -0.700001,0.5 -1.100002,0.5z" id="SVGID_3_"/>
      </defs>
      <clipPath transform="translate(0.398438, 0.5) scale(9.78332, 10.5741) translate(-0.398438, -0.5) translate(0.0423233, 0.0472854) scale(0.440435, 0.457804) translate(-0.0423233, -0.0472854)" id="SVGID_4_">
       <use id="svg_9" xlink:href="#SVGID_3_"/>
      </clipPath>
      <g id="svg_10" clip-path="url(#SVGID_4_)">
       <path id="svg_11" fill="#8D8274" d="m180.957672,75.049217l-3.878021,-1.452255c0,0 0.430893,0 0.430893,0l3.447128,1.452255c0,0 0,0 0,0"/>
       <path id="svg_12" fill="#897F71" d="m180.957672,75.049217l-3.878021,-1.452255c0.430893,0 0.861786,0 1.292679,0l3.878021,1.452255c-0.430893,0 -0.861771,0 -1.292679,0"/>
       <path id="svg_13" fill="#867C6E" d="m182.250351,75.049217l-3.878021,-1.452255c0.430878,0 0.861786,-0.484085 1.292664,-0.484085l3.878052,1.452263c-0.430908,0 -0.861786,0.484077 -1.292694,0.484077"/>
       <path id="svg_14" fill="#82796B" d="m183.543045,74.56514l-3.878052,-1.936348c0.861801,-0.484085 1.292679,-0.96817 2.154465,-1.452255l3.878052,1.452255c-0.861801,0.96817 -1.292694,1.452255 -2.154465,1.936348"/>
      </g>
     </g>
     <g id="svg_15">
      <defs transform="translate(0.398438, 0.5) scale(9.78332, 10.5741) translate(-0.398438, -0.5) translate(0.0423233, 0.0472854) scale(0.440435, 0.457804) translate(-0.0423233, -0.0472854)">
       <path d="m43.299999,15.4l-0.899998,-0.299999c0,0 0.099998,0 0.099998,0l0.799999,0.299999c0,0 0,0 0,0z" id="SVGID_5_"/>
      </defs>
      <clipPath transform="translate(0.398438, 0.5) scale(9.78332, 10.5741) translate(-0.398438, -0.5) translate(0.0423233, 0.0472854) scale(0.440435, 0.457804) translate(-0.0423233, -0.0472854)" id="SVGID_6_">
       <use id="svg_16" xlink:href="#SVGID_5_"/>
      </clipPath>
      <g id="svg_17" clip-path="url(#SVGID_6_)">
       <path id="svg_18" fill="#94897A" d="m185.266602,72.628792l-3.878021,-1.452255c0,0 0,0 0,0l3.878021,1.452255c0,0 0,0 0,0"/>
       <path id="svg_19" fill="#908677" d="m185.266602,72.628792l-3.878021,-1.452255c0,0 0,0 0.430878,0l3.447144,1.452255c0,0 0,0 0,0"/>
      </g>
     </g>
     <g id="svg_20">
      <defs transform="translate(0.398438, 0.5) scale(9.78332, 10.5741) translate(-0.398438, -0.5) translate(0.0423233, 0.0472854) scale(0.440435, 0.457804) translate(-0.0423233, -0.0472854)">
       <path d="m42.200001,14.9c0.299999,0.1 0.599998,0.200001 0.899998,0.3c0,0.1 0.100002,0.1 0.200001,0.2l-0.899998,-0.299999c-0.100002,-0.1 -0.200001,-0.1 -0.200001,-0.200001z" id="SVGID_7_"/>
      </defs>
      <clipPath transform="translate(0.398438, 0.5) scale(9.78332, 10.5741) translate(-0.398438, -0.5) translate(0.0423233, 0.0472854) scale(0.440435, 0.457804) translate(-0.0423233, -0.0472854)" id="SVGID_8_">
       <use id="svg_21" xlink:href="#SVGID_7_"/>
      </clipPath>
      <g id="svg_22" clip-path="url(#SVGID_8_)">
       <path id="svg_23" fill="#82796B" d="m185.266602,72.628792l-3.878021,-1.452255c-1.292694,-0.484093 -0.430908,-1.936348 -2.154465,-4.356773l3.878021,1.452255c1.292679,2.420425 0.430908,3.872688 2.154465,4.356773"/>
      </g>
     </g>
     <g id="svg_24">
      <defs transform="translate(0.398438, 0.5) scale(9.78332, 10.5741) translate(-0.398438, -0.5) translate(0.0423233, 0.0472854) scale(0.440435, 0.457804) translate(-0.0423233, -0.0472854)">
       <path d="m42.200001,14.9c-0.100002,-0.099999 -0.100002,-0.4 -0.299999,-0.7l0.899998,0.3c0.200001,0.3 0.200001,0.5 0.299999,0.7c0,0 0,0 -0.099998,0c0,0 0,0 -0.099998,0c0,0 0,0 -0.100002,0c0,0 0,0 -0.099998,0c0,0 0,0 -0.100002,0c0,0 0,0 -0.099998,0c0,0 0,0 -0.099998,0c0,0 0,0 -0.100002,0c0,0 0,0 0,0c0,0 0,0 0,0c0,0 0,0 0,0c0,0 0,0 0,0c0,0 0,0 0,0c0,-0.3 0,-0.3 -0.099998,-0.3c0.099998,0 0,0 0,0c0,0 0,0 0,0z" id="SVGID_9_"/>
      </defs>
      <clipPath transform="translate(0.398438, 0.5) scale(9.78332, 10.5741) translate(-0.398438, -0.5) translate(0.0423233, 0.0472854) scale(0.440435, 0.457804) translate(-0.0423233, -0.0472854)" id="SVGID_10_">
       <use id="svg_25" xlink:href="#SVGID_9_"/>
      </clipPath>
      <g id="svg_26" clip-path="url(#SVGID_10_)">
       <path id="svg_27" fill="#82796B" d="m185.266602,72.628792l-3.878021,-1.452255c-1.292694,-0.484093 -0.430908,-1.936348 -2.154465,-4.356773l3.878021,1.452255c1.292679,2.420425 0.430908,3.872688 2.154465,4.356773"/>
      </g>
     </g>
     <g id="svg_28">
      <defs transform="translate(0.398438, 0.5) scale(9.78332, 10.5741) translate(-0.398438, -0.5) translate(0.0423233, 0.0472854) scale(0.440435, 0.457804) translate(-0.0423233, -0.0472854)">
       <path d="m42.799999,14.5l-0.899998,-0.3c-0.5,-0.8 -1.100002,-1.599999 -1.900002,-2.3l0.900002,0.3c0.699997,0.7 1.399998,1.5 1.899998,2.3z" id="SVGID_11_"/>
      </defs>
      <clipPath transform="translate(0.398438, 0.5) scale(9.78332, 10.5741) translate(-0.398438, -0.5) translate(0.0423233, 0.0472854) scale(0.440435, 0.457804) translate(-0.0423233, -0.0472854)" id="SVGID_12_">
       <use id="svg_29" xlink:href="#SVGID_11_"/>
      </clipPath>
      <g id="svg_30" clip-path="url(#SVGID_12_)">
       <path id="svg_31" fill="#82796B" d="m183.112137,68.272018l-3.878021,-1.452255c-2.154465,-3.872692 -4.739822,-7.745373 -8.186951,-11.133976l3.878036,1.452259c3.016235,3.388596 6.032471,7.261284 8.186935,11.133972"/>
      </g>
     </g>
     <g id="svg_32">
      <polygon id="svg_33" fill="#7F7568" points="187.4210591279534,67.78793051594948 183.5430422761774,66.3356795057789 183.5430422761774,14.054403885031661 187.4210591279534,15.990747297179041 "/>
     </g>
     <g id="svg_34">
      <polygon id="svg_35" fill="#7F7568" points="187.4210591279534,15.990747297179041 183.5430422761774,14.054403885031661 183.5430422761774,13.086231305765978 187.4210591279534,14.538490174664503 "/>
     </g>
     <g id="svg_36">
      <defs transform="translate(0.398438, 0.5) scale(9.78332, 10.5741) translate(-0.398438, -0.5) translate(0.0423233, 0.0472854) scale(0.440435, 0.457804) translate(-0.0423233, -0.0472854)">
       <path d="m42.099998,6.2l-0.899998,-0.3c0.5,-0.9 1,-1.9 1.700001,-2.5l0.899998,0.3c-0.700001,0.6 -1.200001,1.6 -1.700001,2.5z" id="SVGID_13_"/>
      </defs>
      <clipPath transform="translate(0.398438, 0.5) scale(9.78332, 10.5741) translate(-0.398438, -0.5) translate(0.0423233, 0.0472854) scale(0.440435, 0.457804) translate(-0.0423233, -0.0472854)" id="SVGID_14_">
       <use id="svg_37" xlink:href="#SVGID_13_"/>
      </clipPath>
      <g id="svg_38" clip-path="url(#SVGID_14_)">
       <path id="svg_39" fill="#82796B" d="m180.095886,28.092894l-3.878006,-1.452257c2.154449,-4.356773 4.308914,-9.197632 7.325165,-12.102146l3.878021,1.452257c-3.016251,2.904516 -5.170715,7.745375 -7.32518,12.102146"/>
      </g>
     </g>
     <g id="svg_40">
      <polygon id="svg_41" fill="#8B8173" points="15.06424291236874,75.04922049448214 11.617106554454494,73.59696249877561 177.07965845484887,73.59696249877561 180.95767530662488,75.04922049448214 "/>
     </g>
     <g id="svg_42">
      <defs transform="translate(0.398438, 0.5) scale(9.78332, 10.5741) translate(-0.398438, -0.5) translate(0.0423233, 0.0472854) scale(0.440435, 0.457804) translate(-0.0423233, -0.0472854)">
       <path d="m38,15.9l-0.900002,-0.299999c0.900002,-1.400001 1.700001,-2.6 2.600002,-3.8l0.899998,0.3c-0.799999,1.2 -1.699997,2.4 -2.599998,3.799999z" id="SVGID_15_"/>
      </defs>
      <clipPath transform="translate(0.398438, 0.5) scale(9.78332, 10.5741) translate(-0.398438, -0.5) translate(0.0423233, 0.0472854) scale(0.440435, 0.457804) translate(-0.0423233, -0.0472854)" id="SVGID_16_">
       <use id="svg_43" xlink:href="#SVGID_15_"/>
      </clipPath>
      <g id="svg_44" clip-path="url(#SVGID_16_)">
       <path id="svg_45" fill="#82796B" d="m162.429321,75.049217l-3.878036,-1.452255c3.878036,-6.777199 7.32518,-12.586231 11.203201,-18.39526l3.878021,1.452259c-3.447128,5.809029 -7.32515,11.618057 -11.203186,18.395256"/>
      </g>
     </g>
     <g id="svg_46">
      <defs transform="translate(0.398438, 0.5) scale(9.78332, 10.5741) translate(-0.398438, -0.5) translate(0.0423233, 0.0472854) scale(0.440435, 0.457804) translate(-0.0423233, -0.0472854)">
       <path d="m40.400002,8.6l-0.900002,-0.3c0.599998,-0.8 1.099998,-1.6 1.700001,-2.4l0.899998,0.3c-0.5,0.8 -1.099998,1.6 -1.699997,2.400001z" id="SVGID_17_"/>
      </defs>
      <clipPath transform="translate(0.398438, 0.5) scale(9.78332, 10.5741) translate(-0.398438, -0.5) translate(0.0423233, 0.0472854) scale(0.440435, 0.457804) translate(-0.0423233, -0.0472854)" id="SVGID_18_">
       <use id="svg_47" xlink:href="#SVGID_17_"/>
      </clipPath>
      <g id="svg_48" clip-path="url(#SVGID_18_)">
       <path id="svg_49" fill="#82796B" d="m172.770737,39.710957l-3.878036,-1.452259c2.585342,-3.872688 4.739807,-7.745377 7.32518,-11.618061l3.878006,1.452257c-2.154449,3.872688 -4.739792,7.745375 -7.32515,11.618063"/>
      </g>
     </g>
     <g id="svg_50">
      <defs transform="translate(0.398438, 0.5) scale(9.78332, 10.5741) translate(-0.398438, -0.5) translate(0.0423233, 0.0472854) scale(0.440435, 0.457804) translate(-0.0423233, -0.0472854)">
       <path d="m37.5,15.8l-0.900002,-0.3c0.100002,0 0.200001,0 0.300003,0c0.099998,0 0.199997,0 0.199997,0l0.900002,0.3c0,0 -0.099998,0 -0.200001,0c-0.099998,0.099999 -0.099998,0.099999 -0.299999,0z" id="SVGID_19_"/>
      </defs>
      <clipPath transform="translate(0.398438, 0.5) scale(9.78332, 10.5741) translate(-0.398438, -0.5) translate(0.0423233, 0.0472854) scale(0.440435, 0.457804) translate(-0.0423233, -0.0472854)" id="SVGID_20_">
       <use id="svg_51" xlink:href="#SVGID_19_"/>
      </clipPath>
      <g id="svg_52" clip-path="url(#SVGID_20_)">
       <path id="svg_53" fill="#8D8274" d="m160.274857,74.56514l-3.878021,-1.452263c0.430893,0 0.861786,0 1.292679,0c0,0 0,0 0.430878,0l3.878052,1.452263c0,0 0,0 -0.430908,0c-0.430893,0.484077 -0.430893,0.484077 -1.292679,0"/>
       <path id="svg_54" fill="#897F71" d="m161.998444,75.049217l-3.878052,-1.93634c0,0 0.430893,0 0.430893,0l3.878036,1.452263c0,0.484077 -0.430878,0.484077 -0.430878,0.484077"/>
       <path id="svg_55" fill="#867C6E" d="m162.429321,75.049217l-3.878036,-1.452255c0,0 0,0 0,0l3.878036,1.452255c0,0 0,0 0,0"/>
      </g>
     </g>
     <g id="svg_56">
      <defs transform="translate(0.398438, 0.5) scale(9.78332, 10.5741) translate(-0.398438, -0.5) translate(0.0423233, 0.0472854) scale(0.440435, 0.457804) translate(-0.0423233, -0.0472854)">
       <path d="m42,1.7l0.900002,0.3c0.599998,0.2 0.899998,0.8 0.899998,1.4l-0.899998,-0.3c0,-0.7 -0.400002,-1.2 -0.900002,-1.4z" id="SVGID_21_"/>
      </defs>
      <clipPath transform="translate(0.398438, 0.5) scale(9.78332, 10.5741) translate(-0.398438, -0.5) translate(0.0423233, 0.0472854) scale(0.440435, 0.457804) translate(-0.0423233, -0.0472854)" id="SVGID_22_">
       <use id="svg_57" xlink:href="#SVGID_21_"/>
      </clipPath>
      <g id="svg_58" clip-path="url(#SVGID_22_)">
       <path id="svg_59" fill="#82796B" d="m187.421066,14.53849l-3.878021,-1.452259c0,-2.904514 -1.723587,-5.809029 -3.878052,-6.777201l3.878052,1.452258c2.154465,0.968172 3.878021,3.872686 3.878021,6.777202"/>
      </g>
     </g>
     <g id="svg_60">
      <defs transform="translate(0.398438, 0.5) scale(9.78332, 10.5741) translate(-0.398438, -0.5) translate(0.0423233, 0.0472854) scale(0.440435, 0.457804) translate(-0.0423233, -0.0472854)">
       <path d="m36.400002,15.5c0.099998,0 0.199997,0 0.299999,0l0.899998,0.3c-0.099998,0 -0.199997,0 -0.299999,0c-0.299999,-0.1 -0.700001,-0.2 -0.899998,-0.3z" id="SVGID_23_"/>
      </defs>
      <clipPath transform="translate(0.398438, 0.5) scale(9.78332, 10.5741) translate(-0.398438, -0.5) translate(0.0423233, 0.0472854) scale(0.440435, 0.457804) translate(-0.0423233, -0.0472854)" id="SVGID_24_">
       <use id="svg_61" xlink:href="#SVGID_23_"/>
      </clipPath>
      <g id="svg_62" clip-path="url(#SVGID_24_)">
       <polyline id="svg_63" fill="#94897A" points="158.98218375512897,74.56513682442528 155.5350591581082,73.11287882871875 155.5350591581082,73.11287882871875 158.98218375512897,74.56513682442528 158.98218375512897,74.56513682442528 "/>
       <path id="svg_64" fill="#908677" d="m158.982178,74.56514l-3.878021,-1.452263c0,0 0.430908,0 0.430908,0l3.447113,1.452263c0.430893,0 0.430893,0 0,0"/>
       <path id="svg_65" fill="#8D8274" d="m159.413071,74.56514l-3.878006,-1.452263c0,0 0.430878,0 0.861771,0l3.878021,1.452263c-0.430878,0 -0.430878,0 -0.861786,0"/>
      </g>
     </g>
     <g id="svg_66">
      <polygon id="svg_67" fill="#7F7568" points="159.4130760098842,73.59696249877561 155.5350591581082,72.14470450306908 156.39683022659756,71.17653716295536 159.84398170566055,73.11287882871875 "/>
     </g>
     <g id="svg_68">
      <polygon id="svg_69" fill="#7F7568" points="158.98218375512897,74.56513682442528 155.10415346233185,72.62878817312594 155.5350591581082,72.14470450306908 159.4130760098842,73.59696249877561 "/>
     </g>
     <g id="svg_70">
      <defs transform="translate(0.398438, 0.5) scale(9.78332, 10.5741) translate(-0.398438, -0.5) translate(0.0423233, 0.0472854) scale(0.440435, 0.457804) translate(-0.0423233, -0.0472854)">
       <path d="m37.200001,15.8l-0.900002,-0.3c0,0 0,0 0,0l0.900002,0.3c0,0 0,0 0,0z" id="SVGID_25_"/>
      </defs>
      <clipPath transform="translate(0.398438, 0.5) scale(9.78332, 10.5741) translate(-0.398438, -0.5) translate(0.0423233, 0.0472854) scale(0.440435, 0.457804) translate(-0.0423233, -0.0472854)" id="SVGID_26_">
       <use id="svg_71" xlink:href="#SVGID_25_"/>
      </clipPath>
      <g id="svg_72" clip-path="url(#SVGID_26_)">
       <path id="svg_73" fill="#82796B" d="m158.982178,74.56514l-3.878021,-1.452263c0,0 0,0 0,0l3.878021,1.452263c0,0 0,0 0,0"/>
      </g>
     </g>
     <g id="svg_74">
      <defs transform="translate(0.398438, 0.5) scale(9.78332, 10.5741) translate(-0.398438, -0.5) translate(0.0423233, 0.0472854) scale(0.440435, 0.457804) translate(-0.0423233, -0.0472854)">
       <path d="m37.299999,15.4l-0.899998,-0.299999c0,0 0.099998,0 0.099998,0l0.900002,0.299999c0,0 -0.100002,0 -0.100002,0z" id="SVGID_27_"/>
      </defs>
      <clipPath transform="translate(0.398438, 0.5) scale(9.78332, 10.5741) translate(-0.398438, -0.5) translate(0.0423233, 0.0472854) scale(0.440435, 0.457804) translate(-0.0423233, -0.0472854)" id="SVGID_28_">
       <use id="svg_75" xlink:href="#SVGID_27_"/>
      </clipPath>
      <g id="svg_76" clip-path="url(#SVGID_28_)">
       <polyline id="svg_77" fill="#94897A" points="159.4130760098842,72.62878817312594 155.5350591581082,71.17653716295536 155.96593797184232,71.17653716295536 159.4130760098842,72.62878817312594 159.4130760098842,72.62878817312594 "/>
       <path id="svg_78" fill="#908677" d="m159.413071,72.628792l-3.878006,-1.452255c0,0 0.430878,0 0.430878,0l3.447128,1.452255c0.430908,0 0,0 0,0"/>
       <polyline id="svg_79" fill="#8D8274" points="159.84398170566055,73.11287882871875 155.96593797184232,71.17653716295536 156.39683022659756,71.17653716295536 159.84398170566055,73.11287882871875 159.84398170566055,73.11287882871875 "/>
      </g>
     </g>
     <g id="svg_80">
      <defs transform="translate(0.398438, 0.5) scale(9.78332, 10.5741) translate(-0.398438, -0.5) translate(0.0423233, 0.0472854) scale(0.440435, 0.457804) translate(-0.0423233, -0.0472854)">
       <path d="m37.299999,15.4l-0.899998,-0.299999c0,0 0,0 0,0l0.899998,0.299999c0,0 0,0 0,0z" id="SVGID_29_"/>
      </defs>
      <clipPath transform="translate(0.398438, 0.5) scale(9.78332, 10.5741) translate(-0.398438, -0.5) translate(0.0423233, 0.0472854) scale(0.440435, 0.457804) translate(-0.0423233, -0.0472854)" id="SVGID_30_">
       <use id="svg_81" xlink:href="#SVGID_29_"/>
      </clipPath>
      <g id="svg_82" clip-path="url(#SVGID_30_)">
       <path id="svg_83" fill="#82796B" d="m159.413071,72.628792l-3.878006,-1.452255c0,0 0,0 0,0l3.878006,1.452255c0,0 0,0 0,0"/>
      </g>
     </g>
     <g id="svg_84">
      <defs transform="translate(0.398438, 0.5) scale(9.78332, 10.5741) translate(-0.398438, -0.5) translate(0.0423233, 0.0472854) scale(0.440435, 0.457804) translate(-0.0423233, -0.0472854)">
       <path d="m36.200001,15c0.099998,0 0.099998,0 0.200001,0l0.899998,0.3c-0.099998,0 -0.200001,0 -0.200001,0c-0.299999,0 -0.699997,-0.2 -0.899998,-0.3z" id="SVGID_31_"/>
      </defs>
      <clipPath transform="translate(0.398438, 0.5) scale(9.78332, 10.5741) translate(-0.398438, -0.5) translate(0.0423233, 0.0472854) scale(0.440435, 0.457804) translate(-0.0423233, -0.0472854)" id="SVGID_32_">
       <use id="svg_85" xlink:href="#SVGID_31_"/>
      </clipPath>
      <g id="svg_86" clip-path="url(#SVGID_32_)">
       <polyline id="svg_87" fill="#94897A" points="158.1203992456185,72.62878817312594 154.67327464859773,70.69244650736255 154.67327464859773,70.69244650736255 158.1203992456185,72.62878817312594 158.1203992456185,72.62878817312594 "/>
       <path id="svg_88" fill="#908677" d="m158.120392,72.628792l-3.447113,-1.936348c0,0 0.430878,0 0.430878,0l3.878021,1.452263c-0.430893,0.484085 -0.430893,0.484085 -0.861786,0.484085"/>
       <path id="svg_89" fill="#8D8274" d="m158.551285,72.628792l-3.447128,-1.936348c0,0 0.430908,0 0.430908,0l3.878006,1.452263c-0.430893,0.484085 -0.430893,0.484085 -0.861786,0.484085"/>
      </g>
     </g>
     <g id="svg_90">
      <polygon id="svg_91" fill="#7F7568" points="158.1203992456185,72.14470450306908 154.24236895282138,70.69244650736255 154.67327464859773,69.72427916724882 158.55129150037374,71.17653716295536 "/>
     </g>
     <g id="svg_92">
      <defs transform="translate(0.398438, 0.5) scale(9.78332, 10.5741) translate(-0.398438, -0.5) translate(0.0423233, 0.0472854) scale(0.440435, 0.457804) translate(-0.0423233, -0.0472854)">
       <path d="m37,15.4l-0.900002,-0.4c0,0 0,0 0,0l0.900002,0.4c0,-0.099999 0,0 0,0z" id="SVGID_33_"/>
      </defs>
      <clipPath transform="translate(0.398438, 0.5) scale(9.78332, 10.5741) translate(-0.398438, -0.5) translate(0.0423233, 0.0472854) scale(0.440435, 0.457804) translate(-0.0423233, -0.0472854)" id="SVGID_34_">
       <use id="svg_93" xlink:href="#SVGID_33_"/>
      </clipPath>
      <g id="svg_94" clip-path="url(#SVGID_34_)">
       <path id="svg_95" fill="#82796B" d="m158.120392,72.628792l-3.878021,-1.936348c0,0 0,0 0,0l3.878021,1.936348c0,-0.484085 0,0 0,0"/>
      </g>
     </g>
     <g id="svg_96">
      <polygon id="svg_97" fill="#7F7568" points="158.55129150037374,70.69244650736255 154.67327464859773,69.24018851165602 154.67327464859773,68.75610484159915 158.55129150037374,70.69244650736255 "/>
     </g>
     <g id="svg_98">
      <polygon id="svg_99" fill="#7F7568" points="158.55129150037374,71.17653716295536 154.67327464859773,69.72427916724882 154.67327464859773,69.24018851165602 158.55129150037374,70.69244650736255 "/>
     </g>
     <g id="svg_100">
      <defs transform="translate(0.398438, 0.5) scale(9.78332, 10.5741) translate(-0.398438, -0.5) translate(0.0423233, 0.0472854) scale(0.440435, 0.457804) translate(-0.0423233, -0.0472854)">
       <path d="m42,1.7l0.900002,0.3c-0.200001,-0.1 -0.400002,-0.1 -0.5,-0.1l-0.900002,-0.3c0.099998,0 0.299999,0 0.5,0.1z" id="SVGID_35_"/>
      </defs>
      <clipPath transform="translate(0.398438, 0.5) scale(9.78332, 10.5741) translate(-0.398438, -0.5) translate(0.0423233, 0.0472854) scale(0.440435, 0.457804) translate(-0.0423233, -0.0472854)" id="SVGID_36_">
       <use id="svg_101" xlink:href="#SVGID_35_"/>
      </clipPath>
      <g id="svg_102" clip-path="url(#SVGID_36_)">
       <path id="svg_103" fill="#8D8274" d="m180.957672,7.277202l-3.878021,-1.452258c0.430893,0 0.430893,0 0.861786,0l3.878021,1.452258c-0.430878,0 -0.430878,0 -0.861786,0"/>
       <path id="svg_104" fill="#908677" d="m181.819458,7.277202l-3.878021,-1.452258c0.430893,0 0.861771,0 1.292679,0.484086l3.878021,1.452258c-0.430878,0 -0.861786,-0.484086 -1.292679,-0.484086"/>
       <path id="svg_105" fill="#94897A" d="m183.112137,7.761288l-3.878021,-1.452258c0,0 0,0 0.430878,0l3.447144,1.452258c0,0 0,0 0,0"/>
      </g>
     </g>
     <g id="svg_106">
      <polygon id="svg_107" fill="#7F7568" points="158.55129150037374,68.27202117154229 155.10415346233185,66.81976317583576 155.10415346233185,66.3356795057789 158.98218375512897,68.27202117154229 "/>
     </g>
     <g id="svg_108">
      <defs transform="translate(0.398438, 0.5) scale(9.78332, 10.5741) translate(-0.398438, -0.5) translate(0.0423233, 0.0472854) scale(0.440435, 0.457804) translate(-0.0423233, -0.0472854)">
       <path d="m36.900002,15l-0.900002,-0.3c0,0 0.099998,0 0.200001,0l0.899998,0.3c-0.099998,0 -0.099998,0 -0.199997,0z" id="SVGID_37_"/>
      </defs>
      <clipPath transform="translate(0.398438, 0.5) scale(9.78332, 10.5741) translate(-0.398438, -0.5) translate(0.0423233, 0.0472854) scale(0.440435, 0.457804) translate(-0.0423233, -0.0472854)" id="SVGID_38_">
       <use id="svg_109" xlink:href="#SVGID_37_"/>
      </clipPath>
      <g id="svg_110" clip-path="url(#SVGID_38_)">
       <polyline id="svg_111" fill="#94897A" points="157.68952043188438,70.69244650736255 154.24236895282138,68.75610484159915 154.24236895282138,68.75610484159915 158.1203992456185,70.69244650736255 157.68952043188438,70.69244650736255 "/>
       <path id="svg_112" fill="#908677" d="m158.120392,70.692444l-3.878021,-1.452255c0,0 0.430908,0 0.430908,0l3.447113,1.452255c0,0 0,0 0,0"/>
       <path id="svg_113" fill="#8D8274" d="m158.551285,70.692444l-3.878006,-1.452255c0,0 0,0 0,0l3.878006,1.452255c0,0 0,0 0,0"/>
      </g>
     </g>
     <g id="svg_114">
      <defs transform="translate(0.398438, 0.5) scale(9.78332, 10.5741) translate(-0.398438, -0.5) translate(0.0423233, 0.0472854) scale(0.440435, 0.457804) translate(-0.0423233, -0.0472854)">
       <path d="m37.099998,14.4l-0.899998,-0.299999c0,0 0,0 0.099998,0l0.799999,0.299999c0.100002,0.1 0,0.1 0,0z" id="SVGID_39_"/>
      </defs>
      <clipPath transform="translate(0.398438, 0.5) scale(9.78332, 10.5741) translate(-0.398438, -0.5) translate(0.0423233, 0.0472854) scale(0.440435, 0.457804) translate(-0.0423233, -0.0472854)" id="SVGID_40_">
       <use id="svg_115" xlink:href="#SVGID_39_"/>
      </clipPath>
      <g id="svg_116" clip-path="url(#SVGID_40_)">
       <polyline id="svg_117" fill="#94897A" points="158.55129150037374,67.78793051594948 154.67327464859773,66.3356795057789 155.10415346233185,66.3356795057789 158.55129150037374,67.78793051594948 158.55129150037374,67.78793051594948 "/>
       <path id="svg_118" fill="#908677" d="m158.551285,67.787933l-3.878006,-1.452255c0,0 0,0 0.430878,0l3.447128,1.452255c0.430893,0.484085 0,0.484085 0,0"/>
      </g>
     </g>
     <g id="svg_119">
      <defs transform="translate(0.398438, 0.5) scale(9.78332, 10.5741) translate(-0.398438, -0.5) translate(0.0423233, 0.0472854) scale(0.440435, 0.457804) translate(-0.0423233, -0.0472854)">
       <path d="m36,14.6c0.099998,-0.1 0.200001,-0.3 0.200001,-0.400001l0.899998,0.3c-0.099998,0.1 -0.199997,0.2 -0.199997,0.4c0,0 -0.100002,0 -0.100002,0c0,0 -0.099998,0 -0.099998,0c0,0 -0.100002,0 -0.100002,0c0,0 -0.099998,0 -0.099998,0c0,0 -0.099998,0 -0.099998,0c0,0 -0.100002,0 -0.100002,0c0,0 -0.099998,0 -0.099998,0c-0.100002,-0.299999 -0.100002,-0.299999 -0.200001,-0.299999c0,0 0,0 0,0c0,0 0,0 0,0c0,0 0,0 0,0c0,0 0,0 0,0c0,0 0,0 0,0c0,0 0,0 0,0c0,0 0,0 0,0c0,0 0,0 0,0z" id="SVGID_41_"/>
      </defs>
      <clipPath transform="translate(0.398438, 0.5) scale(9.78332, 10.5741) translate(-0.398438, -0.5) translate(0.0423233, 0.0472854) scale(0.440435, 0.457804) translate(-0.0423233, -0.0472854)" id="SVGID_42_">
       <use id="svg_120" xlink:href="#SVGID_41_"/>
      </clipPath>
      <g id="svg_121" clip-path="url(#SVGID_42_)">
       <path id="svg_122" fill="#82796B" d="m157.689514,70.208366l-3.878036,-1.452263c0.430893,-0.484085 0.861801,-1.452255 1.292679,-1.93634l3.878021,1.452255c-0.430893,0.96817 -0.861786,1.452263 -1.292664,1.936348"/>
      </g>
     </g>
     <g id="svg_123">
      <defs transform="translate(0.398438, 0.5) scale(9.78332, 10.5741) translate(-0.398438, -0.5) translate(0.0423233, 0.0472854) scale(0.440435, 0.457804) translate(-0.0423233, -0.0472854)">
       <path d="m36.900002,15l-0.900002,-0.3c0,0 0,0 0,0l0.900002,0.3c0,-0.1 0,0 0,0z" id="SVGID_43_"/>
      </defs>
      <clipPath transform="translate(0.398438, 0.5) scale(9.78332, 10.5741) translate(-0.398438, -0.5) translate(0.0423233, 0.0472854) scale(0.440435, 0.457804) translate(-0.0423233, -0.0472854)" id="SVGID_44_">
       <use id="svg_124" xlink:href="#SVGID_43_"/>
      </clipPath>
      <g id="svg_125" clip-path="url(#SVGID_44_)">
       <path id="svg_126" fill="#82796B" d="m157.689514,70.692444l-3.878036,-1.452255c0,0 0,0 0,0l3.878036,1.452255c0,-0.484077 0,0 0,0"/>
      </g>
     </g>
     <g id="svg_127">
      <defs transform="translate(0.398438, 0.5) scale(9.78332, 10.5741) translate(-0.398438, -0.5) translate(0.0423233, 0.0472854) scale(0.440435, 0.457804) translate(-0.0423233, -0.0472854)">
       <path d="m36,14.6c0.299999,0.099999 0.599998,0.2 0.900002,0.299999c0,0 0,0 0,0l-0.900002,-0.299999c0,0 0,0 0,0z" id="SVGID_45_"/>
      </defs>
      <clipPath transform="translate(0.398438, 0.5) scale(9.78332, 10.5741) translate(-0.398438, -0.5) translate(0.0423233, 0.0472854) scale(0.440435, 0.457804) translate(-0.0423233, -0.0472854)" id="SVGID_46_">
       <use id="svg_128" xlink:href="#SVGID_45_"/>
      </clipPath>
      <g id="svg_129" clip-path="url(#SVGID_46_)">
       <path id="svg_130" fill="#82796B" d="m157.689514,70.208366l-3.878036,-1.452263c0.430893,-0.484085 0.861801,-1.452255 1.292679,-1.93634l3.878021,1.452255c-0.430893,0.96817 -0.861786,1.452263 -1.292664,1.936348"/>
      </g>
     </g>
     <g id="svg_131">
      <polygon id="svg_132" fill="#7F7568" points="158.1203992456185,67.78793051594948 154.67327464859773,65.85158885018609 154.67327464859773,65.85158885018609 158.55129150037374,67.30384684589262 "/>
     </g>
     <g id="svg_133">
      <defs transform="translate(0.398438, 0.5) scale(9.78332, 10.5741) translate(-0.398438, -0.5) translate(0.0423233, 0.0472854) scale(0.440435, 0.457804) translate(-0.0423233, -0.0472854)">
       <path d="m36.200001,14.1c0,0 0,0 0,0l0.799999,0.299999c0,0 0,0 0.099998,0c-0.299999,-0.099999 -0.599998,-0.2 -0.899998,-0.299999z" id="SVGID_47_"/>
      </defs>
      <clipPath transform="translate(0.398438, 0.5) scale(9.78332, 10.5741) translate(-0.398438, -0.5) translate(0.0423233, 0.0472854) scale(0.440435, 0.457804) translate(-0.0423233, -0.0472854)" id="SVGID_48_">
       <use id="svg_134" xlink:href="#SVGID_47_"/>
      </clipPath>
      <g id="svg_135" clip-path="url(#SVGID_48_)">
       <path id="svg_136" fill="#82796B" d="m158.551285,67.787933l-3.878006,-1.452255c0,0 -0.430908,0 -0.430908,0l4.308914,1.452255c-0.430893,0 -0.430893,0 0,0"/>
      </g>
     </g>
     <g id="svg_137">
      <defs transform="translate(0.398438, 0.5) scale(9.78332, 10.5741) translate(-0.398438, -0.5) translate(0.0423233, 0.0472854) scale(0.440435, 0.457804) translate(-0.0423233, -0.0472854)">
       <path d="m36.099998,13.9c0,0 0.100002,0 0.100002,0l0.899998,0.3c0,0 -0.099998,0 -0.099998,0c-0.299999,0 -0.599998,-0.2 -0.900002,-0.3z" id="SVGID_49_"/>
      </defs>
      <clipPath transform="translate(0.398438, 0.5) scale(9.78332, 10.5741) translate(-0.398438, -0.5) translate(0.0423233, 0.0472854) scale(0.440435, 0.457804) translate(-0.0423233, -0.0472854)" id="SVGID_50_">
       <use id="svg_138" xlink:href="#SVGID_49_"/>
      </clipPath>
      <g id="svg_139" clip-path="url(#SVGID_50_)">
       <polyline id="svg_140" fill="#94897A" points="158.1203992456185,67.30384684589262 154.24236895282138,65.36750518012923 154.24236895282138,65.36750518012923 158.1203992456185,67.30384684589262 158.1203992456185,67.30384684589262 "/>
       <path id="svg_141" fill="#908677" d="m158.120392,67.303848l-3.878021,-1.452263c0,0 0,0 0.430908,0l3.447113,1.452263c0,0 0,0 0,0"/>
       <path id="svg_142" fill="#8D8274" d="m158.120392,67.303848l-3.878021,-1.452263c0,0 0,0 0,0l3.878021,1.452263c0.430893,0 0.430893,0 0,0"/>
      </g>
     </g>
     <g id="svg_143">
      <defs transform="translate(0.398438, 0.5) scale(9.78332, 10.5741) translate(-0.398438, -0.5) translate(0.0423233, 0.0472854) scale(0.440435, 0.457804) translate(-0.0423233, -0.0472854)">
       <path d="m42.400002,0.7l0.899998,0.3c-0.299999,-0.1 -0.599998,-0.2 -0.899998,-0.2l-0.900002,-0.3c0.299999,0.1 0.599998,0.1 0.900002,0.2z" id="SVGID_51_"/>
      </defs>
      <clipPath transform="translate(0.398438, 0.5) scale(9.78332, 10.5741) translate(-0.398438, -0.5) translate(0.0423233, 0.0472854) scale(0.440435, 0.457804) translate(-0.0423233, -0.0472854)" id="SVGID_52_">
       <use id="svg_144" xlink:href="#SVGID_51_"/>
      </clipPath>
      <g id="svg_145" clip-path="url(#SVGID_52_)">
       <path id="svg_146" fill="#8D8274" d="m180.957672,2.436343l-3.878021,-1.452257c0.430893,0 0.861786,0 1.292679,0l3.878021,1.452257c-0.430893,0 -0.861771,0 -1.292679,0"/>
       <path id="svg_147" fill="#908677" d="m182.250351,2.436343l-3.878021,-1.452257c0.861786,0 1.292664,0.484086 2.154465,0.484086l3.878021,1.452258c-0.430893,0 -1.292679,0 -2.154465,-0.484086"/>
       <path id="svg_148" fill="#94897A" d="m184.404816,3.404515l-3.878021,-1.452258c0,0 0.430878,0 0.430878,0l3.878036,1.452258c0,0 0,0 -0.430893,0"/>
      </g>
     </g>
     <g id="svg_149">
      <polygon id="svg_150" fill="#7F7568" points="157.68952043188438,66.81976317583576 153.81147669806614,65.36750518012923 154.24236895282138,64.88342151007237 158.1203992456185,66.3356795057789 "/>
     </g>
     <g id="svg_151">
      <defs transform="translate(0.398438, 0.5) scale(9.78332, 10.5741) translate(-0.398438, -0.5) translate(0.0423233, 0.0472854) scale(0.440435, 0.457804) translate(-0.0423233, -0.0472854)">
       <path d="m36.099998,13.9c0,0 -0.099998,0 0,0l0.800003,0.3c0,0 0,0 0,0c-0.200001,0 -0.600002,-0.2 -0.800003,-0.3z" id="SVGID_53_"/>
      </defs>
      <clipPath transform="translate(0.398438, 0.5) scale(9.78332, 10.5741) translate(-0.398438, -0.5) translate(0.0423233, 0.0472854) scale(0.440435, 0.457804) translate(-0.0423233, -0.0472854)" id="SVGID_54_">
       <use id="svg_152" xlink:href="#SVGID_53_"/>
      </clipPath>
      <g id="svg_153" clip-path="url(#SVGID_54_)">
       <path id="svg_154" fill="#82796B" d="m157.689514,67.303848l-3.878036,-1.452263c0,0 0,0 0,0l3.878036,1.452263c0,-0.484085 0,0 0,0"/>
      </g>
     </g>
     <g id="svg_155">
      <polygon id="svg_156" fill="#7F7568" points="158.1203992456185,66.3356795057789 154.24236895282138,64.88342151007237 153.81147669806614,64.39933085447956 157.68952043188438,65.85158885018609 "/>
     </g>
     <g id="svg_157">
      <defs transform="translate(0.398438, 0.5) scale(9.78332, 10.5741) translate(-0.398438, -0.5) translate(0.0423233, 0.0472854) scale(0.440435, 0.457804) translate(-0.0423233, -0.0472854)">
       <path d="m36.900002,14l-0.900002,-0.3c0.099998,-0.099999 0.099998,-0.2 0.200001,-0.3l0.899998,0.3c-0.099998,0.1 -0.099998,0.2 -0.199997,0.3z" id="SVGID_55_"/>
      </defs>
      <clipPath transform="translate(0.398438, 0.5) scale(9.78332, 10.5741) translate(-0.398438, -0.5) translate(0.0423233, 0.0472854) scale(0.440435, 0.457804) translate(-0.0423233, -0.0472854)" id="SVGID_56_">
       <use id="svg_158" xlink:href="#SVGID_55_"/>
      </clipPath>
      <g id="svg_159" clip-path="url(#SVGID_56_)">
       <path id="svg_160" fill="#82796B" d="m157.689514,65.851585l-3.878036,-1.452255c0.430893,-0.484081 0.430893,-0.968166 0.861801,-1.452259l3.878006,1.452259c-0.430893,0.484093 -0.430893,0.968178 -0.861771,1.452255"/>
      </g>
     </g>
     <g id="svg_161">
      <polygon id="svg_162" fill="#7F7568" points="158.55129150037374,64.39933085447956 154.67327464859773,62.462989188716165 154.24236895282138,62.462989188716165 158.1203992456185,63.9152471844227 "/>
     </g>
     <g id="svg_163">
      <polygon id="svg_164" fill="#7F7568" points="158.1203992456185,63.9152471844227 154.24236895282138,62.462989188716165 154.67327464859773,61.49482184860244 158.55129150037374,63.431163514365835 "/>
     </g>
     <g id="svg_165">
      <polygon id="svg_166" fill="#7F7568" points="158.55129150037374,63.431163514365835 154.67327464859773,61.49482184860244 154.67327464859773,61.01073119300963 158.55129150037374,62.947072858773026 "/>
     </g>
     <g id="svg_167">
      <defs transform="translate(0.398438, 0.5) scale(9.78332, 10.5741) translate(-0.398438, -0.5) translate(0.0423233, 0.0472854) scale(0.440435, 0.457804) translate(-0.0423233, -0.0472854)">
       <path d="m37.099998,13.4l-0.899998,-0.4c0.599998,-1 1.299999,-1.9 2,-2.9l0.899998,0.299999c-0.699997,1 -1.399998,2 -2,3z" id="SVGID_57_"/>
      </defs>
      <clipPath transform="translate(0.398438, 0.5) scale(9.78332, 10.5741) translate(-0.398438, -0.5) translate(0.0423233, 0.0472854) scale(0.440435, 0.457804) translate(-0.0423233, -0.0472854)" id="SVGID_58_">
       <use id="svg_168" xlink:href="#SVGID_57_"/>
      </clipPath>
      <g id="svg_169" clip-path="url(#SVGID_58_)">
       <path id="svg_170" fill="#82796B" d="m158.551285,62.947071l-3.878006,-1.93634c2.585342,-4.840858 5.601578,-9.197628 8.617828,-14.038486l3.878021,1.452251c-3.016235,4.840862 -6.032486,9.681721 -8.617844,14.522575"/>
      </g>
     </g>
     <g id="svg_171">
      <defs transform="translate(0.398438, 0.5) scale(9.78332, 10.5741) translate(-0.398438, -0.5) translate(0.0423233, 0.0472854) scale(0.440435, 0.457804) translate(-0.0423233, -0.0472854)">
       <path d="m38.200001,10.2c-0.600002,-0.599999 -1.100002,-1.3 -1.299999,-1.9l0.899998,0.3c0.200001,0.599999 0.700001,1.299999 1.299999,1.9c-0.299999,-0.1 -0.699997,-0.2 -0.899998,-0.3z" id="SVGID_59_"/>
      </defs>
      <clipPath transform="translate(0.398438, 0.5) scale(9.78332, 10.5741) translate(-0.398438, -0.5) translate(0.0423233, 0.0472854) scale(0.440435, 0.457804) translate(-0.0423233, -0.0472854)" id="SVGID_60_">
       <use id="svg_172" xlink:href="#SVGID_59_"/>
      </clipPath>
      <g id="svg_173" clip-path="url(#SVGID_60_)">
       <path id="svg_174" fill="#82796B" d="m167.169128,48.908585l-3.878021,-1.452259c-2.585358,-2.904514 -4.739822,-6.293118 -5.601593,-9.197628l3.878021,1.452259c0.430908,2.90451 3.016251,6.29311 5.601593,9.197628"/>
      </g>
     </g>
     <g id="svg_175">
      <defs transform="translate(0.398438, 0.5) scale(9.78332, 10.5741) translate(-0.398438, -0.5) translate(0.0423233, 0.0472854) scale(0.440435, 0.457804) translate(-0.0423233, -0.0472854)">
       <path d="m40.400002,8.6l-0.900002,-0.3c-0.599998,-0.9 -1.299999,-1.7 -1.900002,-2.6l0.900002,0.3c0.700001,0.9 1.299999,1.7 1.900002,2.6z" id="SVGID_61_"/>
      </defs>
      <clipPath transform="translate(0.398438, 0.5) scale(9.78332, 10.5741) translate(-0.398438, -0.5) translate(0.0423233, 0.0472854) scale(0.440435, 0.457804) translate(-0.0423233, -0.0472854)" id="SVGID_62_">
       <use id="svg_176" xlink:href="#SVGID_61_"/>
      </clipPath>
      <g id="svg_177" clip-path="url(#SVGID_62_)">
       <path id="svg_178" fill="#82796B" d="m172.770737,39.710957l-3.878036,-1.452259c-2.585342,-4.356773 -5.601593,-8.229462 -8.186951,-12.586235l3.878036,1.452259c3.016235,4.356773 5.601593,8.229462 8.186951,12.586235"/>
      </g>
     </g>
     <g id="svg_179">
      <defs transform="translate(0.398438, 0.5) scale(9.78332, 10.5741) translate(-0.398438, -0.5) translate(0.0423233, 0.0472854) scale(0.440435, 0.457804) translate(-0.0423233, -0.0472854)">
       <path d="m36.700001,7.8c0.299999,0.1 0.599998,0.2 0.899998,0.3c0,0.099999 0.100002,0.299999 0.200001,0.4l-0.899998,-0.3c-0.100002,-0.099999 -0.100002,-0.2 -0.200001,-0.4z" id="SVGID_63_"/>
      </defs>
      <clipPath transform="translate(0.398438, 0.5) scale(9.78332, 10.5741) translate(-0.398438, -0.5) translate(0.0423233, 0.0472854) scale(0.440435, 0.457804) translate(-0.0423233, -0.0472854)" id="SVGID_64_">
       <use id="svg_180" xlink:href="#SVGID_63_"/>
      </clipPath>
      <g id="svg_181" clip-path="url(#SVGID_64_)">
       <path id="svg_182" fill="#82796B" d="m161.567535,39.710957l-3.878021,-1.452259c-0.861786,-1.452259 -1.292679,-2.904514 -1.292679,-4.356773c0,-0.484085 0,-0.484085 0,-0.96817l3.878021,1.452255c0,0.484085 0,0.484085 0,0.968174c0,1.452255 0.430893,2.904514 1.292679,4.356773"/>
      </g>
     </g>
     <g id="svg_183">
      <polygon id="svg_184" fill="#7F7568" points="164.58378306694703,27.124722353622474 161.13664502890515,25.672462611531955 160.70575277414991,25.188377195091107 164.58378306694703,26.640636937181625 "/>
     </g>
     <g id="svg_185">
      <polygon id="svg_186" fill="#7F7568" points="164.58378306694703,26.640636937181625 160.70575277414991,25.188377195091107 160.70575277414991,24.220208108593397 164.1528908121918,26.156551520740777 "/>
     </g>
     <g id="svg_187">
      <polygon id="svg_188" fill="#7F7568" points="164.1528908121918,26.156551520740777 160.70575277414991,24.220208108593397 160.27486051939468,24.220208108593397 163.72199855743656,25.672462611531955 "/>
     </g>
     <g id="svg_189">
      <polygon id="svg_190" fill="#7F7568" points="163.72199855743656,25.672462611531955 160.27486051939468,24.220208108593397 159.84398170566055,23.73612269215255 163.72199855743656,25.188377195091107 "/>
     </g>
     <g id="svg_191">
      <polygon id="svg_192" fill="#7F7568" points="163.72199855743656,25.188377195091107 159.84398170566055,23.73612269215255 160.27486051939468,22.76794836650288 164.1528908121918,24.70429177865026 "/>
     </g>
     <g id="svg_193">
      <defs transform="translate(0.398438, 0.5) scale(9.78332, 10.5741) translate(-0.398438, -0.5) translate(0.0423233, 0.0472854) scale(0.440435, 0.457804) translate(-0.0423233, -0.0472854)">
       <path d="m36.599998,7.3c0,-0.1 0,-0.1 0,-0.2l0.900002,0.3c0,0.1 0,0.1 0,0.2c0,0.2 0,0.3 0.099998,0.5c0,0 0,0 -0.099998,0c0,0 0,0 -0.099998,0c0,0 0,0 -0.100002,0c0,0 0,0 -0.099998,0c0,0 0,0 -0.100002,0c0,0 0,0 -0.099998,0c0,0 0,0 -0.099998,0c0,0 0,0 -0.100002,0c0,0 0,0 0,0c0,0 0,0 0,0c0,0 0,0 0,0c0,0 0,0 -0.099998,0c0,0 0,0 -0.100002,0c0,0 0,0 0,0c0,0 0,0 0,0c0,0 0,0 0,0c0.100002,-0.400001 0,-0.6 0,-0.8z" id="SVGID_65_"/>
      </defs>
      <clipPath transform="translate(0.398438, 0.5) scale(9.78332, 10.5741) translate(-0.398438, -0.5) translate(0.0423233, 0.0472854) scale(0.440435, 0.457804) translate(-0.0423233, -0.0472854)" id="SVGID_66_">
       <use id="svg_194" xlink:href="#SVGID_65_"/>
      </clipPath>
      <g id="svg_195" clip-path="url(#SVGID_66_)">
       <path id="svg_196" fill="#82796B" d="m161.567535,39.710957l-3.878021,-1.452259c-0.861786,-1.452259 -1.292679,-2.904514 -1.292679,-4.356773c0,-0.484085 0,-0.484085 0,-0.96817l3.878021,1.452255c0,0.484085 0,0.484085 0,0.968174c0,1.452255 0.430893,2.904514 1.292679,4.356773"/>
      </g>
     </g>
     <g id="svg_197">
      <polygon id="svg_198" fill="#7F7568" points="160.27486051939468,34.386010585771146 156.8277224813528,32.44966542723978 156.39683022659756,32.44966542723978 160.27486051939468,33.90192342294631 "/>
     </g>
     <g id="svg_199">
      <polygon id="svg_200" fill="#7F7568" points="164.1528908121918,24.70429177865026 160.27486051939468,22.76794836650288 159.84398170566055,22.28386295006203 163.72199855743656,23.73612269215255 "/>
     </g>
     <g id="svg_201">
      <polygon id="svg_202" fill="#7F7568" points="163.72199855743656,24.70429177865026 159.84398170566055,23.252033782943727 159.84398170566055,22.28386295006203 163.72199855743656,23.73612269215255 "/>
     </g>
     <g id="svg_203">
      <polygon id="svg_204" fill="#7F7568" points="163.29110630268133,25.188377195091107 159.4130760098842,23.252033782943727 159.4130760098842,23.252033782943727 163.29110630268133,24.70429177865026 "/>
     </g>
     <g id="svg_205">
      <polygon id="svg_206" fill="#8A8071" points="163.29110630268133,24.70429177865026 159.4130760098842,23.252033782943727 159.84398170566055,23.252033782943727 163.72199855743656,24.70429177865026 "/>
     </g>
     <g id="svg_207">
      <polygon id="svg_208" fill="#82796B" points="160.27486051939468,31.481494594358082 156.39683022659756,29.545151182210702 156.8277224813528,29.545151182210702 160.70575277414991,30.99741092430122 "/>
     </g>
     <g id="svg_209">
      <defs transform="translate(0.398438, 0.5) scale(9.78332, 10.5741) translate(-0.398438, -0.5) translate(0.0423233, 0.0472854) scale(0.440435, 0.457804) translate(-0.0423233, -0.0472854)">
       <path d="m37.5,7.4l-0.900002,-0.3c-0.099998,-0.1 -0.099998,-0.2 -0.099998,-0.3c0,-0.1 0,-0.2 0.099998,-0.3l0.900002,0.3c-0.099998,0.1 -0.099998,0.2 -0.099998,0.3c0,0.1 0.099998,0.2 0.099998,0.3z" id="SVGID_67_"/>
      </defs>
      <clipPath transform="translate(0.398438, 0.5) scale(9.78332, 10.5741) translate(-0.398438, -0.5) translate(0.0423233, 0.0472854) scale(0.440435, 0.457804) translate(-0.0423233, -0.0472854)" id="SVGID_68_">
       <use id="svg_210" xlink:href="#SVGID_67_"/>
      </clipPath>
      <g id="svg_211" clip-path="url(#SVGID_68_)">
       <path id="svg_212" fill="#82796B" d="m160.274857,33.901924l-3.878021,-1.452259c-0.430893,-0.484083 -0.430893,-0.96817 -0.430893,-1.452253c0,-0.484091 0,-0.968176 0.430893,-1.452261l3.878021,1.452261c-0.430878,0.484083 -0.430878,0.96817 -0.430878,1.452253c0,0.484089 0.430878,0.968174 0.430878,1.452259"/>
      </g>
     </g>
     <g id="svg_213">
      <polygon id="svg_214" fill="#7F7568" points="162.8602140479261,24.70429177865026 159.4130760098842,22.76794836650288 158.98218375512897,22.76794836650288 162.8602140479261,24.220208108593397 "/>
     </g>
     <g id="svg_215">
      <polygon id="svg_216" fill="#7F7568" points="162.8602140479261,24.220208108593397 158.98218375512897,22.76794836650288 159.4130760098842,21.79977753362118 163.29110630268133,23.252033782943727 "/>
     </g>
     <g id="svg_217">
      <polygon id="svg_218" fill="#7F7568" points="163.29110630268133,24.70429177865026 159.4130760098842,23.252033782943727 158.98218375512897,22.76794836650288 162.8602140479261,24.220208108593397 "/>
     </g>
     <g id="svg_219">
      <polygon id="svg_220" fill="#7F7568" points="163.29110630268133,23.252033782943727 159.4130760098842,21.79977753362118 158.98218375512897,21.315692117180333 162.8602140479261,22.76794836650288 "/>
     </g>
     <g id="svg_221">
      <polygon id="svg_222" fill="#7F7568" points="162.8602140479261,23.73612269215255 158.98218375512897,22.28386295006203 158.98218375512897,21.315692117180333 162.8602140479261,22.76794836650288 "/>
     </g>
     <g id="svg_223">
      <polygon id="svg_224" fill="#7F7568" points="162.8602140479261,23.73612269215255 158.98218375512897,22.28386295006203 158.98218375512897,21.315692117180333 162.8602140479261,22.76794836650288 "/>
     </g>
     <g id="svg_225">
      <defs transform="translate(0.398438, 0.5) scale(9.78332, 10.5741) translate(-0.398438, -0.5) translate(0.0423233, 0.0472854) scale(0.440435, 0.457804) translate(-0.0423233, -0.0472854)">
       <path d="m37.599998,6.8l-0.899998,-0.3c0,-0.1 -0.100002,-0.2 -0.100002,-0.3l0.900002,0.3c0,0.1 0.099998,0.2 0.099998,0.3z" id="SVGID_69_"/>
      </defs>
      <clipPath transform="translate(0.398438, 0.5) scale(9.78332, 10.5741) translate(-0.398438, -0.5) translate(0.0423233, 0.0472854) scale(0.440435, 0.457804) translate(-0.0423233, -0.0472854)" id="SVGID_70_">
       <use id="svg_226" xlink:href="#SVGID_69_"/>
      </clipPath>
      <g id="svg_227" clip-path="url(#SVGID_70_)">
       <path id="svg_228" fill="#82796B" d="m160.70575,30.997412l-3.878021,-1.452261c0,-0.484085 -0.430893,-0.96817 -0.430893,-1.452257l3.878021,1.452257c0,0.484085 0.430893,0.96817 0.430893,1.452261"/>
      </g>
     </g>
     <g id="svg_229">
      <defs transform="translate(0.398438, 0.5) scale(9.78332, 10.5741) translate(-0.398438, -0.5) translate(0.0423233, 0.0472854) scale(0.440435, 0.457804) translate(-0.0423233, -0.0472854)">
       <path d="m37.200001,4.7l0.799999,0.3c0,0 0.099998,0 0.099998,0.1l-0.899998,-0.4c0,0 0,0 0,0z" id="SVGID_71_"/>
      </defs>
      <clipPath transform="translate(0.398438, 0.5) scale(9.78332, 10.5741) translate(-0.398438, -0.5) translate(0.0423233, 0.0472854) scale(0.440435, 0.457804) translate(-0.0423233, -0.0472854)" id="SVGID_72_">
       <use id="svg_230" xlink:href="#SVGID_71_"/>
      </clipPath>
      <g id="svg_231" clip-path="url(#SVGID_72_)">
       <path id="svg_232" fill="#82796B" d="m162.860214,22.767948l-3.878036,-1.452255c0,-0.484089 0,-0.484089 -0.430893,-0.484089l4.308929,1.936344c0,-0.484085 0,0 0,0"/>
      </g>
     </g>
     <g id="svg_233">
      <defs transform="translate(0.398438, 0.5) scale(9.78332, 10.5741) translate(-0.398438, -0.5) translate(0.0423233, 0.0472854) scale(0.440435, 0.457804) translate(-0.0423233, -0.0472854)">
       <path d="m37,4.7c0,0 0.099998,0 0,0c0.400002,0 0.700001,0.2 1,0.3c0,0 -0.099998,0 -0.099998,0.1c-0.300003,-0.1 -0.600002,-0.3 -0.900002,-0.4z" id="SVGID_73_"/>
      </defs>
      <clipPath transform="translate(0.398438, 0.5) scale(9.78332, 10.5741) translate(-0.398438, -0.5) translate(0.0423233, 0.0472854) scale(0.440435, 0.457804) translate(-0.0423233, -0.0472854)" id="SVGID_74_">
       <use id="svg_234" xlink:href="#SVGID_73_"/>
      </clipPath>
      <g id="svg_235" clip-path="url(#SVGID_74_)">
       <path id="svg_236" fill="#82796B" d="m161.998444,22.767948l-3.878052,-1.936344c0,0 0,-0.484085 0,-0.484085l3.878052,2.420429c0,-0.484085 0,0 0,0"/>
       <path id="svg_237" fill="#867C6E" d="m161.998444,22.283863l-3.878052,-1.452259c0,0 0,0 0,0l3.878052,1.452259c0.430878,0 0.430878,0 0,0"/>
       <path id="svg_238" fill="#897F71" d="m162.429321,22.283863l-3.878036,-1.452259c0,0 0,0 0,0l3.878036,1.452259c0,0 0,0 0,0"/>
       <polyline id="svg_239" fill="#8D8274" points="162.42932179317086,22.28386295006203 158.55129150037374,20.831604954355498 158.55129150037374,20.831604954355498 162.42932179317086,22.28386295006203 162.42932179317086,22.28386295006203 "/>
      </g>
     </g>
     <g id="svg_240">
      <defs transform="translate(0.398438, 0.5) scale(9.78332, 10.5741) translate(-0.398438, -0.5) translate(0.0423233, 0.0472854) scale(0.440435, 0.457804) translate(-0.0423233, -0.0472854)">
       <path d="m37.099998,4.7c0,0 0.100002,0 0,0l0.900002,0.3c0,0 0,0 0,0c-0.299999,-0.1 -0.599998,-0.2 -0.900002,-0.3z" id="SVGID_75_"/>
      </defs>
      <clipPath transform="translate(0.398438, 0.5) scale(9.78332, 10.5741) translate(-0.398438, -0.5) translate(0.0423233, 0.0472854) scale(0.440435, 0.457804) translate(-0.0423233, -0.0472854)" id="SVGID_76_">
       <use id="svg_241" xlink:href="#SVGID_75_"/>
      </clipPath>
      <g id="svg_242" clip-path="url(#SVGID_76_)">
       <path id="svg_243" fill="#8D8274" d="m162.429321,22.283863l-3.878036,-1.452259c0,0 0,0 0,0l3.878036,1.452259c0,0 0,0 0,0"/>
       <path id="svg_244" fill="#908677" d="m162.429321,22.283863l-3.878036,-1.452259c0,0 0,0 0,0l3.878036,1.452259c0,0 0,0 0,0"/>
       <polyline id="svg_245" fill="#94897A" points="162.42932179317086,22.28386295006203 158.98218375512897,20.831604954355498 158.98218375512897,20.831604954355498 162.42932179317086,22.28386295006203 162.42932179317086,22.28386295006203 "/>
      </g>
     </g>
     <g id="svg_246">
      <defs transform="translate(0.398438, 0.5) scale(9.78332, 10.5741) translate(-0.398438, -0.5) translate(0.0423233, 0.0472854) scale(0.440435, 0.457804) translate(-0.0423233, -0.0472854)">
       <path d="m37.099998,4.7c0,0 0,0 0,0l0.900002,0.3c0,0 0,0 0,0c0,0 -0.099998,0 -0.099998,0c0,0 -0.100002,0 -0.100002,0c0,0 -0.099998,0 -0.099998,0c0,0 -0.100002,0 -0.100002,0c0,0 -0.099998,0 -0.099998,0c0,0 -0.099998,0 -0.099998,0c0,0 -0.100002,0 -0.100002,0c-0.099998,-0.3 -0.099998,-0.3 -0.200001,-0.3z" id="SVGID_77_"/>
      </defs>
      <clipPath transform="translate(0.398438, 0.5) scale(9.78332, 10.5741) translate(-0.398438, -0.5) translate(0.0423233, 0.0472854) scale(0.440435, 0.457804) translate(-0.0423233, -0.0472854)" id="SVGID_78_">
       <use id="svg_247" xlink:href="#SVGID_77_"/>
      </clipPath>
      <g id="svg_248" clip-path="url(#SVGID_78_)">
       <polyline id="svg_249" fill="#8D8274" points="162.42932179317086,22.28386295006203 158.55129150037374,20.831604954355498 158.55129150037374,20.831604954355498 162.42932179317086,22.28386295006203 162.42932179317086,22.28386295006203 "/>
      </g>
     </g>
     <g id="svg_250">
      <polygon id="svg_251" fill="#7F7568" points="161.99844297943673,23.252033782943727 158.1203992456185,21.79977753362118 158.1203992456185,20.831604954355498 161.99844297943673,22.76794836650288 "/>
     </g>
     <g id="svg_252">
      <polygon id="svg_253" fill="#82796B" points="160.27486051939468,26.640636937181625 156.8277224813528,25.188377195091107 157.25861473610803,24.70429177865026 160.70575277414991,26.640636937181625 "/>
     </g>
     <g id="svg_254">
      <defs transform="translate(0.398438, 0.5) scale(9.78332, 10.5741) translate(-0.398438, -0.5) translate(0.0423233, 0.0472854) scale(0.440435, 0.457804) translate(-0.0423233, -0.0472854)">
       <path d="m37.5,6.5l-0.900002,-0.3c0,-0.1 0,-0.2 0,-0.3c0,-0.1 0,-0.2 0,-0.3l0.900002,0.3c0,0.1 0,0.2 0,0.3c0,0.1 0,0.2 0,0.3z" id="SVGID_79_"/>
      </defs>
      <clipPath transform="translate(0.398438, 0.5) scale(9.78332, 10.5741) translate(-0.398438, -0.5) translate(0.0423233, 0.0472854) scale(0.440435, 0.457804) translate(-0.0423233, -0.0472854)" id="SVGID_80_">
       <use id="svg_255" xlink:href="#SVGID_79_"/>
      </clipPath>
      <g id="svg_256" clip-path="url(#SVGID_80_)">
       <path id="svg_257" fill="#82796B" d="m160.274857,29.545151l-3.878021,-1.452257c0,-0.484085 0,-0.968172 0,-1.452257c0,-0.484085 0,-0.968174 0,-1.452259l3.878021,1.452259c0,0.484085 0,0.968172 0,1.452257c0,0.484087 0,0.968172 0,1.452257"/>
      </g>
     </g>
     <g id="svg_258">
      <polygon id="svg_259" fill="#81786A" points="161.13664502890515,24.70429177865026 157.25861473610803,23.252033782943727 157.68952043188438,22.76794836650288 161.13664502890515,24.70429177865026 "/>
     </g>
     <g id="svg_260">
      <defs transform="translate(0.398438, 0.5) scale(9.78332, 10.5741) translate(-0.398438, -0.5) translate(0.0423233, 0.0472854) scale(0.440435, 0.457804) translate(-0.0423233, -0.0472854)">
       <path d="m36.799999,5.3c0,0 0,-0.1 0,-0.1l0.900002,0.3c0,0 0,0.1 0,0.1c0,0 -0.100002,0 -0.100002,0c0,0 -0.099998,0 -0.099998,0c0,0 -0.099998,0 -0.099998,0c0,0 -0.100002,0 -0.100002,0c0,0 -0.099998,0 -0.099998,0c0,0 -0.100002,0 -0.100002,0c0,0 -0.099998,0 -0.099998,0c-0.200001,-0.3 -0.200001,-0.3 -0.200001,-0.3c0.299999,0.1 0.600002,0.2 0.900002,0.3c0,0 0,0 0,0c0,0.1 0,0.1 0,0.2l-0.900002,-0.3c0,0 0,-0.1 0,-0.2z" id="SVGID_81_"/>
      </defs>
      <clipPath transform="translate(0.398438, 0.5) scale(9.78332, 10.5741) translate(-0.398438, -0.5) translate(0.0423233, 0.0472854) scale(0.440435, 0.457804) translate(-0.0423233, -0.0472854)" id="SVGID_82_">
       <use id="svg_261" xlink:href="#SVGID_81_"/>
      </clipPath>
      <g id="svg_262" clip-path="url(#SVGID_82_)">
       <path id="svg_263" fill="#82796B" d="m160.70575,26.640636l-3.878021,-1.452259c0,-0.484085 0,-0.484085 0,-0.96817c0,0 0,-0.484085 0,-0.484085l3.878021,1.452255c0,0 0,0.484085 0,0.484085c0,0 0,0.484089 0,0.968174"/>
      </g>
     </g>
     <g id="svg_264">
      <polygon id="svg_265" fill="#82796B" points="161.13664502890515,23.73612269215255 157.68952043188438,22.28386295006203 158.1203992456185,21.79977753362118 161.99844297943673,23.252033782943727 "/>
     </g>
     <g id="svg_266">
      <polygon id="svg_267" fill="#7F7568" points="161.13664502890515,24.70429177865026 157.68952043188438,22.76794836650288 157.68952043188438,22.28386295006203 161.13664502890515,23.73612269215255 "/>
     </g>
     <g id="svg_268">
      <defs transform="translate(0.398438, 0.5) scale(9.78332, 10.5741) translate(-0.398438, -0.5) translate(0.0423233, 0.0472854) scale(0.440435, 0.457804) translate(-0.0423233, -0.0472854)">
       <path d="m34.299999,7.6l0.900002,0.3c0.700001,0.3 1.200001,0.9 1.200001,1.5c0,1 -0.900002,1.700001 -2.100002,1.700001l-0.899998,-0.3c1.199997,0 2.099998,-0.8 2.099998,-1.7c0,-0.6 -0.5,-1.2 -1.200001,-1.5z" id="SVGID_83_"/>
      </defs>
      <clipPath transform="translate(0.398438, 0.5) scale(9.78332, 10.5741) translate(-0.398438, -0.5) translate(0.0423233, 0.0472854) scale(0.440435, 0.457804) translate(-0.0423233, -0.0472854)" id="SVGID_84_">
       <use id="svg_269" xlink:href="#SVGID_83_"/>
      </clipPath>
      <g id="svg_270" clip-path="url(#SVGID_84_)">
       <path id="svg_271" fill="#8D8274" d="m146.055435,52.297188l-3.878036,-1.452263c0,0 0.430893,0 0.430893,0l3.878021,1.452263c0,0 -0.430878,0 -0.430878,0"/>
       <path id="svg_272" fill="#897F71" d="m146.486313,52.297188l-3.878021,-1.452263c0.861771,0 1.292679,0 1.723557,-0.484081l3.878036,1.452259c-0.430893,0.484085 -0.861786,0.484085 -1.723572,0.484085"/>
       <path id="svg_273" fill="#867C6E" d="m148.640762,51.813103l-3.878006,-1.452259c0.861771,0 1.292679,-0.484089 2.154465,-0.96817l3.878006,1.452251c-0.861786,0.968178 -1.723557,0.968178 -2.154465,0.968178"/>
       <path id="svg_274" fill="#82796B" d="m150.364349,51.329018l-3.878036,-1.452263c2.585358,-1.452259 4.739822,-4.35677 4.739822,-7.261288c0,-3.388599 -2.154465,-6.293114 -5.1707,-7.261284l3.878006,1.452255c3.016251,1.452259 5.170715,4.35677 5.170715,7.261288c0,2.904518 -1.723557,5.809029 -4.739807,7.261292"/>
      </g>
     </g>
     <g id="svg_275">
      <defs transform="translate(0.398438, 0.5) scale(9.78332, 10.5741) translate(-0.398438, -0.5) translate(0.0423233, 0.0472854) scale(0.440435, 0.457804) translate(-0.0423233, -0.0472854)">
       <path d="m33.299999,11l-0.899998,-0.3c0.299999,0.1 0.599998,0.2 0.899998,0.2l0.900002,0.3c-0.299999,0 -0.700001,-0.099999 -0.900002,-0.2z" id="SVGID_85_"/>
      </defs>
      <clipPath transform="translate(0.398438, 0.5) scale(9.78332, 10.5741) translate(-0.398438, -0.5) translate(0.0423233, 0.0472854) scale(0.440435, 0.457804) translate(-0.0423233, -0.0472854)" id="SVGID_86_">
       <use id="svg_276" xlink:href="#SVGID_85_"/>
      </clipPath>
      <g id="svg_277" clip-path="url(#SVGID_86_)">
       <path id="svg_278" fill="#94897A" d="m142.177399,51.329018l-3.878036,-1.452263c0,0 0.430893,0 0.430893,0l3.878036,1.452263c-0.430893,0.484085 -0.430893,0 -0.430893,0"/>
       <path id="svg_279" fill="#908677" d="m142.608292,51.813103l-3.878036,-1.452259c0.861786,0.484081 1.292679,0.484081 2.154465,0.484081l3.878036,1.452263c-0.861786,0 -1.723572,-0.484085 -2.154465,-0.484085"/>
       <path id="svg_280" fill="#8D8274" d="m144.762756,52.297188l-3.878036,-1.936344c0.430878,0 0.861786,0 1.292679,0l3.878036,1.452259c-0.430908,0.484085 -0.861786,0.484085 -1.292679,0.484085"/>
      </g>
     </g>
     <g id="svg_281">
      <defs transform="translate(0.398438, 0.5) scale(9.78332, 10.5741) translate(-0.398438, -0.5) translate(0.0423233, 0.0472854) scale(0.440435, 0.457804) translate(-0.0423233, -0.0472854)">
       <path d="m33.299999,7.4c0.299999,0 0.700001,0.1 0.900002,0.2l0.899998,0.3c-0.299999,-0.1 -0.599998,-0.2 -0.899998,-0.2c-0.299999,0 -0.600002,-0.2 -0.900002,-0.3z" id="SVGID_87_"/>
      </defs>
      <clipPath transform="translate(0.398438, 0.5) scale(9.78332, 10.5741) translate(-0.398438, -0.5) translate(0.0423233, 0.0472854) scale(0.440435, 0.457804) translate(-0.0423233, -0.0472854)" id="SVGID_88_">
       <use id="svg_282" xlink:href="#SVGID_87_"/>
      </clipPath>
      <g id="svg_283" clip-path="url(#SVGID_88_)">
       <path id="svg_284" fill="#8D8274" d="m146.055435,35.838268l-3.878036,-1.452259c0.430893,0 0.861786,0 1.292664,0l3.878036,1.452259c-0.430878,0 -0.861786,0 -1.292664,0"/>
       <path id="svg_285" fill="#908677" d="m147.348099,35.838268l-3.878036,-1.452259c0.861786,0 1.292694,0.484085 2.154465,0.484085l3.878036,1.452259c-0.430893,0 -1.292679,-0.484085 -2.154465,-0.484085"/>
       <path id="svg_286" fill="#94897A" d="m149.502563,36.322353l-3.878036,-1.452259c0,0 0.430908,0 0.430908,0l3.878006,1.452259c0,0 0,0 -0.430878,0"/>
      </g>
     </g>
     <g id="svg_287">
      <defs transform="translate(0.398438, 0.5) scale(9.78332, 10.5741) translate(-0.398438, -0.5) translate(0.0423233, 0.0472854) scale(0.440435, 0.457804) translate(-0.0423233, -0.0472854)">
       <path d="m31.200001,9.1c0,-0.900001 1,-1.7 2.099998,-1.7l0.900002,0.3c-1.200001,0 -2.100002,0.8 -2.100002,1.7c0,0.700001 0.5,1.3 1.200001,1.5l-0.899998,-0.299999c-0.700001,-0.200001 -1.200001,-0.8 -1.200001,-1.5z" id="SVGID_89_"/>
      </defs>
      <clipPath transform="translate(0.398438, 0.5) scale(9.78332, 10.5741) translate(-0.398438, -0.5) translate(0.0423233, 0.0472854) scale(0.440435, 0.457804) translate(-0.0423233, -0.0472854)" id="SVGID_90_">
       <use id="svg_288" xlink:href="#SVGID_89_"/>
      </clipPath>
      <g id="svg_289" clip-path="url(#SVGID_90_)">
       <path id="svg_290" fill="#82796B" d="m142.177399,51.329018l-3.878036,-1.452263c-3.016235,-1.452259 -5.1707,-4.35677 -5.1707,-7.261288c0,-2.90451 1.723572,-5.809029 4.739807,-7.261284l3.878036,1.452255c-2.585373,1.452259 -4.739822,4.35677 -4.739822,7.261288c0,3.388599 2.154449,5.809029 5.170715,7.261292"/>
       <path id="svg_291" fill="#867C6E" d="m141.746506,36.806438l-3.878036,-1.452255c0.430893,-0.484089 1.292664,-0.484089 2.154465,-0.968174l3.878036,1.452259c-0.861786,0.484085 -1.723572,0.484085 -2.154465,0.96817"/>
       <path id="svg_292" fill="#897F71" d="m143.470062,35.838268l-3.878021,-1.452259c0.430893,0 1.292679,-0.484085 1.723557,-0.484085l3.878052,1.452259c-0.430893,0.484085 -0.861801,0.484085 -1.723587,0.484085"/>
       <path id="svg_293" fill="#8D8274" d="m145.624527,35.838268l-3.878021,-1.452259c0,0 0.430893,0 0.430893,0l3.878036,1.452259c0,0 -0.430908,0 -0.430908,0"/>
      </g>
     </g>
     <g id="svg_294">
      <path id="svg_295" fill="#C2B29E" d="m146.055435,35.838268c5.1707,0 9.048721,3.872688 9.048721,8.229458c0,4.840858 -3.878021,8.229462 -9.048721,8.229462s-9.048752,-3.872692 -9.048752,-8.229462c0,-4.840858 3.878036,-8.229458 9.048752,-8.229458z"/>
     </g>
     <g id="svg_296">
      <polygon id="svg_297" fill="#8B8173" points="99.51907948094868,71.66062083301222 95.64105590866211,70.20836283730569 96.93372595241726,70.20836283730569 100.81176296572494,71.66062083301222 "/>
     </g>
     <g id="svg_298">
      <polygon id="svg_299" fill="#7F7568" points="100.81176296572494,71.66062083301222 96.93372595241726,70.20836283730569 96.93372595241726,10.1817170607369 100.81176296572494,12.118061346076274 "/>
     </g>
     <g id="svg_300">
      <polygon id="svg_301" fill="#7F7568" points="99.51907948094868,71.66062083301222 95.64105590866211,70.20836283730569 96.07194816341735,10.1817170607369 99.51907948094868,12.118061346076274 "/>
     </g>
     <g id="svg_302">
      <polygon id="svg_303" fill="#8B8173" points="99.51907948094868,12.118061346076274 96.07194816341735,10.1817170607369 96.93372595241726,10.1817170607369 100.81176296572494,12.118061346076274 "/>
     </g>
     <g id="svg_304">
      <defs transform="translate(0.398438, 0.5) scale(9.78332, 10.5741) translate(-0.398438, -0.5) translate(0.0423233, 0.0472854) scale(0.440435, 0.457804) translate(-0.0423233, -0.0472854)">
       <path d="m12.2,7.7l0.900001,0.3c0.599999,0.2 1,0.8 1,1.4c0,0.900001 -0.8,1.6 -1.8,1.6l-0.900001,-0.3c1,0 1.8,-0.7 1.8,-1.599999c0.1,-0.6 -0.4,-1.2 -1,-1.400001z" id="SVGID_91_"/>
      </defs>
      <clipPath transform="translate(0.398438, 0.5) scale(9.78332, 10.5741) translate(-0.398438, -0.5) translate(0.0423233, 0.0472854) scale(0.440435, 0.457804) translate(-0.0423233, -0.0472854)" id="SVGID_92_">
       <use id="svg_305" xlink:href="#SVGID_91_"/>
      </clipPath>
      <g id="svg_306" clip-path="url(#SVGID_92_)">
       <path id="svg_307" fill="#8D8274" d="m52.12096,51.813103l-3.878029,-1.452259c0,0 0.430893,0 0.430893,0l3.878025,1.452259c-0.430889,0 -0.430889,0 -0.430889,0"/>
       <path id="svg_308" fill="#897F71" d="m52.551849,51.813103l-3.878025,-1.452259c0.430889,0 0.861782,0 1.292671,0l3.878033,1.452259c-0.430893,-0.484085 -0.861786,0 -1.292679,0"/>
       <path id="svg_309" fill="#867C6E" d="m53.844528,51.329018l-3.878033,-1.452263c0.430893,0 0.86179,-0.484081 1.723572,-0.484081l3.878025,1.452251c-0.430889,0.484093 -1.292675,0.484093 -1.723564,0.484093"/>
       <path id="svg_310" fill="#82796B" d="m55.568092,50.844925l-3.878025,-1.452251c2.58535,-1.452259 4.308922,-3.872688 4.308922,-6.777206c0,-2.90451 -1.723572,-5.809029 -4.308922,-6.777199l3.447136,0.96817c2.585354,0.96817 4.308922,3.872688 4.308922,6.777199c0,3.388607 -1.723568,5.809036 -3.878033,7.261288"/>
      </g>
     </g>
     <g id="svg_311">
      <defs transform="translate(0.398438, 0.5) scale(9.78332, 10.5741) translate(-0.398438, -0.5) translate(0.0423233, 0.0472854) scale(0.440435, 0.457804) translate(-0.0423233, -0.0472854)">
       <path d="m11.6,10.9l-0.900001,-0.299999c0.2,0.099999 0.5,0.099999 0.7,0.099999l0.900001,0.3c-0.2,0.1 -0.400001,0 -0.7,-0.1z" id="SVGID_93_"/>
      </defs>
      <clipPath transform="translate(0.398438, 0.5) scale(9.78332, 10.5741) translate(-0.398438, -0.5) translate(0.0423233, 0.0472854) scale(0.440435, 0.457804) translate(-0.0423233, -0.0472854)" id="SVGID_94_">
       <use id="svg_312" xlink:href="#SVGID_93_"/>
      </clipPath>
      <g id="svg_313" clip-path="url(#SVGID_94_)">
       <path id="svg_314" fill="#94897A" d="m48.673824,50.844925l-3.878033,-1.452251c0,0 0.430893,0 0.430893,0l3.44714,1.452251c0.430889,0.484093 0.430889,0 0,0"/>
       <path id="svg_315" fill="#908677" d="m49.104713,51.329018l-3.878029,-1.452263c0.430893,0 1.292679,0.484089 1.723572,0.484089l3.878029,1.452259c-0.430897,-0.484085 -1.292679,-0.484085 -1.723572,-0.484085"/>
       <path id="svg_316" fill="#8D8274" d="m50.828285,51.813103l-3.878029,-1.452259c0.430889,0 0.861778,0 1.292675,0l3.878029,1.452259c-0.430893,0 -0.861786,0 -1.292675,0"/>
      </g>
     </g>
     <g id="svg_317">
      <defs transform="translate(0.398438, 0.5) scale(9.78332, 10.5741) translate(-0.398438, -0.5) translate(0.0423233, 0.0472854) scale(0.440435, 0.457804) translate(-0.0423233, -0.0472854)">
       <path d="m11.5,7.6c0.3,0 0.5,0 0.7,0.1l0.900001,0.3c-0.200001,-0.1 -0.5,-0.1 -0.700001,-0.1c-0.299999,-0.1 -0.599999,-0.2 -0.9,-0.3z" id="SVGID_95_"/>
      </defs>
      <clipPath transform="translate(0.398438, 0.5) scale(9.78332, 10.5741) translate(-0.398438, -0.5) translate(0.0423233, 0.0472854) scale(0.440435, 0.457804) translate(-0.0423233, -0.0472854)" id="SVGID_96_">
       <use id="svg_318" xlink:href="#SVGID_95_"/>
      </clipPath>
      <g id="svg_319" clip-path="url(#SVGID_96_)">
       <path id="svg_320" fill="#8D8274" d="m52.12096,36.322353l-3.878029,-1.452259c0.430893,0 0.861782,0 0.861782,0l3.878029,1.452259c-0.430893,0 -0.430893,0 -0.861782,0"/>
       <path id="svg_321" fill="#908677" d="m52.982742,36.322353l-3.878029,-1.452259c0.430893,0 1.292675,0 1.723572,0.484089l3.878025,1.452255c-0.430893,0 -0.861782,-0.484085 -1.723568,-0.484085"/>
       <path id="svg_322" fill="#94897A" d="m54.70631,36.806438l-3.878025,-1.452255c0,0 0.430889,0 0.430889,0l3.447136,1.452255c0.430893,0 0,0 0,0"/>
      </g>
     </g>
     <g id="svg_323">
      <defs transform="translate(0.398438, 0.5) scale(9.78332, 10.5741) translate(-0.398438, -0.5) translate(0.0423233, 0.0472854) scale(0.440435, 0.457804) translate(-0.0423233, -0.0472854)">
       <path d="m11.5,7.6c0.1,0 0.2,0.1 0.3,0.1c0,0 0,0 0.099999,0c0.1,0 0.200001,0.1 0.3,0.1c0.1,0 0.1,0.1 0.2,0.1c-1,0 -1.799999,0.7 -1.799999,1.6c0,0.6 0.4,1.2 1,1.5l-0.900001,-0.3c-0.599999,-0.2 -1,-0.8 -1,-1.5c0,-0.9 0.8,-1.6 1.8,-1.6z" id="SVGID_97_"/>
      </defs>
      <clipPath transform="translate(0.398438, 0.5) scale(9.78332, 10.5741) translate(-0.398438, -0.5) translate(0.0423233, 0.0472854) scale(0.440435, 0.457804) translate(-0.0423233, -0.0472854)" id="SVGID_98_">
       <use id="svg_324" xlink:href="#SVGID_97_"/>
      </clipPath>
      <g id="svg_325" clip-path="url(#SVGID_98_)">
       <path id="svg_326" fill="#82796B" d="m48.673824,50.844925l-3.878033,-1.452251c-2.58535,-0.968178 -4.308918,-3.872688 -4.308918,-7.261288c0,-2.904518 1.723568,-5.324947 4.308918,-6.777203l3.878033,1.452255c-2.585354,1.452259 -4.308918,3.872688 -4.308918,6.777199c0,3.388607 1.723564,6.293118 4.308918,7.261288"/>
       <path id="svg_327" fill="#867C6E" d="m48.673824,37.290527l-3.878033,-1.452259c0.430893,-0.484085 0.861786,-0.484085 1.723572,-0.484085l3.447132,1.452255c-0.430889,0 -0.861782,0 -1.292671,0.484089"/>
       <path id="svg_328" fill="#897F71" d="m49.966496,36.806438l-3.878025,-1.452255c0.430893,0 0.861786,0 1.292675,0l3.878029,1.452255c0,-0.484085 -0.861786,-0.484085 -1.292679,0"/>
       <path id="svg_329" fill="#8D8274" d="m51.690067,36.322353l-3.878033,-1.452259c0,0 0.430897,0 0.430897,0l3.878029,1.452259c-0.430893,0 -0.430893,0 -0.430893,0"/>
      </g>
     </g>
     <g id="svg_330">
      <path id="svg_331" fill="#C2B29E" d="m52.12096,36.322353c4.308918,0 7.75605,3.388603 7.75605,7.745373c0,4.35677 -3.447132,7.745377 -7.75605,7.745377c-4.308926,0 -7.756054,-3.388607 -7.756054,-7.745377c0,-4.35677 3.447128,-7.745373 7.756054,-7.745373z"/>
     </g>
     <g id="svg_332">
      <defs transform="translate(0.398438, 0.5) scale(9.78332, 10.5741) translate(-0.398438, -0.5) translate(0.0423233, 0.0472854) scale(0.440435, 0.457804) translate(-0.0423233, -0.0472854)">
       <path d="m3.3,15.8l-0.9,-0.3c0.2,0.1 0.4,0.1 0.5,0.1l0.9,0.299999c-0.1,0 -0.3,0 -0.5,-0.099999z" id="SVGID_99_"/>
      </defs>
      <clipPath transform="translate(0.398438, 0.5) scale(9.78332, 10.5741) translate(-0.398438, -0.5) translate(0.0423233, 0.0472854) scale(0.440435, 0.457804) translate(-0.0423233, -0.0472854)" id="SVGID_100_">
       <use id="svg_333" xlink:href="#SVGID_99_"/>
      </clipPath>
      <g id="svg_334" clip-path="url(#SVGID_100_)">
       <path id="svg_335" fill="#94897A" d="m12.909782,74.56514l-3.878028,-1.452263c0,0 0,0 0.430892,0l3.447136,1.452263c0,0 0,0 0,0"/>
       <path id="svg_336" fill="#908677" d="m13.340674,74.56514l-3.878028,-1.452263c0.430892,0 0.861784,0.484085 1.292676,0.484085l3.878028,1.452255c-0.430892,0 -0.861783,0 -1.292676,-0.484077"/>
       <path id="svg_337" fill="#8D8274" d="m14.63335,75.049217l-3.878028,-1.452255c0.430893,0 0.430893,0 0.861784,0l3.878029,1.452255c-0.430892,0 -0.861785,0 -0.861785,0"/>
      </g>
     </g>
     <g id="svg_338">
      <defs transform="translate(0.398438, 0.5) scale(9.78332, 10.5741) translate(-0.398438, -0.5) translate(0.0423233, 0.0472854) scale(0.440435, 0.457804) translate(-0.0423233, -0.0472854)">
       <path d="m3.3,15.8l-0.9,-0.3c-0.6,-0.2 -0.9,-0.8 -0.9,-1.4l0.9,0.299999c0,0.6 0.3,1.200001 0.9,1.400001z" id="SVGID_101_"/>
      </defs>
      <clipPath transform="translate(0.398438, 0.5) scale(9.78332, 10.5741) translate(-0.398438, -0.5) translate(0.0423233, 0.0472854) scale(0.440435, 0.457804) translate(-0.0423233, -0.0472854)" id="SVGID_102_">
       <use id="svg_339" xlink:href="#SVGID_101_"/>
      </clipPath>
      <g id="svg_340" clip-path="url(#SVGID_102_)">
       <path id="svg_341" fill="#82796B" d="m12.909782,74.56514l-3.878028,-1.452263c-2.585352,-0.96817 -3.878028,-3.872688 -3.878028,-6.777199l3.878028,1.452255c0,2.90451 1.292676,5.809029 3.878028,6.777206"/>
      </g>
     </g>
     <g id="svg_342">
      <defs transform="translate(0.398438, 0.5) scale(9.78332, 10.5741) translate(-0.398438, -0.5) translate(0.0423233, 0.0472854) scale(0.440435, 0.457804) translate(-0.0423233, -0.0472854)">
       <path d="m2.9,16.700001l-0.9,-0.300001c-0.9,-0.4 -1.6,-1.299999 -1.6,-2.299999l0.9,0.299999c0.1,1.1 0.7,2 1.6,2.300001z" id="SVGID_103_"/>
      </defs>
      <clipPath transform="translate(0.398438, 0.5) scale(9.78332, 10.5741) translate(-0.398438, -0.5) translate(0.0423233, 0.0472854) scale(0.440435, 0.457804) translate(-0.0423233, -0.0472854)" id="SVGID_104_">
       <use id="svg_343" xlink:href="#SVGID_103_"/>
      </clipPath>
      <g id="svg_344" clip-path="url(#SVGID_104_)">
       <path id="svg_345" fill="#82796B" d="m11.186215,78.921913l-3.87803,-1.452271c-3.878028,-1.93634 -6.894272,-6.293106 -6.894272,-11.133965l3.878028,1.452255c0.430892,5.324944 3.016244,9.681709 6.894274,11.13398"/>
      </g>
     </g>
     <g id="svg_346">
      <polygon id="svg_347" fill="#8B8173" points="15.495135167123976,7.2772019425158305 11.617106554454494,5.824944383405295 177.07965845484887,5.824944383405295 180.95767530662488,7.2772019425158305 "/>
     </g>
     <g id="svg_348">
      <polygon id="svg_349" fill="#7F7568" points="9.03175470605072,67.78793051594948 5.153726093381238,66.3356795057789 5.153726093381238,13.086231305765978 9.03175470605072,14.538490174664503 "/>
     </g>
     <g id="svg_350">
      <defs transform="translate(0.398438, 0.5) scale(9.78332, 10.5741) translate(-0.398438, -0.5) translate(0.0423233, 0.0472854) scale(0.440435, 0.457804) translate(-0.0423233, -0.0472854)">
       <path d="m2.4,3.4l-0.9,-0.3c0,-0.8 0.7,-1.5 1.5,-1.5l0.9,0.3c-0.8,0 -1.5,0.7 -1.5,1.5z" id="SVGID_105_"/>
      </defs>
      <clipPath transform="translate(0.398438, 0.5) scale(9.78332, 10.5741) translate(-0.398438, -0.5) translate(0.0423233, 0.0472854) scale(0.440435, 0.457804) translate(-0.0423233, -0.0472854)" id="SVGID_106_">
       <use id="svg_351" xlink:href="#SVGID_105_"/>
      </clipPath>
      <g id="svg_352" clip-path="url(#SVGID_106_)">
       <path id="svg_353" fill="#82796B" d="m9.031754,14.53849l-3.878028,-1.452259c0,-2.904514 1.723568,-5.324943 3.878028,-6.777201l3.878028,1.452258c-2.15446,1.452258 -3.878028,3.872686 -3.878028,6.777202"/>
       <path id="svg_354" fill="#867C6E" d="m12.909782,7.761288l-3.878028,-1.452258c0.430892,0 0.861784,-0.484086 1.292676,-0.484086l3.878028,1.936344c-0.430891,0 -0.861784,0 -1.292676,0"/>
       <path id="svg_355" fill="#897F71" d="m14.202458,7.761288l-3.878028,-1.936344c0.430892,0 0.861785,0 1.292676,0l3.878029,1.452258c-0.861785,0 -1.292677,0 -1.292677,0.484086"/>
       <path id="svg_356" fill="#8D8274" d="m15.064243,7.277202l-3.878028,-1.452258c0,0 0.430891,0 0.430891,0l3.447137,1.452258c0.430892,0 0,0 0,0"/>
      </g>
     </g>
     <g id="svg_357">
      <path id="svg_358" fill="#C2B29E" d="m180.957672,2.436343c6.032501,0 10.772308,5.324945 10.772308,12.102147l0,53.249443c0,6.777206 -4.739807,12.102142 -10.772308,12.102142l-165.893429,0c-6.032489,0 -10.772302,-5.324936 -10.772302,-12.102142l0,-53.249443c0,-6.777202 4.739813,-12.102147 10.772302,-12.102147l165.893429,0zm6.463394,13.554404l0,-1.452257c0,-3.872688 -3.016251,-7.261288 -6.463394,-7.261288l-165.462537,0c-3.447137,0 -6.463381,3.3886 -6.463381,7.261288l0,53.249443c0,3.872688 3.016244,7.261284 6.463381,7.261284l165.462537,0c1.723587,0 3.447144,-0.96817 4.739838,-2.420425c1.292664,-1.452255 1.723557,-2.90451 1.723557,-4.840858l0,-51.797186"/>
     </g>
     <g id="svg_359">
      <path id="svg_360" fill="#C2B29E" d="m187.421066,15.990747l0,51.797186c0,1.936348 -0.430893,3.872688 -1.723557,4.840858c-2.154465,-0.484085 -0.861801,-1.936348 -2.585373,-4.356773c-2.154465,-3.872688 -4.739807,-7.745377 -8.186935,-11.133972c-0.430908,-0.484085 -0.861786,-0.484085 -1.292694,-0.968174c-3.878021,5.809032 -7.756042,12.102146 -11.203186,18.395267c0,0 0,0 -0.430878,0c0,0 -0.430908,0 -0.861801,0c-0.430893,0 -0.861786,0 -0.861786,0c0,0 -0.430878,0 -0.430878,0c-0.861801,0 -1.292694,0 -1.292694,-0.484093l0.430893,-0.96817l0.430893,-0.96817c-0.430893,0 -0.430893,0 -0.861786,-0.484085c-0.430893,0 -1.292664,0 -1.292664,-0.484085l0.430893,-0.96817l0,-0.484085l0,-0.484093c-0.430893,0 -0.861786,0 -0.861786,-0.484085c0.430893,-0.484085 0.861786,-1.452255 1.292664,-1.93634l0,-0.484085c-0.430878,0 -0.861771,0 -0.861771,-0.484093l0.430893,-0.484077c-0.430893,0 -0.861786,0 -0.861786,-0.484085l0.430893,-0.484093l0.430893,1.452255c0.430878,-0.484077 0.430878,-0.968163 0.861771,-1.452255l-0.430893,-0.484081l0.430893,-0.484085l0,-0.484093c2.585358,-4.840855 5.601608,-9.197628 8.617844,-14.038486c-2.585342,-2.904518 -4.739807,-6.293118 -5.601593,-9.197628c-0.861786,-1.452259 -1.292679,-2.904518 -1.292679,-4.356773c0,-0.484089 0,-0.484089 0,-0.968174l0,-0.484085c-0.430878,-0.484085 -0.430878,-0.96817 -0.430878,-1.452259c0,-0.484083 0,-0.96817 0.430878,-1.452253l0.430893,-0.484091c0,-0.484085 -0.430893,-0.96817 -0.430893,-1.452255c0,-0.484085 0,-0.968172 0,-1.452257c0,-0.484087 0,-0.968172 0,-1.452257l0.430893,-0.484089c0,-0.484085 0,-0.484085 0,-0.96817c0,0 0,-0.484085 0,-0.484085l0.430893,0l0,-0.968174l0.430893,-0.484085l0,-0.484085c0.430908,0 0.861786,0 0.861786,0c0,0 0.430893,0 0.430893,0.484085l0,0.968174l0,-0.968174l0.430893,0.484085l-0.430893,1.452259l-0.430893,-0.484085l0,0.484085l0.430893,0l0,0l0.430893,0l0,-0.96817l0,0.484085l-0.430893,0.96817l0,0.484085l0.430893,0.484089l0.430893,0.96817l0.861786,0c2.585342,4.356773 5.1707,8.229462 8.186951,12.586235c2.585358,-3.872688 5.1707,-7.745375 7.32515,-11.618063c2.154465,-4.356771 4.308929,-9.19763 7.32518,-12.102146z"/>
     </g>
     <g id="svg_361">
      <rect id="svg_362" fill="#C2B29E" height="0.3" width="12.3" transform="matrix(0.0131141, -4.84086, 4.30892, 0.0147331, 60.8672, 155.706)" y="8.9" x="17.4"/>
     </g>
     <g id="svg_363">
      <polygon id="svg_364" fill="#8B8173" points="15.495135167123976,2.436343193849382 11.617106554454494,0.9840859621858442 177.07965845484887,0.9840859621858442 180.95767530662488,2.436343193849382 "/>
     </g>
     <g id="svg_365">
      <path id="svg_366" fill="#C2B29E" d="m180.957672,7.277202c3.447144,0 6.463394,3.3886 6.463394,7.261288l0,1.452257c-3.016251,2.904516 -5.170715,7.745375 -7.32518,12.102146c-2.154449,3.872688 -4.739792,7.745375 -7.32515,11.618063c-2.585358,-4.356773 -5.601608,-8.229462 -8.186951,-12.586235l-0.430893,-0.484085l-0.430893,-0.968174l-0.430893,-0.484085l0,-0.484085l0.430893,-0.96817l0,-0.484089l0,0.968174l-0.430893,0l-0.430893,-0.484085l0.430893,-0.968174l-0.430893,-0.484085l0,0.96817l0,-0.96817c0,0 -0.430893,0 -0.430893,0c0,0 -0.430878,0 -0.430878,0.484085l0,0.484085l-0.430908,0.484089l0,0.96817c-0.430893,0.484085 -0.430893,0.484085 -0.430893,0.96817c0,0.484089 0,0.484089 0,0.968174l-0.430893,0.484085c0,0.484087 0,0.968172 0,1.452259c0,0.484085 0,0.96817 0,1.452255c0,0.484085 0,0.968176 0.430893,1.452259l-0.430893,0.484087c-0.430893,0.484083 -0.430893,0.968172 -0.430893,1.452257c0,0.484085 0,0.96817 0.430893,1.452255c0,0.484089 0,0.968174 0,1.452259c0,1.452255 0.430893,2.904514 1.292694,4.356773c0.861771,2.90451 3.01622,6.293118 5.601578,9.197628c-3.016235,4.356777 -6.032486,9.197636 -8.617844,14.038494l-0.861786,0l0.430893,0.484081c-0.430893,0.484093 -0.430893,0.968178 -0.861771,1.452255l0.430878,0.484093l-0.430878,0.484085c0,0.484085 0.430878,0.484085 0.861771,0.484085c-0.430893,0.484085 0,0.484085 0.430893,0.96817c-0.430893,0.96817 -0.861786,1.452263 -1.292664,1.936348c0,0 0.430878,0.484077 0.861771,0.484077l-0.430893,1.452263c0,0.484085 0.430893,0.484085 1.292679,0.484085c0,0 0.430908,0 0.861786,0.484085l-0.430878,0.96817l-0.430908,0.96817c0,0.484085 0.430908,0.484085 1.292679,0.484085c0.430893,0 0.861786,0 1.292694,0c0.430878,0 0.861771,0 0.861771,0c3.878036,-6.777199 7.325165,-12.586231 11.203201,-18.395256c0.430878,0.484085 0.861786,0.96817 1.292679,0.96817c3.016235,3.388607 5.601578,6.777206 8.186951,11.133972c1.723557,2.420433 0.430878,3.872688 2.585342,4.356773c-1.292679,1.452255 -3.016251,2.420433 -4.739807,2.420433l-166.324337,0c-3.447137,0 -6.463381,-3.388603 -6.463381,-7.261292l0,-53.249443c0,-3.872686 3.016244,-7.261288 6.463381,-7.261288l165.893429,-0.968171zm-34.902237,45.019986c5.1707,0 9.048721,-3.872692 9.048721,-8.229462c0,-4.35677 -3.878021,-8.229458 -9.048721,-8.229458c-5.170715,0 -9.048752,3.872688 -9.048752,8.229458c0,4.35677 3.878036,8.229462 9.048752,8.229462m-93.934475,-0.484085c4.308918,0 7.75605,-3.388607 7.75605,-7.745377c0,-4.35677 -3.447132,-7.745373 -7.75605,-7.745373c-4.308926,0 -7.756054,3.388603 -7.756054,7.745373c0,4.35677 3.447128,7.745377 7.756054,7.745377m48.6908,19.847519l0,-59.542561l-1.292679,0l0,59.542561l1.292679,0"/>
     </g>
     <g id="svg_367">
      <polygon id="svg_368" fill="#7F7568" points="4.722833838626002,67.78793051594948 0.844805435972475,66.3356795057789 0.844805435972475,13.086231305765978 4.722833838626002,14.538490174664503 "/>
     </g>
     <g id="svg_369">
      <defs transform="translate(0.398438, 0.5) scale(9.78332, 10.5741) translate(-0.398438, -0.5) translate(0.0423233, 0.0472854) scale(0.440435, 0.457804) translate(-0.0423233, -0.0472854)">
       <path d="m1.4,3.4l-0.9,-0.3c0,-1.4 1.1,-2.5 2.5,-2.5l0.9,0.3c-1.4,0 -2.5,1.1 -2.5,2.5z" id="SVGID_107_"/>
      </defs>
      <clipPath transform="translate(0.398438, 0.5) scale(9.78332, 10.5741) translate(-0.398438, -0.5) translate(0.0423233, 0.0472854) scale(0.440435, 0.457804) translate(-0.0423233, -0.0472854)" id="SVGID_108_">
       <use transform="translate(24, 199) translate(-9, 65) translate(-2.00052, 1.00026) translate(0, 2.00052) translate(1.00026, 1.00026) translate(0.499737, 0.249869)" id="svg_370" xlink:href="#SVGID_107_"/>
      </clipPath>
      <g id="svg_371" clip-path="url(#SVGID_108_)">
       <path id="svg_372" fill="#82796B" d="m4.722834,14.53849l-3.878028,-1.452259c0,-4.840858 2.585352,-9.19763 6.46338,-11.133974l3.87803,1.452258c-3.87803,1.936343 -6.463382,6.293117 -6.463382,11.133975"/>
       <path id="svg_373" fill="#867C6E" d="m11.186215,3.404515l-3.87803,-1.452258c0.430892,-0.484086 1.292677,-0.484086 2.154461,-0.968172l3.447136,1.936343c-0.430891,0 -1.292676,0.484086 -1.723567,0.484086"/>
       <path id="svg_374" fill="#897F71" d="m12.909782,2.920429l-3.447136,-1.936343c0.430892,0 1.292676,-0.484086 1.723569,-0.484086l3.878028,1.452258c-0.861785,0.484086 -1.292676,0.484086 -2.154461,0.968172"/>
       <path id="svg_375" fill="#8D8274" d="m15.064243,2.436343l-3.878028,-1.452257c0,0 0.430891,0 0.430891,0l3.878029,1.452257c-0.430892,0 -0.430892,0 -0.430892,0"/>
      </g>
     </g>
    </g>
   </g>
  </g>
  <g id="svg_376" opacity="0.4">
   <line id="svg_377" fill="none" y2="15" x2="23.1" y1="2.7" x1="23.1"/>
   <rect id="svg_378" fill="#EADFD2" height="12.3" width="0.3" y="2.7" x="23"/>
  </g>
  <path fill="none" d="m2.3,11.2l41.600002,0" id="SVGID_x5F_109_x5F_"/>
  <path id="svg_384" d="m62.946274,46.000526c0,5.616711 -4.309994,9.968658 -9.697514,9.968658c-5.387524,0 -9.697563,-4.368549 -9.697563,-9.98526c0,-5.616699 4.31004,-9.985252 9.697563,-9.985252c5.38752,0 9.697514,4.385155 9.697514,10.001854z"/>
  <path id="svg_385" d="m156.688919,46.037518c0,5.860836 -4.812149,9.963432 -10.10553,9.963432s-10.105499,-4.688679 -10.105499,-9.963432c0,-5.274734 4.812134,-9.963413 10.105499,-9.963413s10.10553,4.688679 10.10553,9.963413z"/>
  <path transform="rotate(12.8998, 173.537, 44.9803)" id="svg_386" d="m191.778076,71.298584l0,0c0,2.455215 -1.131149,5.524284 -1.131149,5.524284c-0.565506,0 -1.131088,0 -1.131088,0c0,0 0,0.613846 0,0.613846c-0.565521,0 -0.565521,0 -0.565521,0c-2.827744,-0.613846 -1.131165,-2.455261 -3.393356,-5.52433c-2.827774,-4.910522 -6.786621,-9.821022 -10.745468,-14.117714c-0.565598,-0.613804 -0.565598,-0.613804 -1.696686,-1.227612c-2.262299,-1.841457 -5.655579,-5.524326 -9.048935,-9.207191c-3.393265,-3.682892 -6.221024,-7.979591 -7.352219,-11.66246c-1.131073,-2.455261 -1.696564,-4.910503 -1.131073,-6.751936c0,0 0,-0.613831 0,-0.613831c-1.131088,-1.841433 -1.131088,-2.455235 -0.565491,-3.682867c0,0 0,0 0.565491,-0.613829c0,-0.6138 -0.565491,-1.227606 -0.565491,-1.841434c0,-1.227629 -0.565598,-1.841431 0,-3.069061c0,0 0.565491,-0.613808 0.565491,-0.613808c0,-0.613825 0,-1.227631 0,-2.455259c0,0 0,0 0.565582,0c0,-0.613803 0,-0.613803 0,-1.227632c0,0 0.565491,-0.613802 0.565491,-0.613802c0,0 0,-0.613806 0,-1.227631c0,-0.613804 1.131195,-0.613804 1.131195,0c0,0.613825 0,0.613825 0,1.227631c0,-0.613806 0,-0.613806 0,-1.227631c0,-0.613804 0.565491,0 0.565491,0.613825l-0.565491,1.841436c0,0.613803 0,0 -0.565598,0l0,0.613803l0,0c0,0 0,0 0,0c0,0 0,0 0.565598,0l0,0c0,0 0.565491,0 0.565491,0c0,-0.613803 0,-0.613803 0,-1.227632c0,0 0,0.613829 0,0.613829l0,1.22763c0,0 0,0.613802 0,0.613802c0,0 0.565598,0 0.565598,0.613806c0,0 0,0.613825 0.565491,1.227633c0,0 0.565598,0 0.565598,0.613825c3.393356,5.524305 7.352203,10.434805 10.745483,15.959133c2.262299,3.069065 4.524445,6.751938 6.786743,9.821003c0.565491,0.613819 0,0 -0.565598,0c-1.131104,-1.227612 -3.393356,-3.069065 -5.089966,-4.9105c1.696609,1.841434 3.393265,3.682888 5.089966,5.524319c0.565598,0.613811 0.565598,1.227638 1.131088,1.227638c1.131088,1.841431 2.827774,3.069065 3.958847,4.9105c0.565598,0.6138 1.131195,1.227631 1.131195,1.841434c0,0 0,0 0,0c1.696579,2.455257 3.39325,4.9105 5.089935,7.365761c0.565598,0.6138 1.131119,1.841434 1.696701,2.455238c0.565506,0.613823 1.131088,1.841461 1.696655,2.455269c0.565521,0 0.565521,0.613792 0,1.227623c0,0 0,0 0,0c1.131088,0.6138 0.565521,4.296692 0,3.682892z"/>
  <g transform="rotate(-36.8848, 174.295, 45.4997)" id="svg_387">
   <path id="svg_388" d="m209.912994,29.308201c0,0 0,-0.284082 0,0c0,-0.284082 0,0 0,0z"/>
   <path id="svg_389" d="m208.975708,29.592279c-0.937271,0 -0.937271,0.284079 -1.874634,0.284079c0.937363,0 0,-0.284079 0,-0.284079c0,0 0,0 -0.937241,0c0.937241,0 0,-0.284079 0,-0.284079c0.937241,-0.284082 1.874603,-0.568155 2.811874,-0.568155c0,0 0,0 0,0l0,-0.568159c0,0 0,-0.284079 -0.937271,0c0,0 0,0 0,0c0,-0.284079 -0.937363,-0.568163 -1.874603,-0.568163c-0.937271,0 -0.937271,0.284084 -1.874542,0.284084c-6.561081,1.704472 -11.247513,4.545256 -15.93396,7.101973c-4.686417,2.272621 -10.31015,4.54525 -15.933853,6.817879c-4.686432,1.704475 -8.435577,3.693016 -13.122009,5.397499c-6.56102,2.556709 -13.122055,5.397491 -18.745758,8.238274c0,0 0,0.284088 0,0.284088c0,0 -0.937271,0.284081 -0.937271,0.568161c0,0 0,0.284073 0.937271,0.284073c-0.937271,0.284081 -0.937271,0.568161 -1.874573,0.852234c0,0 0,0.284096 0.937302,0.284096c0,0 0,0.284065 -0.937302,0.284065c0,0 0,0.284073 1.874573,0.284073c0,0 0,0 0,0.284088c0,0 0,0.284073 1.874634,0.284073c0,0 0,0 0,0.284088l0,0c-0.937378,0.284073 -1.874634,0.852234 -2.811905,1.136307c0,0 0.937271,0.284081 1.874527,0.284081c0,0 0,0 0,0.284081c0,0 0,0 0,0.284073c0,0.284088 -0.937256,0.284088 -0.937256,0.568161c0,0 0.937256,0.284088 2.811874,0.284088c0,0 0.937286,0 1.874557,0c0,0.284065 -0.937271,0.284065 -0.937271,0.568146c0,0 0,0 0,0c0,0.284081 -0.937286,0.284081 -0.937286,0.568161c0,0 1.874557,0.284081 3.749176,0.284081c1.874542,0 4.686432,0 4.686432,0c7.498276,-3.693024 15.933853,-7.386047 24.369446,-10.794998c3.749191,-1.420395 6.560989,-2.840782 9.372864,-4.261177c4.686432,-2.272636 9.372925,-4.261185 14.059311,-6.533813c0,0 0,-0.568153 0,-0.284073c-1.874603,0.568161 -2.811844,1.420387 -4.686386,1.988548c0.937241,-0.568161 1.874542,-1.136314 2.811783,-1.420387c0,0 0,0 0,-0.284088c0.937363,-0.284073 0.937363,-0.568153 1.874603,-0.852234c0,0 0,-0.284073 0,-0.284073c0,0 -0.937241,0.284073 -0.937241,0.568153c0,0 0,0 0,0c0,-0.284081 0.937241,-0.284081 0.937241,-0.568153c0,0 0,-0.284081 0,-0.284081c0,0 0,0 0,0c0,0.284081 -0.937241,0.284081 -0.937241,0.568153c0,0 0,-0.284073 -0.937363,-0.284073c0,0 0.937363,-0.284081 0.937363,-0.284081c0,0 0,-0.284081 0,-0.284081c1.874542,-0.852226 3.749069,-1.988556 5.623718,-2.84079c0,0 0,-0.284081 -0.937317,-0.284081c0,-0.284073 0.937317,-0.284073 0.937317,-0.568146c0,0 0.937271,-0.284088 0.937271,-0.568169c0,0 0,-0.284081 0,-0.284081c0,0 0,0 0,0c0,0 -0.937271,0.284081 -0.937271,0.568161c0,0 0,0 0,0c-1.874649,0.568161 -2.811935,1.136314 -4.686478,1.988548c0.937302,-0.568153 2.811829,-1.420387 3.749161,-1.988548c0,0 0,0 0,0c0,-0.284081 0,-0.284081 0.937317,-0.284081c0,0 0,-0.284081 0,-0.284081c0,0 0.937271,-0.284073 0.937271,-0.568146c0,0 0,0 0,0c0,-0.284088 0.937271,-0.284088 0.937271,-0.568161c0,0 0,0 0,-0.284088c0,0.284088 -0.937271,0.284088 -1.874542,0.568161c0,0 0,0 0,0c-2.811935,-0.852234 -3.749176,-0.852234 -3.749176,-0.568161c1.874527,-0.852234 2.811859,-1.420391 3.749176,-1.988548c0,0 0,-0.284077 0,0c0,0 0,0 -0.937317,0.284081c0,0 0,-0.284081 0,-0.284081c0,0 0.937317,-0.284077 0.937317,-0.284077c0,-0.284077 0.937271,-0.284077 0.937271,-0.568155c0,0 0.937271,-0.284081 0,-0.284081c0,0 -0.937271,0.284081 -0.937271,0.284081c0.937271,-0.284081 0.937271,-0.568159 1.874542,-0.852238c0,0 0.937241,-0.284077 0,-0.284077c0,0 -0.937271,0.284077 -0.937271,0.284077c0,0 0,0 0,0c0,0 0.937271,-0.284077 0.937271,-0.284077c0.937241,0 1.874603,-0.284079 2.811874,-0.568157c0,0 0,0 0,0c0,0 0.937286,-0.284079 0,0c0.937286,-0.284079 0,0 0,0zm-7.498352,3.408945c-0.937241,0.284073 -1.874542,0.568161 -2.811783,0.852234c1.874542,-0.568161 2.811783,-0.852234 3.749069,-1.420395c0,0.284077 0,0.284077 -0.937286,0.568161z"/>
  </g>
  <path id="svg_390" fill="#D9C6AE" d="m38.299999,7.3c0,0 0.400002,0.4 0.700001,0.8c0.200001,0.2 0.299999,0.4 0.400002,0.599999c0.099998,0.2 0.099998,0.3 0.099998,0.3l0,0c0,0 -0.099998,-0.1 -0.299999,-0.2c-0.100002,-0.1 -0.299999,-0.3 -0.400002,-0.6c-0.299999,-0.5 -0.5,-0.9 -0.5,-0.9l0,0z"/>
  <path id="svg_391" fill="#D9C6AE" d="m38.299999,8.4c0,0 0.100002,0 0.100002,0c0.099998,0 0.199997,0.1 0.199997,0.200001c0.100002,0.099999 0.100002,0.2 0.100002,0.2c0,0.099999 0,0.099999 0,0.099999s-0.100002,0 -0.100002,0c-0.099998,0 -0.199997,-0.099999 -0.199997,-0.2c-0.100002,-0.099999 -0.100002,-0.2 -0.100002,-0.2c0,0 0,-0.1 0,-0.1z"/>
  <text transform="matrix(3.29652, 0, 0, 3.77328, -149.351, -249.569)" xml:space="preserve" text-anchor="start" font-family="null" font-size="null" id="svg_392" y="81.557408" x="47.039194" stroke-opacity="null" stroke-width="null" stroke="null" fill="#f9f9c0">D</text>
  <text transform="matrix(2.87832, 0, 0, 3.35242, -216.68, -548.425)" xml:space="preserve" text-anchor="start" font-family="null" font-size="null" id="svg_394" y="180.997863" x="97.869736" fill-opacity="null" stroke-opacity="null" stroke-width="null" stroke="null" fill="#f9f9c0">min</text>
 </g>
</svg>