<?xml version="1.0" encoding="UTF-8" standalone="no"?>
<!DOCTYPE svg PUBLIC "-//W3C//DTD SVG 1.1//EN"
"http://www.w3.org/Graphics/SVG/1.1/DTD/svg11.dtd">


<!-- Page 1 -->
<svg x="0" y="0" width="957" height="431" version="1.1" xmlns="http://www.w3.org/2000/svg" xmlns:xlink="http://www.w3.org/1999/xlink"
style="display: block;margin-left: auto;margin-right: auto;">
<defs>
<clipPath id="c0_1"><path d="M906.1,372l-13.3,-5.3c5.2,-5.8,8.3,-13.7,8.7,-22.5l4.6,0l7.5,3l0,10.3c-1.4,5.6,-3.9,10.5,-7.5,14.5Z" /></clipPath>
<clipPath id="c1_1"><path d="M883.3,383.5L870,378.1c9,0,17.2,-4.3,22.8,-11.4c4,1.6,9.4,3.7,13.3,5.3c-5.6,7.2,-13.8,11.5,-22.8,11.5Z" /></clipPath>
<clipPath id="c2_1"><path d="M906.1,372c-0.6,-0.1,-1.2,-0.3,-1.7,-0.5l-13.3,-5.4c0.5,0.2,1.1,0.4,1.7,0.6l13.3,5.3Z" /></clipPath>
<clipPath id="c3_1"><path d="M902.9,370.9c-3.7,-1.6,-8.3,-3.4,-11.8,-4.8c-1.4,-0.5,-2.4,-1.2,-3.1,-2.1c4.5,1.8,8.9,3.6,13.3,5.3c0.5,0.5,1,1,1.6,1.4l0,0.2Z" /></clipPath>
<clipPath id="c4_1"><path d="M901.3,369.3c-0.4,-0.1,-1.1,-0.4,-1.5,-0.6c-0.5,-0.2,-1.2,-0.4,-1.7,-0.6c-0.5,-0.2,-1.2,-0.5,-1.7,-0.7c-0.5,-0.2,-1.2,-0.5,-1.7,-0.7c-0.5,-0.2,-1.2,-0.5,-1.8,-0.7c-0.5,-0.2,-1.2,-0.5,-1.7,-0.7c-0.5,-0.2,-1.1,-0.5,-1.6,-0.7c-0.5,-0.1,-1.1,-0.4,-1.6,-0.6c-2.8,-3.4,-1.2,-9.1,-7.1,-18.3l0.5,0l12.6,5.1c6.2,9.3,4.5,15.1,7.3,18.5Z" /></clipPath>
<clipPath id="c5_1"><path d="M892.2,350.1l-11.5,-4.7C870,326,857.3,308.1,842.8,292.2l2.2,0c3.3,1.4,6.6,2.7,9.8,4c14.2,15.3,26.8,32.6,37.4,51.3l0,2.6Z" /></clipPath>
<clipPath id="c6_1"><path d="M854,295.8l-12.5,-5c-0.1,-0.1,-0.2,-0.2,-0.4,-0.4c4.3,1.7,8.6,3.5,12.9,5.2l0,0.2Z" /></clipPath>
<clipPath id="c7_1"><path d="M854,295.6c-0.3,-0.1,-0.7,-0.3,-1,-0.4c-0.4,-0.2,-1,-0.4,-1.5,-0.6c-0.5,-0.2,-1.1,-0.5,-1.6,-0.7c-0.4,-0.1,-1.1,-0.4,-1.6,-0.6c-0.4,-0.2,-1.1,-0.4,-1.6,-0.6c-0.4,-0.2,-1.1,-0.5,-1.5,-0.7c-0.5,-0.1,-1.1,-0.4,-1.6,-0.6c-0.4,-0.1,-1,-0.4,-1.4,-0.5c0,-0.1,-0.1,-0.1,-0.1,-0.1c-0.1,0,-0.1,0,-0.1,0c-0.1,-0.1,-0.1,-0.1,-0.2,-0.1c0,0,-0.1,0,-0.1,-0.1c-0.1,0,-0.1,0,-0.2,0c0,0,-0.1,-0.1,-0.1,-0.1c0,0,-0.1,0,-0.1,0c-0.1,0,-0.1,-0.1,-0.2,-0.1c-1.1,-1.3,-2.4,-2.6,-3.9,-4.3l1.7,0l10.7,4.3c1.7,2,3.2,3.5,4.4,4.9l0,0.3Z" /></clipPath>
<clipPath id="c8_1"><path d="M913.5,94.1C909,92.3,904.6,90.5,900.1,88.7c0.4,-0.4,0.8,-0.8,1.2,-1.2l3.3,0l10.5,4.3l0,0.6c-0.5,0.5,-1.1,1.1,-1.6,1.7Z" /></clipPath>
<clipPath id="c9_1"><path d="M795.6,381.3L782.3,376c16.2,-30.6,34.4,-59.4,52.4,-88.3l8,0l6.7,2.7l0,0.2c-18.4,29.8,-37.1,59.3,-53.8,90.7Z" /></clipPath>
<clipPath id="c10_1"><path d="M904.9,104.5c-0.5,-0.2,-1.1,-0.5,-1.6,-0.6c-0.2,-0.1,-0.5,-0.3,-0.8,-0.4c-0.5,-0.2,-1.2,-0.4,-1.7,-0.6c-0.5,-0.2,-1.2,-0.5,-1.7,-0.7c-0.5,-0.2,-1.2,-0.5,-1.7,-0.7c-0.6,-0.2,-1.2,-0.5,-1.8,-0.7c-0.5,-0.2,-1.1,-0.5,-1.6,-0.7c-0.3,-0.1,-0.6,-0.2,-0.9,-0.3c-0.4,-0.2,-1,-0.6,-1.5,-0.7c2.7,-3.7,5.5,-7.2,8.5,-10.4c4.5,1.8,8.9,3.6,13.4,5.4c-3.1,3.1,-5.9,6.6,-8.6,10.4Z" /></clipPath>
<clipPath id="c11_1"><path d="M788.6,382.6c-0.2,0,-0.3,0,-0.4,0l-13.3,-5.4c0.1,0,0.2,0,0.4,0c4.3,0,6.5,-0.4,7,-1.2l13.3,5.3c-0.4,0.8,-2.7,1.3,-7,1.3Z" /></clipPath>
<clipPath id="c12_1"><path d="M879.8,151.6c-4,-1.6,-9.3,-3.7,-13.3,-5.3c7.4,-15.8,15.2,-33.3,25.1,-47.2c4.4,1.8,8.9,3.6,13.3,5.4c-9.9,13.9,-17.7,31.3,-25.1,47.1Z" /></clipPath>
<clipPath id="c13_1"><path d="M913.6,84.5L902.3,79.9c0,-6.1,-1.3,-11.9,-3.7,-17c2.3,0.9,4.6,1.9,6.9,2.8c1.1,0.4,2.3,0.9,3.4,1.4c0.9,0.3,1.8,0.7,2.6,1c0.1,0,0.3,0.2,0.4,0.2c0.7,1.3,1.2,2.8,1.7,4.2l0,12Z" /></clipPath>
<clipPath id="c14_1"><path d="M788.2,382.6c-0.9,-0.1,-1.8,-0.2,-5.8,-0.5l-13.3,-5.4c4,0.4,4.9,0.5,5.8,0.5l13.3,5.4Z" /></clipPath>
<clipPath id="c15_1"><path d="M782.4,382.1c-1.9,-0.1,-3.6,-0.3,-4.6,-0.7l-13.3,-5.3c1,0.4,2.7,0.6,4.6,0.6l13.3,5.4Z" /></clipPath>
<clipPath id="c16_1"><path d="M779.1,376.5l-13.3,-5.3c0.6,-1.4,1.5,-2.6,2.3,-4l13.3,5.3c-0.8,1.4,-1.7,2.6,-2.3,4Z" /></clipPath>
<clipPath id="c17_1"><path d="M777.5,381.3L764.2,376c-0.4,-0.1,-0.7,-0.3,-0.8,-0.5c4.5,1.7,8.9,3.5,13.4,5.3c0.1,0.2,0.3,0.4,0.7,0.5Z" /></clipPath>
<clipPath id="c18_1"><path d="M776.8,380.4c-0.4,-0.2,-1,-0.4,-1.5,-0.6c-0.4,-0.2,-1.1,-0.5,-1.6,-0.6c-0.5,-0.2,-1.1,-0.5,-1.6,-0.7c-0.5,-0.2,-1.2,-0.5,-1.7,-0.7c-0.5,-0.2,-1.2,-0.5,-1.7,-0.7c-0.5,-0.2,-1.1,-0.4,-1.6,-0.6c-0.5,-0.2,-1.1,-0.5,-1.6,-0.7c-0.5,-0.1,-1.1,-0.4,-1.5,-0.6c0,0,-0.1,0,-0.1,0c-0.1,0,-0.1,0,-0.1,0c-0.1,-0.1,-0.1,-0.1,-0.1,-0.1l-0.1,0c0,0,-0.1,0,-0.1,0c0.9,-1.4,1.7,-2.5,2.3,-3.9l13.3,5.3c-0.6,1.4,-1.4,2.6,-2.3,3.9Z" /></clipPath>
<clipPath id="c19_1"><path d="M776.8,380.8c-0.4,-0.1,-0.8,-0.3,-1.2,-0.4c-0.3,-0.2,-0.8,-0.4,-1.1,-0.5c-0.4,-0.2,-0.9,-0.4,-1.3,-0.5c-0.3,-0.2,-0.8,-0.4,-1.2,-0.5c-0.4,-0.2,-0.9,-0.4,-1.2,-0.5c-0.4,-0.2,-0.9,-0.3,-1.3,-0.5c-0.3,-0.1,-0.8,-0.3,-1.1,-0.5c-0.4,-0.1,-0.8,-0.3,-1.1,-0.4c-0.2,-0.1,-0.4,-0.1,-0.5,-0.2c-0.1,0,-0.3,-0.1,-0.5,-0.2c-0.1,0,-0.3,-0.1,-0.5,-0.2c-0.1,0,-0.3,-0.1,-0.5,-0.2c0,0,-0.1,0,-0.2,-0.1c-0.1,0,-0.2,0,-0.2,-0.1c-0.2,0,-0.4,-0.1,-0.5,-0.2c-0.1,0,-0.2,0,-0.3,-0.1c-0.1,0,-0.3,-0.1,-0.4,-0.1c-0.1,-0.1,-0.2,-0.1,-0.3,-0.1c0,-0.1,0,-0.2,0,-0.2l13.3,5.3c0,0.1,0,0.1,0.1,0.2Z" /></clipPath>
<clipPath id="c20_1"><path d="M776.7,380.6l-13.3,-5.3c0,-0.1,0.1,-0.2,0.1,-0.2c4.5,1.7,8.9,3.5,13.3,5.3c0,0.1,0,0.1,-0.1,0.2Z" /></clipPath>
<clipPath id="c21_1"><path d="M844.6,209.3L831.3,204c12,-18.6,23.7,-37.6,34.7,-56.9l2.6,0l9.9,4l0,2.8c-10.8,18.7,-22.2,37.3,-33.9,55.4Z" /></clipPath>
<clipPath id="c22_1"><path d="M781.4,372.5c-1,-0.1,-1.7,-0.3,-2.3,-0.5l-13.3,-5.4c0.5,0.2,1.3,0.4,2.3,0.6l13.3,5.3Z" /></clipPath>
<clipPath id="c23_1"><path d="M779.1,372c-4,-1.6,-9.3,-3.8,-13.3,-5.4c-0.5,-0.2,-0.9,-0.4,-1,-0.6l13.3,5.3c0.2,0.2,0.5,0.5,1,0.7Z" /></clipPath>
<clipPath id="c24_1"><path d="M778.1,371.3c-2,-0.1,-3.9,-0.4,-5,-0.9l-13.3,-5.3c1.1,0.5,3,0.7,5,0.9l13.3,5.3Z" /></clipPath>
<clipPath id="c25_1"><path d="M772.8,370.4l-13.3,-5.3c-0.4,-0.2,-0.6,-0.3,-0.8,-0.5c4.5,1.8,8.9,3.6,13.3,5.3c0.2,0.2,0.4,0.4,0.8,0.5Z" /></clipPath>
<clipPath id="c26_1"><path d="M772,369.4c-0.4,-0.2,-1,-0.4,-1.5,-0.6c-0.4,-0.2,-1.1,-0.4,-1.6,-0.6c-0.5,-0.2,-1.1,-0.5,-1.6,-0.7c-0.5,-0.2,-1.2,-0.5,-1.7,-0.7c-0.5,-0.2,-1.2,-0.4,-1.7,-0.7c-0.5,-0.2,-1.2,-0.4,-1.7,-0.6c-0.5,-0.2,-1.1,-0.5,-1.6,-0.7c-0.4,-0.1,-1,-0.4,-1.5,-0.6c-0.1,0,-0.1,0,-0.1,0c0,0,-0.1,0,-0.1,0c0,0,0,-0.1,0,-0.1c0,0,-0.1,0,-0.1,0l-0.1,0c1.1,-1.8,2.1,-3.4,2.9,-5l13.3,5.3c-0.8,1.6,-1.8,3.2,-2.9,5Z" /></clipPath>
<clipPath id="c27_1"><path d="M772,369.9c-0.3,-0.1,-0.7,-0.2,-1,-0.4c-0.3,-0.1,-0.7,-0.3,-1,-0.4c-0.4,-0.1,-0.8,-0.3,-1.1,-0.4c-0.4,-0.2,-0.8,-0.3,-1.1,-0.5c-0.4,-0.1,-0.8,-0.3,-1.2,-0.4c-0.3,-0.2,-0.7,-0.3,-1.1,-0.5c-0.3,-0.1,-0.7,-0.3,-1,-0.4c-0.3,-0.1,-0.7,-0.3,-1,-0.4c-0.2,-0.1,-0.4,-0.1,-0.6,-0.2c-0.2,-0.1,-0.4,-0.2,-0.6,-0.2c-0.2,-0.1,-0.4,-0.2,-0.6,-0.3c-0.2,-0.1,-0.4,-0.2,-0.6,-0.2c-0.2,-0.1,-0.4,-0.2,-0.6,-0.3c-0.1,0,-0.2,-0.1,-0.3,-0.1c-0.1,0,-0.2,-0.1,-0.3,-0.1c-0.1,-0.1,-0.2,-0.1,-0.3,-0.2c-0.2,0,-0.4,-0.1,-0.6,-0.2c-0.1,0,-0.2,0,-0.3,-0.1c-0.1,-0.1,-0.1,-0.2,-0.1,-0.3l13.3,5.4c0,0.1,0.1,0.2,0.1,0.2Z" /></clipPath>
<clipPath id="c28_1"><path d="M771.9,369.7l-13.3,-5.4c0,-0.1,0.1,-0.1,0.1,-0.2c4.5,1.8,8.9,3.5,13.3,5.3c0,0.1,-0.1,0.2,-0.1,0.3Z" /></clipPath>
<clipPath id="c29_1"><path d="M774.6,364.3l-13.3,-5.4c-0.3,-0.1,-0.5,-0.2,-0.7,-0.4c4.5,1.8,8.9,3.6,13.3,5.4c0.2,0.1,0.4,0.3,0.7,0.4Z" /></clipPath>
<clipPath id="c30_1"><path d="M773.9,363.9c-2.4,-1,-4.9,-2,-7.3,-3c-1,-0.4,-2,-0.8,-3,-1.2c-0.2,-0.1,-0.5,-0.2,-0.8,-0.3c-0.2,-0.1,-0.5,-0.2,-0.7,-0.3c-0.3,-0.1,-0.5,-0.2,-0.8,-0.3c-0.1,0,-0.2,-0.1,-0.3,-0.1c-0.1,-0.1,-0.3,-0.1,-0.4,-0.2c-0.1,-0.1,-0.2,-0.3,-0.2,-0.4l13.4,5.3c0,0.2,0,0.3,0.1,0.5Z" /></clipPath>
<clipPath id="c31_1"><path d="M774.7,361.5c-0.1,0,-0.3,-0.1,-0.5,-0.2c0.2,0.1,0.4,0.2,0.5,0.2Zm-2.5,-1c-0.2,-0.1,-0.4,-0.2,-0.7,-0.2c-0.4,-0.2,-1,-0.5,-1.5,-0.7c0.7,0.3,1.5,0.6,2.2,0.9Zm-2.5,-1c-0.5,-0.2,-1.1,-0.4,-1.6,-0.6c-0.3,-0.1,-0.7,-0.3,-1,-0.4c0.9,0.3,1.8,0.7,2.6,1Zm-3.2,-1.3c-0.1,0,-0.1,0,-0.1,0c-0.6,-0.2,-1.2,-0.5,-1.8,-0.7c-0.4,-0.2,-1.1,-0.5,-1.6,-0.7c-0.5,-0.2,-1.1,-0.4,-1.6,-0.6c1.7,0.7,3.4,1.3,5.1,2Zm7.3,5.2c-4,-1.6,-9.4,-3.7,-13.4,-5.3c0.4,-1,0.6,-1.4,1,-1.9l13.3,5.3c-0.4,0.5,-0.6,1,-0.9,1.9Z" /></clipPath>
<clipPath id="c32_1"><path d="M774.7,361.5c-1.3,-0.1,-2.4,-0.3,-3.2,-0.6l-13.3,-5.3c0.8,0.3,1.9,0.5,3.2,0.6l13.3,5.3Z" /></clipPath>
<clipPath id="c33_1"><path d="M774.6,350.4L763,345.7l5.5,0l6.1,2.4l0,2.3Z" /></clipPath>
<clipPath id="c34_1"><path d="M911.9,68.3c-0.1,-0.1,-0.3,-0.2,-0.4,-0.2c-0.2,-0.1,-0.6,-0.2,-0.8,-0.3c-0.3,-0.1,-0.6,-0.3,-0.9,-0.4c-0.2,-0.1,-0.6,-0.2,-0.9,-0.3c-0.2,-0.1,-0.6,-0.3,-0.8,-0.4c-0.3,-0.1,-0.7,-0.2,-0.9,-0.3c-0.3,-0.1,-0.6,-0.3,-0.9,-0.4c-0.2,-0.1,-0.6,-0.2,-0.8,-0.3c-0.2,-0.1,-0.6,-0.2,-0.8,-0.3c-0.2,-0.1,-0.5,-0.2,-0.8,-0.3c-0.2,-0.1,-0.5,-0.3,-0.8,-0.4c-0.2,-0.1,-0.6,-0.2,-0.8,-0.3c-0.3,-0.1,-0.6,-0.2,-0.9,-0.3c-0.2,-0.1,-0.6,-0.3,-0.8,-0.4c-0.1,0,-0.3,-0.1,-0.4,-0.1c-0.2,-0.1,-0.3,-0.2,-0.4,-0.2c-0.2,-0.1,-0.3,-0.1,-0.4,-0.2c-0.3,-0.1,-0.6,-0.1,-0.8,-0.3C895.5,56.4,890.7,51.1,884.9,47.8l0.6,0l9.3,3.7c7.3,3,13.5,9,17.1,16.8Z" /></clipPath>
<clipPath id="c35_1"><path d="M774.6,348.3l-6.4,-2.6l0.3,0l6.1,2.4l0,0.2Z" /></clipPath>
<clipPath id="c36_1"><path d="M770,360.4l-12.1,-4.9c-0.4,-0.2,-0.7,-0.3,-0.9,-0.6c4.4,1.8,8.7,3.5,13,5.2l0,0.3Z" /></clipPath>
<clipPath id="c37_1"><path d="M770.4,359.7c-0.5,-0.2,-1.1,-0.5,-1.5,-0.6c-0.5,-0.2,-1.1,-0.5,-1.6,-0.7c-0.5,-0.2,-1.2,-0.4,-1.7,-0.6c-0.5,-0.2,-1.1,-0.5,-1.7,-0.7c-0.5,-0.2,-1.1,-0.5,-1.6,-0.7c-0.5,-0.2,-1.2,-0.5,-1.7,-0.7c-0.5,-0.1,-1.1,-0.4,-1.6,-0.6c-0.4,-0.2,-1,-0.4,-1.5,-0.6c-0.1,0,-0.1,0,-0.1,0c0,0,0,-0.1,-0.1,-0.1l-0.1,0c0,0,-0.1,0,-0.1,0c0,-0.1,0,-0.1,0,-0.1c1.4,-2.4,2.8,-4.8,4.1,-7.1l5.6,0l7.8,3.2l0,2.1c-1.4,2.3,-2.8,4.7,-4.2,7.2Z" /></clipPath>
<clipPath id="c38_1"><path d="M770,360.1c-0.2,0,-0.4,-0.1,-0.5,-0.2c-0.3,-0.1,-0.7,-0.2,-1,-0.3c-0.2,-0.2,-0.6,-0.3,-0.9,-0.4c-0.3,-0.1,-0.7,-0.3,-1,-0.4c-0.3,-0.1,-0.7,-0.3,-1,-0.4c-0.3,-0.1,-0.6,-0.3,-0.9,-0.4c-0.3,-0.1,-0.7,-0.3,-1,-0.4c-0.2,-0.1,-0.6,-0.2,-0.8,-0.3c-0.2,-0.1,-0.5,-0.2,-0.7,-0.3c-0.2,-0.1,-0.5,-0.2,-0.7,-0.3c-0.5,-0.2,-1,-0.4,-1.5,-0.6c-0.3,-0.1,-0.6,-0.2,-0.8,-0.3c-0.2,-0.1,-0.5,-0.2,-0.8,-0.3c-0.2,-0.1,-0.5,-0.2,-0.7,-0.3c-0.2,-0.1,-0.5,-0.2,-0.7,-0.3l0.6,0l12.4,5l0,0.2Z" /></clipPath>
<clipPath id="c39_1"><path d="M770.2,360l-13.3,-5.4c0.1,-0.1,0.1,-0.2,0.2,-0.3c4.4,1.8,8.9,3.6,13.3,5.4c-0.1,0.1,-0.1,0.2,-0.2,0.3Z" /></clipPath>
<clipPath id="c40_1"><path d="M773.1,347.7L761.2,343c-0.2,-0.1,-0.4,-0.2,-0.6,-0.3l0.1,0c4.1,1.6,8.2,3.3,12.4,4.9l0,0.1Z" /></clipPath>
<clipPath id="c41_1"><path d="M773.1,347.1l-13.2,-5.3c0.1,-0.2,0.2,-0.5,0.3,-0.7l4.4,0c1,0.5,2.1,0.9,3.1,1.3c1.2,0.5,2.3,0.9,3.5,1.4c0.6,0.2,1.2,0.5,1.9,0.7l0,2.6Z" /></clipPath>
<clipPath id="c42_1"><path d="M773.1,347.6c-0.2,0,-0.4,-0.1,-0.5,-0.2c-0.2,0,-0.4,-0.1,-0.6,-0.2c-0.2,-0.1,-0.4,-0.2,-0.6,-0.2c-0.2,-0.1,-0.4,-0.2,-0.6,-0.3l-0.6,-0.2c-0.2,-0.1,-0.4,-0.2,-0.6,-0.3c-0.1,0,-0.4,-0.1,-0.5,-0.2c-0.3,-0.1,-0.7,-0.3,-1,-0.4c-0.4,-0.1,-0.8,-0.3,-1.1,-0.4c-0.4,-0.1,-0.8,-0.3,-1.1,-0.5c-0.4,-0.1,-0.8,-0.3,-1.2,-0.4c-0.3,-0.2,-0.8,-0.3,-1.1,-0.5c-0.3,-0.1,-0.8,-0.3,-1.1,-0.4c-0.4,-0.1,-0.8,-0.3,-1.1,-0.4c-0.2,-0.1,-0.5,-0.2,-0.7,-0.3l1.3,0l11.1,4.4l0,0.5Z" /></clipPath>
<clipPath id="c43_1"><path d="M773.1,344.9c-0.4,-0.1,-0.8,-0.2,-1.1,-0.3l-8.6,-3.5l1.2,0l8.5,3.4l0,0.4Z" /></clipPath>
<clipPath id="c44_1"><path d="M770,343.8l-10.5,-4.2l0.6,0c3.3,1.3,6.6,2.7,9.9,4l0,0.2Z" /></clipPath>
<clipPath id="c45_1"><path d="M770,342.5c-0.2,-0.1,-0.4,-0.2,-0.6,-0.3c-0.5,-0.2,-1.1,-0.4,-1.6,-0.6c-0.5,-0.2,-1.1,-0.5,-1.6,-0.7c-0.5,-0.2,-1.2,-0.4,-1.7,-0.6c-0.5,-0.2,-1.1,-0.5,-1.6,-0.7c-0.5,-0.2,-1.2,-0.4,-1.7,-0.6c-0.4,-0.2,-1.1,-0.5,-1.5,-0.7c-0.5,-0.1,-1.1,-0.4,-1.5,-0.6c0,0,-0.1,0,-0.1,0l-0.1,0c-0.1,-0.1,-0.1,-0.1,-0.1,-0.1c0,0,-0.1,0,-0.1,0c0,0,-0.1,0,-0.1,0c0,-0.1,0,-0.1,-0.1,-0.1c0.1,-0.4,0.3,-0.7,0.4,-0.9l4.9,0l7.1,2.8l0,3.1Z" /></clipPath>
<clipPath id="c46_1"><path d="M770,343.2l-12.7,-5.1c0.1,-0.2,0.2,-0.4,0.3,-0.6c4.1,1.7,8.3,3.3,12.4,5l0,0.7Z" /></clipPath>
<clipPath id="c47_1"><path d="M770,343.6c-3.3,-1.3,-6.6,-2.7,-9.9,-4l1,0l8.9,3.6l0,0.4Z" /></clipPath>
<clipPath id="c48_1"><path d="M771.5,340l-8.6,-3.4l8.6,3.4Z" /></clipPath>
<clipPath id="c49_1"><path d="M770.3,338.3c-0.5,-0.2,-1.1,-0.4,-1.5,-0.6c-0.5,-0.2,-1.2,-0.5,-1.6,-0.7c-0.5,-0.2,-1.2,-0.4,-1.7,-0.6c-0.5,-0.2,-1.2,-0.5,-1.7,-0.7c-0.5,-0.2,-1.2,-0.5,-1.7,-0.7c-0.5,-0.2,-1.1,-0.4,-1.6,-0.6c-0.5,-0.2,-1.1,-0.5,-1.6,-0.7c-0.5,-0.2,-1.1,-0.4,-1.5,-0.6l-0.1,0c0,0,-0.1,0,-0.1,0c0,-0.1,0,-0.1,0,-0.1c-0.1,0,-0.1,0,-0.1,0c-0.1,0,-0.1,0,-0.1,0c0,0,0,-0.1,-0.1,-0.1c1.1,-2,2.2,-3.8,3.3,-5.5l6.8,0l6.1,2.4l0,3.7c-1,1.5,-1.9,3,-2.8,4.8Z" /></clipPath>
<clipPath id="c50_1"><path d="M773.1,330l-6.5,-2.6l0.4,0l6.1,2.4l0,0.2Z" /></clipPath>
<clipPath id="c51_1"><path d="M770,339.4L759.1,335l1.3,0c3.2,1.3,6.4,2.6,9.6,3.9l0,0.5Z" /></clipPath>
<clipPath id="c52_1"><path d="M770,338.9c-0.2,-0.1,-0.4,-0.2,-0.5,-0.2c-0.2,-0.1,-0.5,-0.2,-0.8,-0.3c-0.2,-0.1,-0.5,-0.2,-0.8,-0.3c-0.2,-0.1,-0.5,-0.3,-0.8,-0.4c-0.5,-0.2,-1,-0.4,-1.5,-0.6c-0.3,-0.1,-0.6,-0.2,-0.8,-0.3c-0.2,-0.1,-0.5,-0.2,-0.7,-0.3c-0.3,-0.1,-0.6,-0.2,-0.8,-0.3c-0.3,-0.1,-0.7,-0.3,-0.9,-0.4c-0.3,-0.1,-0.7,-0.2,-1,-0.4c-0.2,-0.1,-0.6,-0.2,-0.9,-0.3c0,0,-0.1,-0.1,-0.1,-0.1l0.8,0l8.8,3.5l0,0.4Z" /></clipPath>
<clipPath id="c53_1"><path d="M770.1,338.6l-13.3,-5.4c0,-0.1,0.1,-0.2,0.1,-0.3c4.5,1.8,8.9,3.6,13.4,5.4c-0.1,0.1,-0.2,0.2,-0.2,0.3Z" /></clipPath>
<clipPath id="c54_1"><path d="M771.5,329.4l-11.3,-4.6c-0.3,-0.1,-0.6,-0.3,-0.8,-0.5l0.3,0c4,1.6,7.9,3.2,11.8,4.8l0,0.3Z" /></clipPath>
<clipPath id="c55_1"><path d="M772.6,328.4c-0.9,-0.3,-1.9,-0.7,-2.9,-1.1c-0.4,-0.2,-1,-0.4,-1.5,-0.6c-0.5,-0.2,-1.1,-0.5,-1.5,-0.7c-0.5,-0.1,-1.1,-0.4,-1.6,-0.6c-0.5,-0.2,-1.1,-0.4,-1.5,-0.6c-0.5,-0.2,-1.1,-0.4,-1.5,-0.6c-0.4,-0.2,-1,-0.4,-1.4,-0.5c-0.1,-0.1,-0.1,-0.1,-0.2,-0.1c0,0,-0.1,-0.1,-0.1,-0.1c-0.1,0,-0.2,0,-0.2,0c-0.1,-0.1,-0.1,-0.1,-0.2,-0.1c-0.1,0,-0.1,-0.1,-0.2,-0.1c0,0,-0.1,0,-0.2,-0.1c0,0,-0.1,0,-0.1,0c-0.1,-0.1,-0.1,-0.1,-0.2,-0.1c0.3,-0.7,0.7,-1.3,1,-1.8l5.6,0l7.2,2.8l0,3.5c-0.2,0.2,-0.3,0.5,-0.5,0.8Z" /></clipPath>
<clipPath id="c56_1"><path d="M772.4,329l-13.3,-5.4c0,-0.1,0.1,-0.3,0.2,-0.5c4.4,1.8,8.9,3.6,13.3,5.3c-0.1,0.2,-0.2,0.4,-0.2,0.6Z" /></clipPath>
<clipPath id="c57_1"><path d="M771.5,329.1C771.4,329,771.4,329,771.3,329c-0.2,-0.1,-0.5,-0.2,-0.7,-0.3c-0.2,-0.1,-0.4,-0.2,-0.6,-0.3c-0.2,0,-0.5,-0.2,-0.7,-0.2c-0.2,-0.1,-0.5,-0.2,-0.7,-0.3c-0.2,-0.1,-0.4,-0.2,-0.6,-0.3c-0.2,0,-0.4,-0.1,-0.6,-0.2c-0.3,-0.1,-0.7,-0.3,-1,-0.4c-0.3,-0.1,-0.7,-0.3,-1,-0.4c-0.3,-0.1,-0.7,-0.3,-1,-0.4c-0.4,-0.1,-0.8,-0.3,-1.1,-0.4c-0.3,-0.2,-0.8,-0.3,-1.1,-0.5c-0.3,-0.1,-0.7,-0.3,-1,-0.4c-0.2,0,-0.4,-0.1,-0.5,-0.2c-0.3,-0.1,-0.7,-0.3,-1,-0.4l1.1,0l10.7,4.3l0,0.5Z" /></clipPath>
<clipPath id="c58_1"><path d="M893.8,51.1c-3,-1.1,-6.2,-1.6,-9.5,-1.6l-8,-3.2l5.4,0l12.1,4.8Z" /></clipPath>
<clipPath id="c59_1"><path d="M773.1,324.1l-11,-4.4l1.6,0c3.1,1.3,6.2,2.6,9.4,3.8l0,0.6Z" /></clipPath>
<clipPath id="c60_1"><path d="M773.9,323.5c-0.3,-0.1,-0.8,-0.3,-1.2,-0.5c0.4,0.2,0.8,0.4,1.2,0.5Zm-5.5,-2.2c-0.4,-0.1,-0.8,-0.3,-1.1,-0.4c-0.5,-0.2,-1.2,-0.5,-1.7,-0.7c-0.5,-0.2,-1.2,-0.5,-1.7,-0.7c-0.5,-0.2,-1.2,-0.5,-1.7,-0.7c-0.4,-0.1,-1.1,-0.4,-1.5,-0.6c2.6,1.1,5.1,2.1,7.7,3.1Zm5.4,2.4c-4,-1.6,-9.3,-3.7,-13.3,-5.3c13.1,-23.4,26.9,-45.5,41,-67.4l5.3,0l7.5,3l0,3.2c-13.9,21.5,-27.4,43.3,-40.4,66.3c0,0.1,0,0.2,-0.1,0.2Z" /></clipPath>
<clipPath id="c61_1"><path d="M773.1,323.5c-3.2,-1.2,-6.3,-2.5,-9.4,-3.8l0.3,0l9.1,3.7l0,0.1Z" /></clipPath>
<clipPath id="c62_1"><path d="M901.4,28.8c-5.4,-2,-11.1,-3.2,-17.1,-3.2l-9.4,-3.8l8.1,0c1.8,0.5,3.6,1.1,5.4,1.8l13,5.2Z" /></clipPath>
<clipPath id="c63_1"><path d="M814.3,254l-11.7,-4.7C790.6,235.1,780,219.5,776,205.2l4.3,0l8.5,3.4c3.4,14.2,13.7,29.8,25.5,44.1l0,1.3Z" /></clipPath>
<clipPath id="c64_1"><path d="M843.3,208.8l-12,-4.8C818,183.4,805,163.1,792.2,142.5l1.1,0l11.8,4.8c12.6,20.1,25.3,40,38.2,60.1l0,1.4Z" /></clipPath>
<clipPath id="c65_1"><path d="M803.6,146.7l-10.3,-4.2l4.2,0l6.1,2.5l0,1.7Z" /></clipPath>
<clipPath id="c66_1"><path d="M802.1,144.4L793.6,141l0.1,0l8.4,3.4Z" /></clipPath>
<clipPath id="c67_1"><path d="M802.1,144.4l-11.5,-4.6c-0.2,-0.6,-0.4,-1.2,-0.7,-1.9l3.7,0l8.5,3.4l0,3.1Z" /></clipPath>
<clipPath id="c68_1"><path d="M788.3,208.4l-12.8,-5.1C772.1,196,770.1,189,770.1,182.6c0,-1.2,0,-2.3,0.2,-3.4l5.1,0l8.5,3.4c-0.3,1.7,-0.5,3.5,-0.5,5.3c0,6.1,1.8,12.7,4.9,19.6l0,0.9Z" /></clipPath>
<clipPath id="c69_1"><path d="M800.6,139.7c-2.5,-1,-5.5,-2.2,-8.3,-3.3l0.5,0l7.8,3.1l0,0.2Z" /></clipPath>
<clipPath id="c70_1"><path d="M782.2,181.9l-10.6,-4.2l4.3,0l6.3,2.5l0,1.7Z" /></clipPath>
<clipPath id="c71_1"><path d="M802.1,141.3l-12.7,-5.1c-0.5,-0.5,-0.9,-0.9,-1.2,-1.3l4.8,0l7.2,2.8c0.1,0.7,0.3,1.3,1.9,3.2l0,0.4Z" /></clipPath>
<clipPath id="c72_1"><path d="M799,132.8l-6.2,-2.5l0.3,0l5.9,2.4l0,0.1Z" /></clipPath>
<clipPath id="c73_1"><path d="M799,130.8l-8.7,-3.6l0.3,0l8.4,3.4l0,0.2Z" /></clipPath>
<clipPath id="c74_1"><path d="M796.6,134.2c-0.1,-0.1,-0.2,-0.1,-0.3,-0.1c-0.1,-0.1,-0.3,-0.2,-0.5,-0.2c0.3,0.1,0.5,0.2,0.8,0.3Zm-5.8,-2.3c-0.2,-0.1,-0.6,-0.3,-0.8,-0.4c0.2,0.1,0.5,0.2,0.8,0.4Zm-1.7,-0.7c-0.4,-0.2,-0.9,-0.4,-1.3,-0.6c-0.5,-0.1,-1.1,-0.4,-1.6,-0.6c1,0.4,1.9,0.8,2.9,1.2Zm9.9,4c-3.9,-1.6,-9,-3.6,-12.8,-5.2c0.2,-1,0.4,-1.8,0.6,-2.8l3.5,0l8.7,3.6l0,4.3c-0.3,-0.1,-0.7,-0.2,-1,-0.4c-0.2,-0.1,-0.5,-0.1,-0.7,-0.2c0.6,0.2,1.1,0.4,1.7,0.6l0,0.1Z" /></clipPath>
<clipPath id="c75_1"><path d="M797.5,134.5c-3.1,-1.3,-7,-2.8,-10.4,-4.2l0.3,0l10.1,4l0,0.2Z" /></clipPath>
<clipPath id="c76_1"><path d="M796,136l-12.5,-5c0.1,-0.3,0.2,-0.5,0.3,-0.7l3.3,0l8.9,3.5l0,2.2Z" /></clipPath>
<clipPath id="c77_1"><path d="M783.5,167.3l-12.3,-4.9l5.6,0c0.7,0.3,1.4,0.6,2.1,0.8c2.2,0.9,4.3,1.7,6.4,2.6l0,0.2c-0.9,0.2,-1.6,0.7,-1.8,1.3Z" /></clipPath>
<clipPath id="c78_1"><path d="M780.7,179.6l-10.5,-4.2c-1.3,-2.3,-1.9,-4.6,-1.9,-6.8c0,-2.1,0.6,-4.2,1.7,-6.2l1.2,0c3.1,1.3,6.3,2.5,9.5,3.8l0,13.4Z" /></clipPath>
<clipPath id="c79_1"><path d="M794.4,133.7l-11.8,-4.8c-0.1,0,-0.1,0,-0.2,-0.1l2.9,0l9.1,3.7l0,1.2Z" /></clipPath>
<clipPath id="c80_1"><path d="M783.8,165.2l-11.5,-4.6c-0.6,-1.9,-1.1,-3.9,-1.4,-5.9l5.5,0l7.4,3l0,7.5Z" /></clipPath>
<clipPath id="c81_1"><path d="M794.4,130c-3.8,-1.6,-8.7,-3.5,-12.4,-5c0.1,-0.3,0.1,-0.5,0.2,-0.8l8,0l4.2,1.7l0,4.1Z" /></clipPath>
<clipPath id="c82_1"><path d="M796,126.5l-9.7,-3.8l2,0l7.7,3.1l0,0.7Z" /></clipPath>
<clipPath id="c83_1"><path d="M792.9,129.4L782,125c0.2,-0.7,0.2,-1.5,0.2,-2.3l5.5,0l5.2,2.1l0,4.6Z" /></clipPath>
<clipPath id="c84_1"><path d="M794.4,125.4l-10.5,-4.3l4.7,0l5.8,2.4l0,1.9Z" /></clipPath>
<clipPath id="c85_1"><path d="M792.9,123.1c-0.1,-0.1,-0.2,-0.1,-0.3,-0.2c-0.5,-0.2,-1.1,-0.4,-1.6,-0.6c-0.5,-0.2,-1.1,-0.4,-1.6,-0.6c-0.5,-0.2,-1.1,-0.5,-1.6,-0.7c-0.5,-0.2,-1.1,-0.4,-1.6,-0.6c-0.5,-0.2,-1.1,-0.5,-1.6,-0.7c-0.1,0,-0.2,0,-0.3,-0.1l0.3,0l8.3,3.4l0,0.1Z" /></clipPath>
<clipPath id="c86_1"><path d="M792.9,123.3l-9.3,-3.7l0.7,0c2.9,1.2,5.7,2.3,8.6,3.5l0,0.2Z" /></clipPath>
<clipPath id="c87_1"><path d="M782.2,157.1l-11.6,-4.7c-0.4,-2.4,-0.7,-4.7,-0.7,-7c0,-1.5,0.1,-2.9,0.4,-4.4l2.5,0c3.2,1.3,6.3,2.5,9.4,3.8l0,12.3Z" /></clipPath>
<clipPath id="c88_1"><path d="M783.8,145.4l-13.3,-5.3c0,-0.3,0.2,-0.5,0.4,-0.6l4.2,0c0.4,0.1,0.8,0.3,1.1,0.4c1.1,0.5,2.3,0.9,3.4,1.4c1.9,0.7,3.8,1.5,5.7,2.2l0,0.7c-0.8,0.3,-1.4,0.7,-1.5,1.2Z" /></clipPath>
<clipPath id="c89_1"><path d="M783.8,142.9c-3.6,-1.4,-7.6,-3,-10.8,-4.3c-0.1,-1.7,-0.2,-3.4,-0.2,-5c3.6,1.4,7.3,2.9,11,4.4l0,4.9Z" /></clipPath>
<clipPath id="c90_1"><path d="M791,128.7c-4,-1.6,-9.4,-3.8,-13.3,-5.4c0.1,-0.6,0.1,-1.3,0.3,-2.2l3.7,0l9.7,3.9l0,1c-0.2,1.1,-0.3,1.9,-0.4,2.7Z" /></clipPath>
<clipPath id="c91_1"><path d="M791.4,125l-13.1,-5.2c0,-0.1,0,-0.1,0,-0.2l5.3,0l7.8,3.1l0,2.3Z" /></clipPath>
<clipPath id="c92_1"><path d="M786.8,134.1c-0.2,0,-0.4,-0.1,-0.6,-0.2c-0.5,-0.2,-1.1,-0.4,-1.5,-0.6c-0.5,-0.2,-1.1,-0.4,-1.6,-0.6c-0.5,-0.2,-1.1,-0.5,-1.6,-0.7c-0.5,-0.2,-1.1,-0.4,-1.6,-0.6c-0.5,-0.2,-1.1,-0.5,-1.6,-0.7c-0.3,-0.1,-0.7,-0.2,-1.1,-0.4l0.4,0l9.2,3.7l0,0.1Z" /></clipPath>
<clipPath id="c93_1"><path d="M783.8,138c-0.4,-0.2,-0.7,-0.3,-0.9,-0.4c-0.5,-0.2,-1.2,-0.5,-1.7,-0.7c-0.6,-0.2,-1.3,-0.5,-1.8,-0.7c-0.5,-0.2,-1.2,-0.5,-1.7,-0.7c-0.5,-0.2,-1.2,-0.4,-1.7,-0.6c-0.5,-0.2,-1.2,-0.5,-1.7,-0.7c-0.4,-0.2,-1.1,-0.4,-1.5,-0.6c0,-0.6,0,-1.2,0,-1.8l4.1,0l6.9,2.8l0,3.4Z" /></clipPath>
<clipPath id="c94_1"><path d="M785.3,135.2l-12.2,-4.9l4.1,0c2.7,1.1,5.4,2.2,8.1,3.2l0,1.7Z" /></clipPath>
<clipPath id="c95_1"><path d="M785.3,133.4l-10.8,-4.3c0,-1.3,0,-2.4,0.1,-3.4l1.9,0c4.1,1.7,5.2,2.1,8.8,3.6l0,4.1Z" /></clipPath>
<clipPath id="c96_1"><path d="M788,130.4c-3.4,-1.4,-7.8,-3.2,-11.5,-4.7l7.1,0l6.3,2.5l0,0.7c-1.1,0.3,-1.9,0.7,-1.9,1.5Z" /></clipPath>
<clipPath id="c97_1"><path d="M713.6,271.1l-13.3,-5.3c24.7,0,44.7,-18.4,44.8,-41.1c0,-14.7,-8.5,-27.6,-21.4,-34.8l1,0l7,2.8c13.6,5.4,23.6,16.9,26.1,30.6l0,13.3c-3.5,19.6,-21.9,34.5,-44.2,34.5Z" /></clipPath>
<clipPath id="c98_1"><path d="M711.9,271.1c-5.7,-0.2,-11.2,-1.4,-16.2,-3.4l-7.4,-3l2,0c3.2,0.7,6.5,1.1,10,1.1l11.6,4.6l0,0.7Z" /></clipPath>
<clipPath id="c99_1"><path d="M730.3,192.1c-5.1,-1.8,-10.6,-2.8,-16.5,-2.8c-2.9,-1.2,-6.6,-2.7,-9.9,-4l8.1,0c2.2,0.5,4.3,1.2,6.4,2l11.9,4.8Z" /></clipPath>
<clipPath id="c100_1"><path d="M695.1,267.5c-3.9,-1.6,-8.9,-3.6,-12.7,-5.1c-7.9,-3.2,-14.5,-8.3,-19.2,-14.7c4.4,1.8,8.8,3.5,13.3,5.3c4.6,6.3,11,11.3,18.6,14.5Z" /></clipPath>
<clipPath id="c101_1"><path d="M686.8,197.5c-0.3,-0.1,-0.8,-0.3,-1.1,-0.4c-0.4,-0.2,-0.9,-0.4,-1.2,-0.5c-0.4,-0.1,-0.9,-0.3,-1.3,-0.5c-0.4,-0.1,-0.9,-0.4,-1.2,-0.5c-0.4,-0.2,-0.9,-0.4,-1.3,-0.5c-0.4,-0.2,-0.9,-0.4,-1.3,-0.5c-0.3,-0.2,-0.8,-0.3,-1.2,-0.5c-0.3,-0.1,-0.7,-0.3,-1.1,-0.4c-0.1,-0.1,-0.3,-0.2,-0.4,-0.2c-0.1,-0.1,-0.3,-0.1,-0.5,-0.2c-0.1,0,-0.3,-0.1,-0.4,-0.2c-0.2,0,-0.4,-0.1,-0.5,-0.2c-0.1,0,-0.3,-0.1,-0.5,-0.2c-0.1,0,-0.3,-0.1,-0.4,-0.1c-0.2,-0.1,-0.3,-0.2,-0.5,-0.2c-0.1,-0.1,-0.3,-0.1,-0.4,-0.2c4.6,-3.1,9.8,-5.5,15.5,-6.9l14.9,0l9.6,3.8l0,0.2c-10,0.1,-19.3,3.1,-26.7,8.2Z" /></clipPath>
<clipPath id="c102_1"><path d="M676.5,253c-0.5,-0.2,-1.1,-0.4,-1.6,-0.6c-0.5,-0.2,-1.1,-0.5,-1.6,-0.7c-0.6,-0.2,-1.2,-0.4,-1.8,-0.6c-0.5,-0.3,-1.2,-0.5,-1.7,-0.7c-0.5,-0.3,-1.2,-0.5,-1.7,-0.7c-0.5,-0.2,-1.2,-0.5,-1.7,-0.7c-0.5,-0.2,-1.2,-0.5,-1.7,-0.7c-0.5,-0.2,-1.1,-0.4,-1.5,-0.6c-4.9,-6.6,-7.7,-14.5,-7.7,-23c0.1,-13.2,7.1,-25,18,-32.5c4.4,1.8,8.9,3.6,13.3,5.3c-10.9,7.5,-17.9,19.3,-17.9,32.6c-0.1,8.5,2.7,16.4,7.6,22.9Z" /></clipPath>
<clipPath id="c103_1"><path d="M252.1,267.9c-4.1,-0.2,-8,-1.1,-11.6,-2.5l-9.1,-3.7l1.1,0c2.7,0.6,5.5,1,8.5,1l11.1,4.4l0,0.8Z" /></clipPath>
<clipPath id="c104_1"><path d="M254.3,268L241,262.7c20.5,0,37.3,-17,37.4,-38c0.1,-14.4,-8,-27,-19.8,-33.3l0.6,0l9,3.6c10.6,4.3,18.9,13.4,22.1,24.6l0,20.8c-4.5,16,-19,27.6,-36,27.6Z" /></clipPath>
<clipPath id="c105_1"><path d="M265.8,194.2c-3.5,-1.2,-7.3,-1.8,-11.3,-1.8c-3,-1.2,-6.7,-2.7,-10,-4l6.5,0c1.3,0.3,2.6,0.8,3.8,1.3l11,4.4l0,0.1Z" /></clipPath>
<clipPath id="c106_1"><path d="M240.6,265.4c-0.1,0,-0.1,0,-0.1,0l0.1,0Zm-0.1,0L227.3,260c-13.9,-5.5,-23.6,-19.2,-23.5,-35.3c0,-17.3,11.6,-32,27.6,-36.3l13.1,0l9.1,3.6l0,0.4c-20.3,0.5,-36.5,17.2,-36.5,37.7c-0.1,16,9.6,29.7,23.4,35.3Z" /></clipPath>
<clipPath id="c107_1"><path d="M74.9,383.5c-3.7,0,-7.2,-0.7,-10.5,-2L51.1,376.1c3.3,1.3,6.8,2,10.5,2l13.3,5.4Z" /></clipPath>
<clipPath id="c108_1"><path d="M64.4,381.5L51.1,376.1C38.9,371.2,30.2,358,30.3,342.4l13.3,5.3c-0.1,15.6,8.6,28.9,20.8,33.8Z" /></clipPath>
<clipPath id="c109_1"><path d="M44.4,85.3L31.1,79.9C31.1,60.1,45.2,44.1,62.6,44.1l13.3,5.4c-17.4,0,-31.5,16,-31.5,35.8Z" /></clipPath>
<clipPath id="c110_1"><path d="M57.5,404l-0.1,0l0.1,0Zm-0.1,0L44.1,398.6C23.8,390.5,9.2,368.4,9.3,342.4l13.3,5.3c-0.1,26,14.5,48.1,34.8,56.3Z" /></clipPath>
<clipPath id="c111_1"><path d="M23.4,85.3L10.1,79.9C10.2,47,33.7,20.3,62.7,20.3L76,25.6C47.1,25.6,23.5,52.3,23.4,85.3Z" /></clipPath>

<style type="text/css"><![CDATA[

.g11_1{
fill: #040503;
}
.g10_1{
fill: #EBE0D2;
fill-opacity: 0.39999402;
}
.g3_1{
fill: #897F71;
}
.g9_1{
fill: #C3B39E;
}
.g2_1{
fill: #8D8374;
}
.g1_1{
fill: #827A6B;
}
.g5_1{
fill: #948A7A;
}
.g4_1{
fill: #867C6E;
}
.g7_1{
fill: #7F7768;
}
.g12_1{
fill: #D9C6AE;
}
.g8_1{
fill: #8C8273;
}
.g6_1{
fill: #908677;
}

.s1_1{
font-size: 190.97px;
font-family: SHWLKE-MyriadPro-Regular1;
fill: #EBE0D2;
}
.s2_1{
font-size: 190.97px;
font-family: SHWLKE-MyriadPro-Regular1;
fill: #040503;
}

]]></style>

</defs>
<path d="M0,0
L0,431
L957,431
L957,0 Z " 
fill="none" stroke="none" />
<g clip-path="url(#c0_1)">
<path d="M906.1,372l-13.3,-5.3c5.5,-6.2,8.7,-14.8,8.7,-24.3l13.3,5.3c0,9.5,-3.2,18.1,-8.7,24.3Z" class="g1_1" />
</g>
<g clip-path="url(#c1_1)">
<path d="M883.3,383.5L870,378.1c0.4,0,0.9,0,1.4,0l13.3,5.3c-0.4,0.1,-0.9,0.1,-1.4,0.1Z" class="g2_1" />
<path d="M884.7,383.4l-13.3,-5.3c1.7,-0.1,3.3,-0.3,4.9,-0.7l13.3,5.4c-1.6,0.3,-3.2,0.5,-4.9,0.6Z" class="g3_1" />
<path d="M889.6,382.8l-13.3,-5.4c1.8,-0.4,3.6,-1,5.3,-1.8l13.3,5.4c-1.7,0.7,-3.5,1.3,-5.3,1.8Z" class="g4_1" />
<path d="M894.9,381l-13.3,-5.4c4.3,-1.9,8.1,-5,11.2,-8.9l13.3,5.3c-3.1,3.9,-6.9,7,-11.2,9Z" class="g1_1" />
</g>
<g clip-path="url(#c2_1)">
<path d="M904.4,371.5l-13.3,-5.4c0.2,0.1,0.4,0.2,0.6,0.3l13.3,5.3c-0.2,-0.1,-0.4,-0.2,-0.6,-0.2Z" class="g5_1" />
<path d="M905,371.7l-13.3,-5.3c0.4,0.1,0.7,0.2,1.1,0.3l13.3,5.3c-0.4,-0.1,-0.7,-0.2,-1.1,-0.3Z" class="g6_1" />
</g>
<g clip-path="url(#c3_1)">
<path d="M904.4,371.5l-13.3,-5.4c-7.2,-2.9,-2.8,-9.1,-10.4,-20.7l13.3,5.4c7.7,11.6,3.2,17.8,10.4,20.7Z" class="g1_1" />
</g>
<g clip-path="url(#c4_1)">
<path d="M904.4,371.5l-13.3,-5.4c-7.2,-2.9,-2.8,-9.1,-10.4,-20.7l13.3,5.4c7.7,11.6,3.2,17.8,10.4,20.7Z" class="g1_1" />
</g>
<g clip-path="url(#c5_1)">
<path d="M894,350.8l-13.3,-5.4c-11,-20,-24.2,-38.4,-39.2,-54.6l13.3,5.4c15,16.2,28.2,34.5,39.2,54.6Z" class="g1_1" />
</g>
<g clip-path="url(#c6_1)">
<path d="M854.8,296.2l-13.3,-5.4c-1.5,-1.6,-3.1,-3.3,-5.2,-5.7l13.3,5.3c2.1,2.4,3.7,4.1,5.2,5.8Z" class="g1_1" />
</g>
<g clip-path="url(#c7_1)">
<path d="M854.8,296.2l-13.3,-5.4c-1.5,-1.6,-3.1,-3.3,-5.2,-5.7l13.3,5.3c2.1,2.4,3.7,4.1,5.2,5.8Z" class="g1_1" />
</g>
<path d="M914.8,347.7l-13.3,-5.3L902.3,86.6l13.3,5.3Z" class="g7_1" />
<g clip-path="url(#c8_1)">
<path d="M879.8,151.6l-13.3,-5.3c9.9,-21,20.4,-45.1,35.8,-59.7l13.3,5.3c-15.4,14.6,-25.9,38.7,-35.8,59.7Z" class="g1_1" />
</g>
<path d="M915.6,91.9L902.3,86.6l0,-6.7l13.3,5.4Z" class="g7_1" />
<path d="M74.9,383.5L61.6,378.1l808.4,0l13.3,5.4Z" class="g8_1" />
<g clip-path="url(#c9_1)">
<path d="M795.6,381.3L782.3,376c16.7,-31.5,35.4,-61.1,54,-90.9l13.3,5.3c-18.6,29.8,-37.3,59.4,-54,90.9Z" class="g1_1" />
</g>
<g clip-path="url(#c10_1)">
<path d="M879.8,151.6l-13.3,-5.3c9.9,-21,20.4,-45.1,35.8,-59.7l13.3,5.3c-15.4,14.6,-25.9,38.7,-35.8,59.7Z" class="g1_1" />
</g>
<g clip-path="url(#c11_1)">
<path d="M788.2,382.6l-13.3,-5.4c1.1,0,2,0,2.9,0l13.3,5.3c-0.9,0,-1.8,0.1,-2.9,0.1Z" class="g2_1" />
<path d="M791.1,382.5l-13.3,-5.3c1.2,-0.1,2.2,-0.2,2.9,-0.4l13.3,5.3c-0.7,0.2,-1.7,0.3,-2.9,0.4Z" class="g3_1" />
<path d="M794,382.1l-13.3,-5.3c0.4,-0.1,0.7,-0.2,1,-0.3l13.3,5.3c-0.3,0.2,-0.6,0.3,-1,0.3Z" class="g4_1" />
<path d="M795,381.8l-13.3,-5.3c0.3,-0.1,0.5,-0.3,0.6,-0.5l13.3,5.3c-0.1,0.2,-0.3,0.4,-0.6,0.5Z" class="g1_1" />
</g>
<g clip-path="url(#c12_1)">
<path d="M879.8,151.6l-13.3,-5.3c9.9,-21,20.4,-45.1,35.8,-59.7l13.3,5.3c-15.4,14.6,-25.9,38.7,-35.8,59.7Z" class="g1_1" />
</g>
<g clip-path="url(#c13_1)">
<path d="M915.6,85.3L902.3,79.9c0,-15.6,-8.7,-28.8,-20.9,-33.7l13.3,5.3c12.3,4.9,21,18.1,20.9,33.8Z" class="g1_1" />
</g>
<g clip-path="url(#c14_1)">
<path d="M782.4,382.1l-13.3,-5.4c4,0.4,4.9,0.5,5.8,0.5l13.3,5.4c-0.9,-0.1,-1.8,-0.2,-5.8,-0.5Z" class="g2_1" />
</g>
<g clip-path="url(#c15_1)">
<path d="M777.8,381.4l-13.3,-5.3c0.1,0,0.1,0,0.2,0.1l13.3,5.3c-0.1,0,-0.1,-0.1,-0.2,-0.1Z" class="g5_1" />
<path d="M778,381.5l-13.3,-5.3c0.5,0.1,1.2,0.3,2,0.4l13.3,5.3c-0.8,-0.1,-1.5,-0.2,-2,-0.4Z" class="g6_1" />
<path d="M780,381.9l-13.3,-5.3c0.7,0.1,1.5,0.1,2.4,0.1l13.3,5.4c-0.9,0,-1.6,-0.1,-2.4,-0.2Z" class="g2_1" />
</g>
<g clip-path="url(#c16_1)">
<path d="M779.1,376.5l-13.3,-5.3c0.6,-1.4,1.5,-2.6,2.3,-4l13.3,5.3c-0.8,1.4,-1.7,2.6,-2.3,4Z" class="g1_1" />
</g>
<g clip-path="url(#c17_1)">
<path d="M777.5,381.3L764.2,376c-0.5,-0.2,-0.8,-0.4,-0.8,-0.7l13.3,5.3c0,0.3,0.3,0.5,0.8,0.7Z" class="g1_1" />
</g>
<g clip-path="url(#c18_1)">
<path d="M776.7,380.6l-13.3,-5.3c0.9,-1.5,1.7,-2.6,2.4,-4.1l13.3,5.3c-0.7,1.5,-1.5,2.7,-2.4,4.1Z" class="g1_1" />
</g>
<g clip-path="url(#c19_1)">
<path d="M777.5,381.3L764.2,376c-0.5,-0.2,-0.8,-0.4,-0.8,-0.7l13.3,5.3c0,0.3,0.3,0.5,0.8,0.7Z" class="g1_1" />
</g>
<g clip-path="url(#c20_1)">
<path d="M776.7,380.6l-13.3,-5.3c0.9,-1.5,1.7,-2.6,2.4,-4.1l13.3,5.3c-0.7,1.5,-1.5,2.7,-2.4,4.1Z" class="g1_1" />
</g>
<g clip-path="url(#c21_1)">
<path d="M844.6,209.3L831.3,204c12.2,-18.9,24,-38.2,35.2,-57.7l13.3,5.3c-11.2,19.5,-23,38.9,-35.2,57.7Z" class="g1_1" />
</g>
<g clip-path="url(#c22_1)">
<path d="M779.1,372l-13.3,-5.4c0.1,0.1,0.1,0.1,0.2,0.1l13.3,5.3c0,0,-0.1,0,-0.2,0Z" class="g5_1" />
<path d="M779.3,372L766,366.7c0.6,0.2,1.2,0.4,2.1,0.5l13.3,5.3c-0.9,-0.1,-1.5,-0.3,-2.1,-0.5Z" class="g6_1" />
<path d="M781.4,372.5l-13.3,-5.3l13.3,5.3Z" class="g2_1" />
</g>
<g clip-path="url(#c23_1)">
<path d="M779.1,372l-13.3,-5.4c-0.5,-0.2,-0.9,-0.4,-1,-0.6l13.3,5.3c0.2,0.2,0.5,0.5,1,0.7Z" class="g1_1" />
</g>
<g clip-path="url(#c24_1)">
<path d="M773.1,370.4l-13.3,-5.3c0,0,0.1,0.1,0.2,0.1l13.3,5.3c-0.1,0,-0.1,0,-0.2,-0.1Z" class="g5_1" />
<path d="M773.3,370.5L760,365.2c0.8,0.3,1.8,0.4,2.9,0.6l13.3,5.3c-1.1,-0.1,-2.1,-0.3,-2.9,-0.6Z" class="g6_1" />
<path d="M776.2,371.1l-13.3,-5.3c0.6,0.1,1.2,0.1,1.9,0.2l13.3,5.3c-0.7,0,-1.3,-0.1,-1.9,-0.2Z" class="g2_1" />
</g>
<g clip-path="url(#c25_1)">
<path d="M772.8,370.4l-13.3,-5.3c-0.6,-0.3,-0.9,-0.5,-0.9,-0.8l13.3,5.4c0,0.2,0.3,0.5,0.9,0.7Z" class="g1_1" />
</g>
<g clip-path="url(#c26_1)">
<path d="M771.9,369.7l-13.3,-5.4c1.1,-1.9,2.2,-3.6,3,-5.2l13.3,5.3c-0.8,1.7,-1.9,3.3,-3,5.3Z" class="g1_1" />
</g>
<g clip-path="url(#c27_1)">
<path d="M772.8,370.4l-13.3,-5.3c-0.6,-0.3,-0.9,-0.5,-0.9,-0.8l13.3,5.4c0,0.2,0.3,0.5,0.9,0.7Z" class="g1_1" />
</g>
<g clip-path="url(#c28_1)">
<path d="M771.9,369.7l-13.3,-5.4c1.1,-1.9,2.2,-3.6,3,-5.2l13.3,5.3c-0.8,1.7,-1.9,3.3,-3,5.3Z" class="g1_1" />
</g>
<g clip-path="url(#c29_1)">
<path d="M774.6,364.3l-13.3,-5.4c-0.5,-0.2,-0.9,-0.5,-0.9,-0.8l13.4,5.3c0,0.4,0.3,0.7,0.8,0.9Z" class="g1_1" />
</g>
<g clip-path="url(#c30_1)">
<path d="M774.6,364.3l-13.3,-5.4c-0.5,-0.2,-0.9,-0.5,-0.9,-0.8l13.4,5.3c0,0.4,0.3,0.7,0.8,0.9Z" class="g1_1" />
</g>
<g clip-path="url(#c31_1)">
<path d="M773.8,363.4l-13.4,-5.3c0.4,-1,0.6,-1.4,1,-1.9l13.3,5.3c-0.4,0.5,-0.6,1,-0.9,1.9Z" class="g1_1" />
</g>
<g clip-path="url(#c32_1)">
<path d="M771.5,360.9l-13.3,-5.3c0.1,0,0.2,0,0.2,0.1l13.3,5.3c0,0,-0.1,-0.1,-0.2,-0.1Z" class="g5_1" />
<path d="M771.7,361l-13.3,-5.3c0.6,0.2,1.3,0.3,2.2,0.4l13.3,5.3c-0.8,-0.1,-1.6,-0.2,-2.2,-0.4Z" class="g6_1" />
<path d="M773.9,361.4l-13.3,-5.3c0.2,0,0.5,0.1,0.8,0.1l13.3,5.3c-0.3,0,-0.5,0,-0.8,-0.1Z" class="g2_1" />
</g>
<g clip-path="url(#c33_1)">
<path d="M775.6,350.8l-13.3,-5.4c0.2,-0.7,0.6,-1.4,0.8,-1.8l13.3,5.3c-0.2,0.5,-0.6,1.2,-0.8,1.9Z" class="g1_1" />
</g>
<g clip-path="url(#c34_1)">
<path d="M915.6,85.3L902.3,79.9c0,-15.6,-8.7,-28.8,-20.9,-33.7l13.3,5.3c12.3,4.9,21,18.1,20.9,33.8Z" class="g1_1" />
</g>
<g clip-path="url(#c35_1)">
<path d="M775.3,348.5L762,343.2c0,0,0.1,0.1,0.2,0.1l13.3,5.3c-0.1,0,-0.2,0,-0.2,-0.1Z" class="g5_1" />
<path d="M775.5,348.6l-13.3,-5.3c0.3,0.1,0.6,0.2,0.9,0.3l13.3,5.3c-0.3,-0.1,-0.6,-0.2,-0.9,-0.3Z" class="g6_1" />
</g>
<g clip-path="url(#c36_1)">
<path d="M771.2,360.8l-13.3,-5.3c-0.6,-0.2,-1,-0.5,-1,-0.9l13.3,5.4c0,0.3,0.4,0.6,1,0.8Z" class="g1_1" />
</g>
<g clip-path="url(#c37_1)">
<path d="M770.2,360l-13.3,-5.4c1.8,-3.2,3.7,-6.3,5.4,-9.2l13.3,5.4c-1.7,2.9,-3.6,5.9,-5.4,9.2Z" class="g1_1" />
</g>
<g clip-path="url(#c38_1)">
<path d="M771.2,360.8l-13.3,-5.3c-0.6,-0.2,-1,-0.5,-1,-0.9l13.3,5.4c0,0.3,0.4,0.6,1,0.8Z" class="g1_1" />
</g>
<g clip-path="url(#c39_1)">
<path d="M770.2,360l-13.3,-5.4c1.8,-3.2,3.7,-6.3,5.4,-9.2l13.3,5.4c-1.7,2.9,-3.6,5.9,-5.4,9.2Z" class="g1_1" />
</g>
<g clip-path="url(#c40_1)">
<path d="M774.5,348.3L761.2,343c-0.8,-0.3,-1.3,-0.7,-1.3,-1.2l13.3,5.4c0,0.4,0.5,0.8,1.3,1.1Z" class="g1_1" />
</g>
<g clip-path="url(#c41_1)">
<path d="M773.2,347.2l-13.3,-5.4c0.5,-1.1,0.7,-1.6,1.2,-2.1l13.3,5.4c-0.5,0.4,-0.7,0.9,-1.2,2.1Z" class="g1_1" />
</g>
<g clip-path="url(#c42_1)">
<path d="M774.5,348.3L761.2,343c-0.8,-0.3,-1.3,-0.7,-1.3,-1.2l13.3,5.4c0,0.4,0.5,0.8,1.3,1.1Z" class="g1_1" />
</g>
<g clip-path="url(#c43_1)">
<path d="M772,344.6l-13.3,-5.4c0.1,0.1,0.1,0.1,0.2,0.1l13.3,5.3c-0.1,0,-0.1,0,-0.2,0Z" class="g5_1" />
<path d="M772.2,344.6l-13.3,-5.3c0.5,0.2,1.1,0.3,1.7,0.4l13.3,5.3c-0.6,-0.1,-1.2,-0.2,-1.7,-0.4Z" class="g6_1" />
<path d="M773.9,345l-13.3,-5.3c0.2,0,0.3,0,0.5,0l13.3,5.4c-0.2,0,-0.3,-0.1,-0.5,-0.1Z" class="g2_1" />
</g>
<g clip-path="url(#c44_1)">
<path d="M771.7,344.5l-13.3,-5.3c-0.7,-0.3,-1.1,-0.7,-1.1,-1.1l13.3,5.3c0,0.5,0.4,0.8,1.1,1.1Z" class="g1_1" />
</g>
<g clip-path="url(#c45_1)">
<path d="M770.6,343.4l-13.3,-5.3c0.6,-1.5,1.3,-2.4,1.7,-3.1l13.3,5.3c-0.4,0.7,-1.1,1.7,-1.7,3.1Z" class="g1_1" />
</g>
<g clip-path="url(#c46_1)">
<path d="M770.6,343.4l-13.3,-5.3c0.6,-1.5,1.3,-2.4,1.7,-3.1l13.3,5.3c-0.4,0.7,-1.1,1.7,-1.7,3.1Z" class="g1_1" />
</g>
<g clip-path="url(#c47_1)">
<path d="M771.7,344.5l-13.3,-5.3c-0.7,-0.3,-1.1,-0.7,-1.1,-1.1l13.3,5.3c0,0.5,0.4,0.8,1.1,1.1Z" class="g1_1" />
</g>
<g clip-path="url(#c48_1)">
<path d="M771.8,340.1l-13.3,-5.3c0.1,0,0.2,0.1,0.3,0.1l13.3,5.3c-0.1,0,-0.2,0,-0.3,-0.1Z" class="g5_1" />
<path d="M772.1,340.2l-13.3,-5.3c0.1,0,0.1,0,0.2,0.1l13.3,5.3c-0.1,0,-0.1,0,-0.2,-0.1Z" class="g6_1" />
</g>
<g clip-path="url(#c49_1)">
<path d="M770.1,338.6l-13.3,-5.4c1.6,-3,3.2,-5.4,4.7,-8l13.3,5.3c-1.4,2.6,-3.1,5,-4.7,8.1Z" class="g1_1" />
</g>
<g clip-path="url(#c50_1)">
<path d="M773.7,330.2l-13.3,-5.3c0,0,0.1,0,0.1,0.1l13.4,5.3c-0.1,0,-0.1,0,-0.2,-0.1Z" class="g5_1" />
<path d="M773.9,330.3L760.5,325c0.3,0.1,0.7,0.1,1,0.2l13.3,5.3c-0.3,0,-0.7,-0.1,-0.9,-0.2Z" class="g6_1" />
</g>
<g clip-path="url(#c51_1)">
<path d="M771.8,340.1l-13.3,-5.3c-1,-0.4,-1.7,-0.9,-1.7,-1.6l13.3,5.4c0,0.6,0.7,1.1,1.7,1.5Z" class="g1_1" />
</g>
<g clip-path="url(#c52_1)">
<path d="M771.8,340.1l-13.3,-5.3c-1,-0.4,-1.7,-0.9,-1.7,-1.6l13.3,5.4c0,0.6,0.7,1.1,1.7,1.5Z" class="g1_1" />
</g>
<g clip-path="url(#c53_1)">
<path d="M770.1,338.6l-13.3,-5.4c1.6,-3,3.2,-5.4,4.7,-8l13.3,5.3c-1.4,2.6,-3.1,5,-4.7,8.1Z" class="g1_1" />
</g>
<g clip-path="url(#c54_1)">
<path d="M773.5,330.2l-13.3,-5.4c-0.7,-0.2,-1.1,-0.6,-1.1,-1.2l13.3,5.4c0,0.5,0.4,0.9,1.1,1.2Z" class="g1_1" />
</g>
<g clip-path="url(#c55_1)">
<path d="M772.4,329l-13.3,-5.4c0.8,-1.8,1.6,-3,2.2,-4.2l13.3,5.4c-0.6,1.2,-1.4,2.4,-2.2,4.2Z" class="g1_1" />
</g>
<g clip-path="url(#c56_1)">
<path d="M772.4,329l-13.3,-5.4c0.8,-1.8,1.6,-3,2.2,-4.2l13.3,5.4c-0.6,1.2,-1.4,2.4,-2.2,4.2Z" class="g1_1" />
</g>
<g clip-path="url(#c57_1)">
<path d="M773.5,330.2l-13.3,-5.4c-0.7,-0.2,-1.1,-0.6,-1.1,-1.2l13.3,5.4c0,0.5,0.4,0.9,1.1,1.2Z" class="g1_1" />
</g>
<g clip-path="url(#c58_1)">
<path d="M884.3,49.5L871,44.1c1.2,0,2.3,0.1,3.5,0.3l13.3,5.3c-1.2,-0.2,-2.3,-0.2,-3.5,-0.2Z" class="g2_1" />
<path d="M887.8,49.7L874.5,44.4c2,0.2,3.9,0.7,5.7,1.3L893.5,51c-1.8,-0.6,-3.7,-1.1,-5.7,-1.3Z" class="g6_1" />
<path d="M893.5,51L880.2,45.7c0.4,0.1,0.8,0.3,1.2,0.5l13.3,5.3c-0.4,-0.2,-0.8,-0.3,-1.2,-0.5Z" class="g5_1" />
</g>
<g clip-path="url(#c59_1)">
<path d="M774.6,324.8l-13.3,-5.4c-0.4,-0.1,-0.8,-0.5,-0.8,-1l13.3,5.3c0,0.5,0.4,0.9,0.8,1.1Z" class="g1_1" />
</g>
<g clip-path="url(#c60_1)">
<path d="M773.8,323.7l-13.3,-5.3c13.5,-24,27.6,-46.7,42.1,-69.1l13.3,5.3c-14.5,22.5,-28.6,45.1,-42.1,69.1Z" class="g1_1" />
</g>
<g clip-path="url(#c61_1)">
<path d="M774.6,324.8l-13.3,-5.4c-0.4,-0.1,-0.8,-0.5,-0.8,-1l13.3,5.3c0,0.5,0.4,0.9,0.8,1.1Z" class="g1_1" />
</g>
<g clip-path="url(#c62_1)">
<path d="M884.3,25.6L871,20.3c2,0,4,0.1,5.9,0.3L890.2,26c-1.9,-0.3,-3.9,-0.4,-5.9,-0.4Z" class="g2_1" />
<path d="M890.2,26L876.9,20.6c3.2,0.5,6.4,1.2,9.5,2.3l13.3,5.3c-3.1,-1,-6.2,-1.8,-9.5,-2.2Z" class="g6_1" />
<path d="M899.7,28.2L886.4,22.9c0.7,0.2,1.3,0.5,2,0.7L901.7,29c-0.6,-0.3,-1.3,-0.5,-2,-0.8Z" class="g5_1" />
</g>
<g clip-path="url(#c63_1)">
<path d="M815.9,254.6l-13.3,-5.3C790.1,234.5,779,218.1,775.5,203.3l13.3,5.3c3.5,14.8,14.6,31.2,27.1,46Z" class="g1_1" />
</g>
<g clip-path="url(#c64_1)">
<path d="M844.6,209.3L831.3,204C817.9,183.2,804.8,162.7,791.8,142l13.4,5.3c12.9,20.7,26,41.3,39.4,62Z" class="g1_1" />
</g>
<g clip-path="url(#c65_1)">
<path d="M805.1,147.3L791.8,142c0.1,-1.2,-0.5,-1.9,-0.9,-2.1l13.3,5.3c0.5,0.2,1,0.9,0.9,2.1Z" class="g1_1" />
</g>
<g clip-path="url(#c66_1)">
<path d="M803.9,145.1l-13.3,-5.3l0.1,0l13.3,5.3c0,0,-0.1,0,-0.1,0Z" class="g2_1" />
<path d="M804,145.1l-13.3,-5.3c0,0,0.1,0,0.1,0.1l13.3,5.3c0,0,-0.1,-0.1,-0.1,-0.1Z" class="g6_1" />
<path d="M804.1,145.2l-13.3,-5.3c0.1,0,0.1,0,0.1,0l13.3,5.3l-0.1,0Z" class="g5_1" />
</g>
<g clip-path="url(#c67_1)">
<path d="M803.9,145.1l-13.3,-5.3c-0.4,-1.2,-0.8,-2.4,-1.2,-3.6l13.3,5.4c0.4,1.1,0.8,2.3,1.2,3.5Z" class="g1_1" />
</g>
<g clip-path="url(#c68_1)">
<path d="M788.8,208.6l-13.3,-5.3C772.1,196,770.1,189,770.1,182.6c0,-1.8,0.1,-3.6,0.5,-5.3l13.3,5.3c-0.3,1.7,-0.5,3.5,-0.5,5.3c0,6.5,2,13.4,5.4,20.7Z" class="g1_1" />
</g>
<g clip-path="url(#c69_1)">
<path d="M801,139.9l-13.3,-5.3c0.1,0,0.2,0,0.3,0l13.3,5.3c-0.1,0,-0.2,0,-0.3,0Z" class="g2_1" />
<path d="M801.3,139.9L788,134.6c0.2,0,0.4,0,0.5,0.1l13.3,5.3c-0.1,0,-0.3,-0.1,-0.5,-0.1Z" class="g6_1" />
<path d="M801.8,140l-13.3,-5.3c0.1,0,0.1,0,0.1,0l13.3,5.4c0,-0.1,0,-0.1,-0.1,-0.1Z" class="g5_1" />
</g>
<g clip-path="url(#c70_1)">
<path d="M783.9,182.6l-13.3,-5.3c-0.2,-0.7,-0.4,-1.2,-0.4,-1.9l13.3,5.3c0,0.7,0.2,1.2,0.4,1.9Z" class="g1_1" />
</g>
<g clip-path="url(#c71_1)">
<path d="M802.7,141.6l-13.3,-5.4c-2.1,-2.4,-2.4,-3.1,-2.6,-3.8l13.4,5.3c0.2,0.8,0.4,1.5,2.5,3.9Z" class="g1_1" />
</g>
<path d="M800.2,137.7l-13.4,-5.3l1.1,-4l13.3,5.3Z" class="g7_1" />
<g clip-path="url(#c72_1)">
<path d="M801.2,133.7l-13.3,-5.3c-0.2,-0.2,-0.3,-0.3,-0.4,-0.3l13.3,5.3c0.1,0,0.2,0.1,0.4,0.3Z" class="g1_1" />
</g>
<g clip-path="url(#c73_1)">
<path d="M800.4,131.3L787.1,126l0,-0.1l13.3,5.4Z" class="g1_1" />
<path d="M800.4,131.3l-13.3,-5.4l0.1,0l13.3,5.4c0,0,-0.1,0,-0.1,0Z" class="g4_1" />
<path d="M800.5,131.3l-13.3,-5.4l13.3,5.4Z" class="g3_1" />
<path d="M800.5,131.3l-13.3,-5.4l13.3,5.4Z" class="g2_1" />
<path d="M800.5,131.3l-13.3,-5.4c0.1,0,0.1,0,0.1,0l13.3,5.4l-0.1,0Z" class="g6_1" />
<path d="M800.6,131.3l-13.3,-5.4l13.3,5.4Z" class="g5_1" />
</g>
<g clip-path="url(#c74_1)">
<path d="M799.5,135.4L786.2,130c0.2,-1.4,0.7,-2.6,0.9,-4l13.3,5.3c-0.2,1.4,-0.7,2.6,-0.9,4.1Z" class="g1_1" />
</g>
<path d="M799.5,135.4L786.2,130l-4.4,-2.6l13.3,5.3Z" class="g7_1" />
<g clip-path="url(#c75_1)">
<path d="M798,134.7l-13.3,-5.4c0.3,0.1,0.5,0.1,0.7,0.2l13.3,5.3c-0.2,0,-0.4,-0.1,-0.7,-0.1Z" class="g6_1" />
<path d="M798.7,134.8l-13.3,-5.3c0.1,0,0.1,0,0.1,0.1l13.4,5.3c-0.1,0,-0.1,0,-0.2,-0.1Z" class="g5_1" />
</g>
<g clip-path="url(#c76_1)">
<path d="M796.8,136.3L783.5,131c0.5,-1.2,0.8,-1.5,1,-1.6l13.3,5.3c-0.2,0.1,-0.5,0.4,-1,1.6Z" class="g1_1" />
<path d="M797.8,134.7l-13.3,-5.3c0,0,0.1,0,0.1,0l13.3,5.3c0,0,-0.1,0,-0.1,0Z" class="g4_1" />
<path d="M797.9,134.7l-13.3,-5.3c0,-0.1,0,-0.1,0.1,-0.1l13.3,5.4c0,0,-0.1,0,-0.1,0Z" class="g3_1" />
<path d="M798,134.7l-13.3,-5.4l13.3,5.4Z" class="g2_1" />
</g>
<g clip-path="url(#c77_1)">
<path d="M783.5,167.3L770.2,162c0.1,-0.5,0.6,-0.9,1.1,-1.1l13.3,5.3c-0.5,0.3,-1,0.7,-1.1,1.1Z" class="g1_1" />
<path d="M784.6,166.2l-13.3,-5.3c0.3,-0.1,0.6,-0.2,0.9,-0.3l13.3,5.3c-0.3,0.1,-0.6,0.2,-0.9,0.3Z" class="g4_1" />
<path d="M785.5,165.9l-13.3,-5.3c0.1,0,0.1,0,0.1,0l13.3,5.3l-0.1,0Z" class="g3_1" />
</g>
<g clip-path="url(#c78_1)">
<path d="M783.5,180.7l-13.3,-5.3c-1.3,-2.3,-1.9,-4.6,-1.9,-6.8c0,-2.3,0.6,-4.5,1.9,-6.6l13.3,5.3c-1.3,2.2,-1.9,4.4,-1.9,6.6c0,2.3,0.6,4.5,1.9,6.8Z" class="g1_1" />
</g>
<g clip-path="url(#c79_1)">
<path d="M795.9,134.3l-13.3,-5.4c-0.1,0,-0.2,-0.2,-0.3,-0.3c-0.2,-0.4,-0.3,-0.8,-0.5,-1.2l13.3,5.3c0.2,0.4,0.3,0.9,0.5,1.2c0.1,0.2,0.2,0.3,0.3,0.4Z" class="g1_1" />
</g>
<path d="M795.1,132.7l-13.3,-5.3l3,-4.8l13.3,5.4Z" class="g7_1" />
<g clip-path="url(#c80_1)">
<path d="M785.6,165.9l-13.3,-5.3c-0.8,-2.7,-1.5,-5.5,-1.7,-8.2l13.4,5.4c0.2,2.6,0.8,5.5,1.6,8.1Z" class="g1_1" />
</g>
<g clip-path="url(#c81_1)">
<path d="M795.4,130.4L782,125c0.3,-1.2,0.5,-2.4,0.7,-3.8l13.3,5.3c-0.2,1.5,-0.4,2.7,-0.6,3.9Z" class="g1_1" />
</g>
<g clip-path="url(#c82_1)">
<path d="M796,126.5l-13.3,-5.3c0.1,0,0.2,-0.1,0.3,-0.1l13.3,5.3c-0.1,0.1,-0.2,0.1,-0.3,0.1Z" class="g4_1" />
<path d="M796.3,126.4L783,121.1c0.3,0,0.5,-0.1,0.7,-0.1l13.3,5.3c-0.2,0.1,-0.4,0.1,-0.7,0.1Z" class="g3_1" />
<path d="M797,126.3L783.7,121c0.1,0,0.2,0,0.3,0l13.3,5.4c-0.1,-0.1,-0.2,-0.1,-0.3,-0.1Z" class="g2_1" />
<path d="M797.3,126.4L784,121c0.1,0,0.2,0.1,0.3,0.1l13.3,5.3c-0.1,0,-0.2,0,-0.3,0Z" class="g6_1" />
<path d="M797.6,126.4l-13.3,-5.3l13.4,5.3c-0.1,0,-0.1,0,-0.1,0Z" class="g5_1" />
</g>
<g clip-path="url(#c83_1)">
<path d="M795.4,130.4L782,125c0.3,-1.4,0.3,-3.1,0.3,-4.5l13.3,5.3c0,1.4,0,3.1,-0.2,4.6Z" class="g1_1" />
</g>
<g clip-path="url(#c84_1)">
<path d="M795.6,125.8l-13.3,-5.3c0.1,-1.4,-0.4,-2,-1.1,-2.3l13.3,5.3c0.7,0.3,1.2,1,1.1,2.3Z" class="g1_1" />
</g>
<g clip-path="url(#c85_1)">
<path d="M793.9,123.5l-13.3,-5.4c0.3,0.1,0.5,0.1,0.7,0.2l13.3,5.3c-0.2,0,-0.4,-0.1,-0.7,-0.1Z" class="g6_1" />
<path d="M794.6,123.6l-13.3,-5.3c0,0,0.1,0,0.1,0.1l13.3,5.3c0,0,-0.1,0,-0.1,-0.1Z" class="g5_1" />
</g>
<g clip-path="url(#c86_1)">
<path d="M793.1,123.4l-13.3,-5.3c0.3,0,0.6,0,0.8,0l13.3,5.4c-0.2,0,-0.5,-0.1,-0.8,-0.1Z" class="g2_1" />
<path d="M793.9,123.5l-13.3,-5.4c0.3,0.1,0.5,0.1,0.7,0.2l13.3,5.3c-0.2,0,-0.4,-0.1,-0.7,-0.1Z" class="g6_1" />
</g>
<g clip-path="url(#c87_1)">
<path d="M784,157.8l-13.4,-5.4c-0.4,-2.4,-0.7,-4.7,-0.7,-7c0,-1.8,0.2,-3.6,0.6,-5.3l13.3,5.3c-0.4,1.8,-0.6,3.5,-0.6,5.3c0,2.3,0.3,4.7,0.8,7.1Z" class="g1_1" />
</g>
<g clip-path="url(#c88_1)">
<path d="M783.8,145.4l-13.3,-5.3c0.1,-0.5,0.5,-0.8,1.1,-1.1l13.3,5.4c-0.6,0.2,-1,0.6,-1.1,1Z" class="g1_1" />
<path d="M784.9,144.4L771.6,139c0.3,-0.1,0.7,-0.2,1.1,-0.3L786,144c-0.4,0.1,-0.8,0.2,-1.1,0.4Z" class="g4_1" />
<path d="M786,144l-13.3,-5.3c0.1,0,0.2,-0.1,0.3,-0.1l13.3,5.3c-0.1,0.1,-0.2,0.1,-0.3,0.1Z" class="g3_1" />
</g>
<g clip-path="url(#c89_1)">
<path d="M786.3,143.9L773,138.6c-0.1,-1.7,-0.2,-3.4,-0.2,-5c0,-1.2,0,-2.3,0.2,-3.3l13.3,5.3c-0.2,1.1,-0.2,2.2,-0.2,3.3c0,1.6,0.1,3.3,0.2,5Z" class="g1_1" />
</g>
<g clip-path="url(#c90_1)">
<path d="M791,128.7l-13.3,-5.4c0.2,-0.9,0.2,-1.9,0.6,-3.5l13.3,5.3c-0.4,1.7,-0.4,2.6,-0.6,3.6Z" class="g1_1" />
</g>
<g clip-path="url(#c91_1)">
<path d="M791.6,125.1l-13.3,-5.3c0,-0.3,0.1,-0.6,0.2,-0.8c0.2,-0.3,0.5,-0.6,0.9,-0.7l13.3,5.3c-0.4,0.2,-0.7,0.4,-0.9,0.7c-0.1,0.3,-0.2,0.5,-0.2,0.8Z" class="g1_1" />
<path d="M792.7,123.6l-13.3,-5.3c0.1,-0.1,0.2,-0.1,0.4,-0.2l13.3,5.3c-0.1,0.1,-0.3,0.1,-0.4,0.2Z" class="g4_1" />
<path d="M793.1,123.4l-13.3,-5.3l13.3,5.3Z" class="g3_1" />
</g>
<g clip-path="url(#c92_1)">
<path d="M787.1,134.7l-13.3,-5.4c0.2,-0.1,0.5,-0.1,0.7,-0.2l13.3,5.3c-0.2,0.1,-0.5,0.2,-0.7,0.3Z" class="g4_1" />
</g>
<g clip-path="url(#c93_1)">
<path d="M786.3,143.9L773,138.6c-0.1,-1.7,-0.2,-3.4,-0.2,-5c0,-1.2,0,-2.3,0.2,-3.3l13.3,5.3c-0.2,1.1,-0.2,2.2,-0.2,3.3c0,1.6,0.1,3.3,0.2,5Z" class="g1_1" />
</g>
<g clip-path="url(#c94_1)">
<path d="M786.3,135.6L773,130.3c0,-0.5,0.4,-0.8,0.8,-1l13.3,5.4c-0.4,0.2,-0.8,0.4,-0.8,0.9Z" class="g1_1" />
<path d="M787.1,134.7l-13.3,-5.4c0.2,-0.1,0.5,-0.1,0.7,-0.2l13.3,5.3c-0.2,0.1,-0.5,0.2,-0.7,0.3Z" class="g4_1" />
</g>
<g clip-path="url(#c95_1)">
<path d="M787.8,134.4l-13.3,-5.3c0,-1.6,0,-3,0.2,-4.1l13.3,5.4c-0.2,1.1,-0.2,2.4,-0.2,4Z" class="g1_1" />
</g>
<g clip-path="url(#c96_1)">
<path d="M788,130.4L774.7,125c0,-0.5,0.4,-0.9,1,-1.1l13.3,5.3c-0.6,0.3,-1,0.6,-1,1.2Z" class="g1_1" />
<path d="M789,129.2l-13.3,-5.3c0.4,-0.2,0.8,-0.3,1.2,-0.4l13.3,5.3c-0.4,0.1,-0.8,0.2,-1.2,0.4Z" class="g4_1" />
<path d="M790.2,128.8l-13.3,-5.3c0.2,-0.1,0.5,-0.1,0.8,-0.2l13.3,5.4c-0.3,0,-0.5,0.1,-0.8,0.1Z" class="g3_1" />
</g>
<path d="M915.6,91.9l-0.8,255.8c0,9.5,-3.2,18.1,-8.7,24.3c-9.6,-2.6,-3.9,-8.8,-12.1,-21.2C883,330.7,869.8,312.4,854.8,296.2c-1.5,-1.7,-3.1,-3.4,-5.2,-5.8c-18.6,29.8,-37.3,59.4,-54,90.9c-0.5,0.9,-2.9,1.3,-5.5,1.3c-0.8,0,-1.4,0,-1.9,0c-0.9,-0.1,-1.8,-0.2,-2.6,-0.4c-0.3,0,-0.6,-0.1,-0.9,-0.2c-0.4,0.1,-0.8,0.1,-1.2,0.1c-4.3,-0.1,-6.8,-0.6,-6.8,-1.5c0.9,-1.4,1.7,-2.6,2.4,-4.1c0.6,-1.4,1.5,-2.6,2.3,-4c-1.9,-0.2,-2.9,-0.7,-3.3,-1.2c-3.3,-0.2,-6.2,-0.8,-6.2,-1.6c1.1,-2,2.2,-3.6,3,-5.3c-0.6,-0.2,-1.1,-0.5,-1.1,-1c0.3,-0.9,0.5,-1.4,0.9,-1.9c-2.5,-0.2,-4.5,-0.8,-4.5,-1.5c1.8,-3.3,3.7,-6.3,5.4,-9.2c0.2,-0.7,0.6,-1.4,0.8,-1.9c-1.7,-0.4,-3.2,-1,-3.2,-1.7c0.5,-1.2,0.7,-1.7,1.2,-2.1c-2.2,-0.2,-3.8,-0.8,-3.8,-1.7c0.6,-1.4,1.3,-2.4,1.7,-3.1c-1.3,-0.4,-2.2,-1,-2.2,-1.7c1.6,-3.1,3.3,-5.5,4.7,-8.1c-1.3,-0.2,-2.4,-0.7,-2.4,-1.5c0.8,-1.8,1.6,-3,2.2,-4.2c-0.4,-0.2,-0.8,-0.6,-0.8,-1.1c13.5,-24,27.6,-46.6,42.1,-69.1c-12.5,-14.8,-23.6,-31.2,-27.1,-46c-3.4,-7.3,-5.4,-14.2,-5.4,-20.7c0,-1.8,0.2,-3.6,0.5,-5.3c-0.2,-0.7,-0.4,-1.2,-0.4,-1.9c-1.3,-2.3,-1.9,-4.5,-1.9,-6.8c0,-2.2,0.6,-4.4,1.9,-6.6c0.2,-0.7,1,-1.2,2.1,-1.4c-0.8,-2.6,-1.4,-5.5,-1.6,-8.1c-0.5,-2.4,-0.8,-4.8,-0.8,-7.1c0,-1.8,0.2,-3.5,0.6,-5.3c0.2,-0.7,1.2,-1.2,2.5,-1.5c-0.1,-1.7,-0.2,-3.4,-0.2,-5c0,-1.1,0,-2.2,0.2,-3.3c0,-0.7,0.9,-1,1.5,-1.2c0,-1.6,0,-2.9,0.2,-4c0,-1,1.5,-1.5,3,-1.7c0.2,-1,0.2,-1.9,0.6,-3.6c0,-0.3,0.1,-0.5,0.2,-0.8c0.3,-0.4,0.8,-0.7,1.3,-0.9c1.7,0,2.7,0.6,2.6,1.7c-0.1,2.1,-0.1,3.8,-0.3,5.3c0.2,-1.2,0.4,-2.4,0.6,-3.9c1.8,-0.5,2.3,0.1,2.2,1l-1.8,6.4c-0.4,0.6,-0.6,0.4,-0.8,0c-0.2,-0.3,-0.3,-0.8,-0.5,-1.2l0,2.7c0.9,0.7,1.3,0.7,1.7,0.9c0.7,-1.6,1,-1.6,1.2,-1.6c0.9,0.1,1.2,0.3,1.5,0.7c0.2,-1.5,0.7,-2.7,0.9,-4.1c0.4,-0.3,0.6,0.7,0.7,1.5c0.1,0.4,0.1,0.8,0.1,0.9l-1,4c0.2,0.8,0.4,1.5,0.8,2.2c1.3,0,1.7,0.6,1.7,1.4c0.4,1.4,0.8,2.6,1.2,3.8c0.5,0,1.3,0.8,1.3,1.8c12.9,21.1,26,41.7,39.4,62.4c12.2,-18.8,24,-38.2,35.2,-57.7c9.9,-21,20.4,-45.1,35.8,-59.7Z" class="g9_1" />
<g clip-path="url(#c97_1)">
<path d="M713.6,271.1l-13.3,-5.3c0.9,0,1.7,0,2.6,-0.1l13.3,5.3c-0.9,0.1,-1.7,0.1,-2.6,0.1Z" class="g2_1" />
<path d="M716.2,271l-13.3,-5.3c2.9,-0.1,5.7,-0.5,8.4,-1.2l13.3,5.4c-2.7,0.6,-5.5,1,-8.4,1.1Z" class="g3_1" />
<path d="M724.6,269.9l-13.3,-5.4c3.1,-0.7,6.1,-1.7,8.9,-3l13.3,5.3c-2.8,1.3,-5.8,2.3,-8.9,3.1Z" class="g4_1" />
<path d="M733.5,266.8l-13.3,-5.3c14.7,-6.7,24.8,-20.6,24.9,-36.8c0,-16.6,-10.9,-31,-26.7,-37.3l13.3,5.3c15.8,6.3,26.7,20.7,26.7,37.4c-0.1,16.1,-10.2,30,-24.9,36.7Z" class="g1_1" />
</g>
<g clip-path="url(#c98_1)">
<path d="M695.7,267.7l-13.4,-5.3c0.7,0.2,1.4,0.5,2,0.7l13.3,5.3c-0.6,-0.2,-1.3,-0.5,-1.9,-0.7Z" class="g5_1" />
<path d="M697.6,268.4l-13.3,-5.3c3.2,1.1,6.4,1.9,9.8,2.3l13.3,5.3c-3.4,-0.4,-6.6,-1.2,-9.8,-2.3Z" class="g6_1" />
<path d="M707.4,270.7l-13.3,-5.3c2,0.2,4.1,0.4,6.2,0.4l13.3,5.3c-2.1,0,-4.1,-0.1,-6.2,-0.4Z" class="g2_1" />
</g>
<g clip-path="url(#c99_1)">
<path d="M713.8,189.3l-13.3,-5.4c2.1,0,4.2,0.2,6.2,0.4l13.3,5.4c-2,-0.3,-4.1,-0.4,-6.2,-0.4Z" class="g2_1" />
<path d="M720,189.7l-13.3,-5.4c3.4,0.5,6.6,1.2,9.7,2.3l13.3,5.3c-3.1,-1,-6.3,-1.8,-9.7,-2.2Z" class="g6_1" />
<path d="M729.7,191.9l-13.3,-5.3c0.7,0.2,1.3,0.5,2,0.7l13.3,5.4c-0.6,-0.3,-1.3,-0.5,-2,-0.8Z" class="g5_1" />
</g>
<g clip-path="url(#c100_1)">
<path d="M695.7,267.7l-13.4,-5.3C666.5,256,655.5,241.6,655.5,224.7c0.1,-15.9,10.3,-29.7,25,-36.5l13.3,5.4c-14.7,6.7,-24.9,20.6,-24.9,36.5c-0.1,16.8,10.9,31.3,26.8,37.6Z" class="g1_1" />
</g>
<g clip-path="url(#c101_1)">
<path d="M695.7,267.7l-13.4,-5.3C666.5,256,655.5,241.6,655.5,224.7c0.1,-15.9,10.3,-29.7,25,-36.5l13.3,5.4c-14.7,6.7,-24.9,20.6,-24.9,36.5c-0.1,16.8,10.9,31.3,26.8,37.6Z" class="g1_1" />
<path d="M693.8,193.6l-13.3,-5.4c2.8,-1.2,5.8,-2.3,9,-3l13.3,5.3c-3.1,0.8,-6.2,1.8,-9,3.1Z" class="g4_1" />
<path d="M702.8,190.5l-13.3,-5.3c2.7,-0.6,5.5,-1,8.4,-1.2l13.3,5.3c-2.9,0.2,-5.7,0.6,-8.4,1.2Z" class="g3_1" />
<path d="M711.2,189.3L697.9,184c0.9,0,1.8,-0.1,2.6,-0.1l13.3,5.4c-0.8,0,-1.7,0,-2.6,0Z" class="g2_1" />
</g>
<g clip-path="url(#c102_1)">
<path d="M695.7,267.7l-13.4,-5.3C666.5,256,655.5,241.6,655.5,224.7c0.1,-15.9,10.3,-29.7,25,-36.5l13.3,5.4c-14.7,6.7,-24.9,20.6,-24.9,36.5c-0.1,16.8,10.9,31.3,26.8,37.6Z" class="g1_1" />
</g>
<path d="M486.5,366.8l-13.3,-5.4l5.2,0l13.3,5.4Z" class="g8_1" />
<path d="M491.7,366.8l-13.3,-5.4L479.3,67l13.3,5.4Z" class="g7_1" />
<path d="M487.4,72.4L474.1,67l5.2,0l13.3,5.4Z" class="g8_1" />
<path d="M486.5,366.8l-13.3,-5.4L474.1,67l13.3,5.4Z" class="g7_1" />
<g clip-path="url(#c103_1)">
<path d="M240.5,265.4L227.2,260c0.5,0.2,1.1,0.4,1.6,0.6l13.3,5.4c-0.5,-0.2,-1.1,-0.4,-1.6,-0.6Z" class="g5_1" />
<path d="M242.1,266l-13.3,-5.4c2.4,0.9,4.9,1.4,7.5,1.8l13.3,5.3c-2.6,-0.3,-5.1,-0.9,-7.5,-1.7Z" class="g6_1" />
<path d="M249.6,267.7l-13.3,-5.3c1.5,0.2,3.1,0.3,4.7,0.3l13.3,5.3c-1.6,0,-3.2,-0.1,-4.7,-0.3Z" class="g2_1" />
</g>
<g clip-path="url(#c104_1)">
<path d="M254.3,268L241,262.7c0.6,0,1.3,0,1.9,-0.1l13.3,5.3c-0.6,0.1,-1.3,0.1,-1.9,0.1Z" class="g2_1" />
<path d="M256.2,267.9l-13.3,-5.3c2.2,-0.1,4.3,-0.4,6.4,-0.9l13.3,5.4c-2.1,0.4,-4.2,0.7,-6.4,0.8Z" class="g3_1" />
<path d="M262.6,267.1l-13.3,-5.4c2.4,-0.5,4.7,-1.3,6.9,-2.3l13.4,5.3c-2.3,1,-4.6,1.8,-7,2.4Z" class="g4_1" />
<path d="M269.6,264.7l-13.4,-5.3c13,-6,22.2,-19.2,22.2,-34.7c0.1,-15.8,-9.7,-29.5,-23.5,-35l13.3,5.3c13.8,5.5,23.6,19.2,23.5,35.1c0,15.4,-9.2,28.7,-22.1,34.6Z" class="g1_1" />
</g>
<g clip-path="url(#c105_1)">
<path d="M254.5,192.4L241.2,187c1.6,0,3.1,0.1,4.6,0.3l13.3,5.4c-1.5,-0.2,-3,-0.3,-4.6,-0.3Z" class="g2_1" />
<path d="M259.1,192.7l-13.3,-5.4c2.6,0.4,5.1,1,7.5,1.8l13.3,5.3c-2.4,-0.8,-4.9,-1.4,-7.5,-1.7Z" class="g6_1" />
<path d="M266.6,194.4l-13.3,-5.3c0.5,0.2,1,0.4,1.6,0.6l13.3,5.3c-0.5,-0.2,-1.1,-0.4,-1.6,-0.6Z" class="g5_1" />
</g>
<g clip-path="url(#c106_1)">
<path d="M240.5,265.4L227.2,260c-13.8,-5.5,-23.5,-19.2,-23.4,-35.3c0,-15.2,9,-28.4,22,-34.3l13.3,5.3c-13,5.9,-22,19.1,-22,34.4c-0.1,16,9.6,29.7,23.4,35.3Z" class="g1_1" />
<path d="M239.1,195.7l-13.3,-5.3c2.2,-1,4.5,-1.8,7,-2.4l13.3,5.3c-2.5,0.6,-4.8,1.4,-7,2.4Z" class="g4_1" />
<path d="M246.1,193.3L232.8,188c2,-0.5,4.2,-0.8,6.4,-0.9l13.3,5.3c-2.2,0.1,-4.3,0.5,-6.4,0.9Z" class="g3_1" />
<path d="M252.5,192.4l-13.3,-5.3c0.7,0,1.3,-0.1,2,-0.1l13.3,5.4c-0.7,0,-1.3,0,-2,0Z" class="g2_1" />
</g>
<g clip-path="url(#c107_1)">
<path d="M64.4,381.5L51.1,376.1c0.4,0.2,0.8,0.3,1.2,0.5l13.3,5.3c-0.4,-0.1,-0.8,-0.3,-1.2,-0.4Z" class="g5_1" />
<path d="M65.6,381.9L52.3,376.6c1.9,0.6,3.8,1.1,5.8,1.3l13.3,5.4c-2,-0.3,-3.9,-0.8,-5.8,-1.4Z" class="g6_1" />
<path d="M71.4,383.3L58.1,377.9c1.1,0.2,2.3,0.2,3.5,0.2l13.3,5.4c-1.2,0,-2.4,-0.1,-3.5,-0.2Z" class="g2_1" />
</g>
<g clip-path="url(#c108_1)">
<path d="M64.4,381.5L51.1,376.1C38.9,371.2,30.2,358,30.3,342.4l13.3,5.3c-0.1,15.6,8.6,28.9,20.8,33.8Z" class="g1_1" />
</g>
<path d="M75.9,49.5L62.6,44.1l808.4,0l13.3,5.4Z" class="g8_1" />
<path d="M43.6,347.7L30.3,342.4L31.1,79.9l13.3,5.4Z" class="g7_1" />
<g clip-path="url(#c109_1)">
<path d="M44.4,85.3L31.1,79.9C31.1,64.8,39.3,52,50.9,46.7L64.2,52C52.6,57.3,44.4,70.2,44.4,85.3Z" class="g1_1" />
<path d="M64.2,52L50.9,46.7c1.7,-0.8,3.5,-1.4,5.3,-1.8l13.3,5.3c-1.8,0.4,-3.6,1,-5.3,1.8Z" class="g4_1" />
<path d="M69.5,50.2L56.2,44.9c1.6,-0.4,3.3,-0.6,4.9,-0.7l13.3,5.3c-1.6,0.1,-3.3,0.3,-4.9,0.7Z" class="g3_1" />
<path d="M74.4,49.5L61.1,44.2c0.5,0,1,-0.1,1.5,-0.1l13.3,5.4c-0.5,0,-1,0,-1.5,0Z" class="g2_1" />
</g>
<path d="M915.6,91.9l0,-6.6C915.7,65.5,901.7,49.5,884.3,49.5l-808.4,0c-17.4,0,-31.5,16,-31.5,35.8L43.6,347.7c-0.1,19.8,13.9,35.8,31.3,35.8l808.4,0c9,0,17.2,-4.3,22.8,-11.5c5.5,-6.2,8.7,-14.8,8.7,-24.3L915.6,91.9M884.3,25.6c29,0,52.4,26.7,52.3,59.7l-0.8,262.4c-0.1,32.9,-23.7,59.6,-52.6,59.6l-808.4,0c-28.9,0,-52.3,-26.7,-52.2,-59.6L23.4,85.3C23.5,52.3,47.1,25.6,76,25.6Z" class="g9_1" />
<path d="M713.8,189.3c24.8,0,44.6,18.3,44.6,40.8c-0.1,22.6,-20.1,41,-44.8,41c-24.8,0,-44.8,-18.4,-44.7,-41c0,-22.5,20.2,-40.8,44.9,-40.8Z" class="g9_1" />
<path d="M492.6,72.4l-0.9,294.4l-5.2,0L487.4,72.4Z" class="g9_1" />
<path d="M254.5,192.4c20.6,0,37.3,16.9,37.2,37.7c0,21,-16.9,37.9,-37.4,37.9C233.5,268,217,251.1,217.1,230.1c0,-20.8,16.7,-37.7,37.4,-37.7Z" class="g9_1" />
<g clip-path="url(#c110_1)">
<path d="M57.5,404L44.1,398.6C23.8,390.5,9.2,368.4,9.3,342.4l13.3,5.3c-0.1,26,14.5,48.1,34.9,56.3Z" class="g1_1" />
</g>
<path d="M76,25.6L62.7,20.3l808.3,0l13.3,5.3Z" class="g8_1" />
<path d="M491.7,366.8L492.6,72.4l-5.2,0l-0.9,294.4l5.2,0M254.3,268c20.5,0,37.4,-16.9,37.4,-37.9C291.8,209.3,275,192.4,254.5,192.4c-20.7,0,-37.4,16.9,-37.4,37.7c-0.1,21,16.4,37.9,37.2,37.9m459.3,3.1c24.7,0,44.7,-18.4,44.8,-41c0,-22.5,-19.8,-40.8,-44.6,-40.8c-24.7,0,-44.9,18.3,-44.9,40.8c-0.1,22.6,19.9,41,44.7,41m131,-61.8C831.2,188.6,818.1,168,805.2,147.3c0,-1.4,-0.8,-2.2,-1.3,-2.2c-0.4,-1.2,-0.8,-2.4,-1.2,-3.5c-2.1,-2.4,-2.3,-3.1,-2.5,-3.9l1,-4c-1,-1,-1.5,0.2,-1.7,1.7l-4.4,-2.7l3,-4.7c-2.3,0,-2.5,1.2,-2.7,2.4c0.2,-1.5,0.2,-3.2,0.2,-4.6c0.2,-1.8,-0.8,-2.4,-1.8,-2.4c-2.6,3.4,-2.6,4.3,-2.8,5.3c-1.5,0.2,-3,0.7,-3,1.7c-0.2,1.1,-0.2,2.4,-0.2,3.7c-1.7,2.6,-1.7,3.7,-1.7,4.8c0,1.6,0.1,3.3,0.2,5c-1.3,0.3,-2.3,0.8,-2.5,1.5c-0.4,1.8,-0.6,3.5,-0.6,5.3c0,2.3,0.3,4.7,0.8,7.1c0.2,2.6,0.8,5.5,1.6,8.1c-1.1,0.2,-1.9,0.7,-2.1,1.4c-1.3,2.2,-1.9,4.4,-1.9,6.6c0,2.3,0.6,4.5,1.9,6.8c0.1,3.6,-0.1,5.4,-0.1,7.2c0,6.5,2,13.4,5.4,20.7c3.5,14.8,14.6,31.2,27.1,46c-14.5,22.5,-28.6,45.1,-41.9,68.5c0,2.9,-0.8,4.1,-1.5,5.3c-0.1,1.4,1,1.9,2.3,2.1c-1.4,2.6,-3.1,5,-4.6,7.6c-0.1,1.2,0.8,1.8,2.1,2.2c-0.4,0.7,-1.1,1.7,-1.5,2.6c-0.2,1.4,1.4,2,3.6,2.2c-1.2,2.8,0.3,3.4,2,3.8c-2.5,4.8,-4.4,7.8,-6.1,10.7c-0.1,1.1,1.9,1.7,4.4,1.9c-0.6,4.6,-1.7,6.2,-2.7,7.9c-0.1,1.1,2.8,1.7,6.1,1.9c0.4,0.5,1.4,1,3.3,1.2c-0.8,1.4,-1.7,2.6,-2.3,3.8c-0.7,1.7,-1.5,2.9,-2.3,4.1c-0.1,1,2.4,1.6,5.6,1.7c4,0.3,4.9,0.4,5.8,0.5c4.5,0,6.9,-0.4,7.4,-1.3c16.7,-31.5,35.4,-61.1,54,-90.9c2.1,2.4,3.7,4.1,5.2,5.8c15,16.2,28.2,34.5,39.2,54.6c8.2,12.4,2.5,18.6,12.1,21.2c-5.6,7.2,-13.8,11.5,-22.8,11.5l-808.4,0c-17.4,0,-31.4,-16,-31.3,-35.8L44.4,85.3C44.4,65.5,58.5,49.5,75.9,49.5l808.4,0c17.4,0,31.4,16,31.3,35.8l0,6.6c-15.4,14.6,-25.9,38.7,-35.8,59.7c-11.2,19.5,-23,38.9,-35.2,57.7Z" class="g9_1" />
<path d="M22.6,347.7L9.3,342.4L10.1,79.9l13.3,5.4Z" class="g7_1" />
<g clip-path="url(#c111_1)">
<path d="M23.4,85.3L10.1,79.9C10.2,54.8,23.9,33.4,43.2,24.6l13.3,5.3C37.2,38.7,23.5,60.2,23.4,85.3Z" class="g1_1" />
<path d="M56.5,29.9L43.2,24.6C46,23.2,49,22.2,52.1,21.5l13.3,5.3c-3.1,0.7,-6.1,1.8,-8.9,3.1Z" class="g4_1" />
<path d="M65.4,26.8L52.1,21.5c2.7,-0.6,5.4,-1,8.1,-1.2l13.3,5.4c-2.7,0.1,-5.4,0.5,-8.1,1.1Z" class="g3_1" />
<path d="M73.5,25.7L60.2,20.3c0.8,0,1.7,0,2.5,0L76,25.6c-0.8,0,-1.7,0,-2.5,0.1Z" class="g2_1" />
</g>
<path d="M485,364l-5,0L480,69l5,0l0,295Z" class="g10_1" />
<text 
transform="matrix(1.11, 0, 0, 1, 46, 273)"
dx="0" 
class="s1_1"
>D</text>

<text 
transform="matrix(1.11, 0, 0, 1, 188, 273)"
dx="0" 
class="s2_1"
>o</text>

<text 
transform="matrix(1.11, 0, 0, 1, 304, 273)"
dx="0,0,0" 
class="s1_1"
>min</text>

<text 
transform="matrix(1.11, 0, 0, 1, 649, 273)"
dx="0" 
class="s2_1"
>o</text>

<path d="M284.4,227.4c0,21,-16.9,38,-37.5,38c-20.8,0,-37.4,-17,-37.4,-38c0,-20.8,16.6,-37.7,37.4,-37.7c20.6,0,37.5,16.9,37.5,37.7Z" class="g11_1" />
<path d="M752.8,227.4c0,22.7,-20,41.1,-44.8,41.1c-24.8,0,-45,-18.4,-45,-41.1c0,-22.4,20.2,-40.8,45,-40.8c24.8,0,44.8,18.4,44.8,40.8Z" class="g11_1" />
<path d="M914,347.2l-0.2,0c-0.6,9.4,-3.4,22,-4,22c-1.9,-0.5,-3.2,-0.7,-4.4,-1.2c-0.4,1.2,-0.7,2.2,-0.9,2.2c-1,-0.3,-2.1,-0.5,-2.9,-0.8c-9.7,-2.6,-4,-8.8,-12.2,-21.2C878.2,328.2,865,309.8,849.8,293.5c-1.4,-1.6,-3.1,-3.3,-5.2,-5.7C835.9,279.5,822.7,266.3,810.7,252C798.1,237.2,786.9,220.7,783.3,205.9c-4.4,-9.3,-6.5,-18.1,-5,-26c-0.2,-0.7,-0.4,-1.2,-0.4,-1.9c-2.6,-4.5,-2.6,-9.1,0,-13.4c0.2,-0.7,1,-1.2,2.1,-1.4c-0.9,-2.6,-1.5,-5.5,-1.7,-8.1c-0.9,-4.3,-1.1,-8.4,-0.2,-12.4c0.2,-0.7,1.2,-1.2,2.5,-1.5c-0.2,-2.8,-0.4,-5.7,0,-8.3c0,-0.7,0.8,-1,1.5,-1.2c0,-1.4,0,-2.9,0.2,-4.1c0,-0.9,1.4,-1.4,2.9,-1.6c0.2,-1,0.2,-2,0.7,-3.6c0.2,-2.6,5,-2.2,4,0.7c0,1.4,0,3.1,-0.3,4.5c0.3,-1.2,0.5,-2.4,0.7,-3.8c0.4,-1.7,2.7,-0.5,2.1,1.4l-1.7,6c-0.2,1.4,-0.8,0,-1.3,-1.2l0,2.6l0.2,0.3l0,0.5c0.7,0,1.1,0,1.5,0.2l0,-0.7c0.2,-1.2,1.9,-1.2,2.7,-0.3c0.3,-1.4,0.7,-2.6,0.9,-4c0.4,-1.2,0.8,1.9,0.8,2.4l-1,4c0.2,0.7,0.4,1.5,0.8,2.2c0.7,-0.7,1.9,0.2,1.7,1.6c0.4,1.2,0.8,2.4,1.3,3.6c0.6,0,1.4,1,1.2,2.2c13.1,20.7,26.3,41.3,39.8,62c8.2,13.2,16.6,26.3,25,39.4c1.3,1.5,-1,0.3,-1.4,-0.2C858.2,241,851.1,234.3,843.3,226.5c6.3,6.6,12.4,13.3,18.5,20.5c1.5,1.9,3,3.8,4.4,5.5c4.9,6.2,9.5,12.2,14.1,18.4c1.5,1.9,3.2,3.8,4.9,5.9c0,0,0.2,0.7,0.6,1.2c6.5,9.1,12.8,18.6,18.5,28.9c1.9,3.6,4,7.2,5.9,10.7c1.9,3.4,3.6,6.5,5.5,9.8c1.5,0.5,1.3,3.6,0.4,5c0,0.3,0.2,0.5,0.2,0.5c2.6,1,-0.4,15.1,-2.3,14.3Z" class="g11_1" />
<path d="M922.2,97.2c0.6,0,1.3,-2.2,1.9,-2.2c-0.7,0,-1.3,2.2,-1.9,2.2Z" class="g11_1" />
<path d="M904.1,128.6c-2.1,2.6,-4.4,5,-6.3,7.9c2.5,-4.3,5.7,-8.2,8.6,-12c-0.8,1.5,-1.6,2.9,-2.3,4.1M920.7,99.7c-1.2,1,-2.3,2.1,-3.5,3.1c1.2,-1.2,0.4,-3.6,-1.1,-2.6c-0.6,0.2,-1,0.9,-1.7,1.2c1.3,-1,0.7,-2.4,-0.4,-3.6c2.1,-1.9,4,-3.8,6.1,-5.7c0.2,-0.3,0.6,-0.5,0.6,-0.8l0,-1.4c-0.2,-0.9,-1,-1.7,-1.8,-1.2c-0.3,0.3,-0.5,0.7,-0.9,1c0.6,-2.2,-2.3,-5,-4,-3.8c-1.3,0.9,-2.5,2.1,-3.8,3.3c-15.3,14.6,-25.9,38.7,-35.8,59.7c-11.1,19.5,-22.9,38.9,-35.1,57.7c-9.5,15.1,-19.1,30.1,-28.6,45.4c-14.5,22.4,-28.6,45.1,-41.9,68.5c-0.4,0.7,0,1.4,0.6,1.7c-0.6,1.2,-1.4,2.4,-2.1,3.6c-0.6,1.2,0.7,1.9,2.3,2.1c-1.4,2.6,-3.1,5,-4.6,7.6c-0.4,1,0.7,1.7,2.1,2.2c-0.4,0.7,-1,1.7,-1.4,2.6c-0.9,1.2,1,1.9,3.5,2.2c-0.4,0.5,-0.6,0.9,-1,1.6c-0.7,1,1,1.7,3.1,2.2c-0.2,0.5,-0.6,1.2,-1,1.7l0.2,0.2c-1.7,2.9,-3.6,6,-5.3,8.8c-0.6,1,1.5,1.7,4.4,1.9c-0.4,0.5,-0.6,1,-0.8,1.5c-0.4,0.7,0.2,1.2,1.1,1.4c-0.9,1.7,-1.9,3.4,-3,5c-0.6,1,2.5,1.7,6.1,1.9c0.4,0.5,1.5,1,3.4,1.2c-0.9,1.5,-1.7,2.7,-2.3,3.8l0,0.3c-0.7,1.4,-1.5,2.6,-2.3,3.8c-0.7,1.2,3.5,1.9,8,1.7c3.5,0.9,10.1,0.7,10.9,-0.7c16.6,-31.6,35.3,-61.2,53.9,-91c7.3,-11.7,14.5,-23.4,21.6,-35.3c10.8,-18.2,21.1,-36.8,30.6,-56.1c0.2,-0.5,0.4,-3.6,-0.5,-2.4c-3.3,5.5,-6.7,10.7,-10.1,16c2.1,-4.3,4.9,-8.6,7,-13.1c0.2,-0.5,0,-1.2,-0.4,-1.5c1.2,-2.4,2.5,-4.5,3.5,-6.7c0.2,-0.4,0.5,-3.3,-0.2,-2.1c-0.8,1.2,-1.7,2.4,-2.3,3.8c-0.2,-0.2,-0.4,-0.2,-0.6,-0.5c0.8,-1.6,1.9,-3.3,2.7,-5.2c0.2,-0.3,0.4,-1.9,0.4,-2.6c0,0,-0.2,-0.3,-0.2,0c-1,1.6,-1.9,3.1,-2.9,4.5c0.4,-1.2,-0.4,-2.4,-1.5,-2.9c0.6,-0.9,1.3,-2.1,1.9,-3.1c0.4,-0.7,0.2,-1.6,0,-2.1c3.8,-7.7,7.8,-15.5,11.8,-23.2c0.6,-1.2,-0.9,-2.6,-1.7,-1.9c0.8,-1.9,1.7,-3.6,2.5,-5.5c0.7,-1.2,1.3,-2.4,1.9,-3.6c0,-0.2,0.4,-1.6,0.4,-1.9c0,0,-0.2,-0.2,-0.2,0c-0.8,1.2,-1.7,2.7,-2.5,3.8c-0.2,0,-0.4,-0.2,-0.8,0.3c-3.4,5.2,-6.6,10.5,-9.9,15.7c2.9,-5.7,5.9,-11.4,8.8,-17.1c0.2,-0.3,0.2,-0.8,0,-1c0.6,-1.2,1.1,-2.1,1.7,-3.3c0.6,-1,-0.2,-1.7,-1.1,-2.2c0.9,-1.2,1.5,-2.6,2.1,-4l0,-0.5c0.9,-1.5,1.7,-2.9,2.6,-4.3c0,-0.3,0.4,-1.2,0.4,-1.7c-1.1,1.7,-2.1,3.1,-3.2,4.8c-0.2,-0.3,-0.6,-0.5,-1,0.2c-1.3,2.2,-3,4.6,-4.4,6.9c3.1,-5.9,6.1,-11.7,9,-17.4c0,-0.2,0.2,-1.4,-0.4,-0.9c-0.4,0.4,-0.9,1.2,-1.3,1.6c0.2,-0.4,0.4,-1.2,0.4,-1.6c0.5,-0.8,1.1,-1.2,1.5,-1.9c0.9,-1.5,1.9,-2.9,3,-4.1c0.4,-0.2,1.4,-3.1,0.2,-2.4c-1.1,0.7,-1.7,1.4,-2.5,1.9c1.6,-1.9,3.1,-4.3,4.8,-6.2c0.8,-0.5,1.7,-3.1,0.4,-2.4c-1,0.7,-1.7,1.5,-2.7,2.2c-0.2,-0.3,-0.4,-0.5,-0.7,-0.7c0.7,-0.5,1.1,-1.5,1.7,-2c1.9,-1.6,3.6,-3.5,5.5,-5c0.4,-0.2,0.6,-0.7,0.8,-1.2c0.5,-0.4,0.7,-0.7,0.9,-0.9c-0.2,0.2,-0.6,0.5,-0.9,0.7Z" class="g11_1" />
<path d="M801.9,178.4c0,0,7.5,9,14.6,18.3c3.7,4.5,7.1,9.3,8.9,13.5c1.9,4.2,2.7,7.4,2.7,7.4l-0.5,0.3c0,0,-2.5,-1.6,-5.5,-4.8c-3.1,-3.1,-6.2,-8.2,-9,-13.5c-6,-10.2,-11.6,-20.8,-11.6,-20.8Z" class="g12_1" />
<path d="M801.7,206.6c0,0,1.3,0.3,2.9,1.1c1.7,0.8,3.3,2.5,4.9,4.1c1.3,2,2.6,4,3.2,5.9c0.5,1.9,0.7,3.4,0.7,3.4c0,0,-1.3,-0.3,-2.9,-1.1c-1.7,-0.8,-3.3,-2.5,-4.9,-4.1c-1.3,-2,-2.6,-4,-3.1,-5.9c-0.6,-1.9,-0.8,-3.4,-0.8,-3.4Z" class="g12_1" />

<path d="M0,431
L0,0
L957,0
L957,431 z "
fill="none"
stroke-width="1.0"
stroke-linecap="butt"
stroke-linejoin="miter"
stroke="#000000" />

<!-- Any embedded fonts defined here -->
<style type="text/css" ><![CDATA[

@font-face {
	font-family: SHWLKE-MyriadPro-Regular1;
	src :url("1/fonts/SHWLKE-MyriadPro-Regular.woff") format("woff");
}

]]></style>

<title>logo4 Page1</title>
</svg>
